ISO-10303-21;
HEADER;
/* Generated by software containing ST-Developer
 * from STEP Tools, Inc. (www.steptools.com) 
 */
/* OPTION: using custom renumber hook */

FILE_DESCRIPTION(
/* description */ ('STEP AP242 Edition 2',
'CAx-IF Rec.Pracs.---Representation and Presentation of Product Manufa
cturing Information (PMI)---4.0---2014-10-13',
'CAx-IF Rec.Pracs.---3D Tessellated Geometry---0.4---2014-09-14','2;1',
'CAx-IF Rec.Pracs.---User Defined Attributes---1.5---2016-08-15'),
/* implementation_level */ '2;1');

FILE_NAME(
/* name */ 'Part Studio 1 - Part 4',
/* time_stamp */ '2026-09-25T23:53:55Z',
/* author */ (''),
/* organization */ (''),
/* preprocessor_version */ 'ST-DEVELOPER v20',
/* originating_system */ 'ONSHAPE BY PTC INC, 1.221',
/* authorisation */ '  ');

FILE_SCHEMA (('AP242_MANAGED_MODEL_BASED_3D_ENGINEERING_MIM_LF { 1 0 10303 442 3 1 4 }'));
ENDSEC;

DATA;
#10=SHAPE_REPRESENTATION_RELATIONSHIP('','',#720,#11);
#11=ADVANCED_BREP_SHAPE_REPRESENTATION('',(#718),#1243);
#12=B_SPLINE_SURFACE_WITH_KNOTS('',3,1,((#1114,#1115),(#1116,#1117),(#1118,
#1119),(#1120,#1121)),.SURF_OF_LINEAR_EXTRUSION.,.F.,.F.,.F.,(4,4),(2,2),
(0.,1.),(0.,1.),.PIECEWISE_BEZIER_KNOTS.);
#13=B_SPLINE_SURFACE_WITH_KNOTS('',3,1,((#1129,#1130),(#1131,#1132),(#1133,
#1134),(#1135,#1136)),.SURF_OF_LINEAR_EXTRUSION.,.F.,.F.,.F.,(4,4),(2,2),
(0.,1.),(0.,1.),.PIECEWISE_BEZIER_KNOTS.);
#14=B_SPLINE_SURFACE_WITH_KNOTS('',3,1,((#1146,#1147),(#1148,#1149),(#1150,
#1151),(#1152,#1153)),.SURF_OF_LINEAR_EXTRUSION.,.F.,.F.,.F.,(4,4),(2,2),
(0.,1.),(0.,1.),.PIECEWISE_BEZIER_KNOTS.);
#15=B_SPLINE_SURFACE_WITH_KNOTS('',3,1,((#1165,#1166),(#1167,#1168),(#1169,
#1170),(#1171,#1172)),.SURF_OF_LINEAR_EXTRUSION.,.F.,.F.,.F.,(4,4),(2,2),
(0.,1.),(0.,1.),.PIECEWISE_BEZIER_KNOTS.);
#16=TOROIDAL_SURFACE('',#749,0.0161257116796208,0.015);
#17=B_SPLINE_CURVE_WITH_KNOTS('',2,(#1044,#1045,#1046),.UNSPECIFIED.,.F.,
 .F.,(3,3),(0.,1.),.PIECEWISE_BEZIER_KNOTS.);
#18=B_SPLINE_CURVE_WITH_KNOTS('',2,(#1050,#1051,#1052),.UNSPECIFIED.,.F.,
 .F.,(3,3),(0.,1.),.PIECEWISE_BEZIER_KNOTS.);
#19=B_SPLINE_CURVE_WITH_KNOTS('',2,(#1058,#1059,#1060),.UNSPECIFIED.,.F.,
 .F.,(3,3),(0.,1.),.PIECEWISE_BEZIER_KNOTS.);
#20=B_SPLINE_CURVE_WITH_KNOTS('',2,(#1064,#1065,#1066),.UNSPECIFIED.,.F.,
 .F.,(3,3),(0.,1.),.PIECEWISE_BEZIER_KNOTS.);
#21=B_SPLINE_CURVE_WITH_KNOTS('',2,(#1101,#1102,#1103),.UNSPECIFIED.,.F.,
 .F.,(3,3),(0.,1.),.PIECEWISE_BEZIER_KNOTS.);
#22=B_SPLINE_CURVE_WITH_KNOTS('',2,(#1104,#1105,#1106),.UNSPECIFIED.,.F.,
 .F.,(3,3),(0.,1.),.PIECEWISE_BEZIER_KNOTS.);
#23=B_SPLINE_CURVE_WITH_KNOTS('',2,(#1108,#1109,#1110),.UNSPECIFIED.,.F.,
 .F.,(3,3),(0.,1.),.PIECEWISE_BEZIER_KNOTS.);
#24=B_SPLINE_CURVE_WITH_KNOTS('',2,(#1111,#1112,#1113),.UNSPECIFIED.,.F.,
 .F.,(3,3),(0.,1.),.PIECEWISE_BEZIER_KNOTS.);
#25=B_SPLINE_CURVE_WITH_KNOTS('',3,(#1122,#1123,#1124,#1125,#1126),
 .UNSPECIFIED.,.F.,.F.,(4,1,4),(0.,0.00202530670786335,0.0040506134157267),
 .UNSPECIFIED.);
#26=B_SPLINE_CURVE_WITH_KNOTS('',3,(#1139,#1140,#1141,#1142,#1143,#1144,
#1145),.UNSPECIFIED.,.F.,.F.,(4,1,1,1,4),(0.,0.00218722970881453,0.00437445941762905,
0.00656168912644358,0.0087489188352581),.UNSPECIFIED.);
#27=B_SPLINE_CURVE_WITH_KNOTS('',3,(#1154,#1155,#1156,#1157,#1158,#1159,
#1160),.UNSPECIFIED.,.F.,.F.,(4,1,1,1,4),(0.,0.00220922143848888,0.00441844287697776,
0.00662766431546664,0.00883688575395552),.UNSPECIFIED.);
#28=B_SPLINE_CURVE_WITH_KNOTS('',3,(#1173,#1174,#1175,#1176,#1177,#1178,
#1179),.UNSPECIFIED.,.F.,.F.,(4,1,1,1,4),(0.,0.00209397975301853,0.00418795950603706,
0.00628193925905558,0.00837591901207411),.UNSPECIFIED.);
#29=PLANE('',#734);
#30=PLANE('',#736);
#31=PLANE('',#738);
#32=PLANE('',#739);
#33=PLANE('',#744);
#34=PLANE('',#746);
#35=PLANE('',#747);
#36=PLANE('',#750);
#37=PLANE('',#751);
#38=PLANE('',#752);
#39=PLANE('',#754);
#40=PLANE('',#756);
#41=PLANE('',#758);
#42=PLANE('',#760);
#43=PLANE('',#761);
#44=PLANE('',#765);
#45=PLANE('',#768);
#46=PLANE('',#769);
#47=PLANE('',#771);
#48=PLANE('',#775);
#49=PLANE('',#776);
#50=PLANE('',#777);
#51=PLANE('',#778);
#52=PLANE('',#779);
#53=PLANE('',#780);
#54=PLANE('',#781);
#55=PLANE('',#782);
#56=PLANE('',#783);
#57=PLANE('',#784);
#58=LINE('',#975,#116);
#59=LINE('',#980,#117);
#60=LINE('',#984,#118);
#61=LINE('',#988,#119);
#62=LINE('',#994,#120);
#63=LINE('',#998,#121);
#64=LINE('',#1002,#122);
#65=LINE('',#1006,#123);
#66=LINE('',#1015,#124);
#67=LINE('',#1017,#125);
#68=LINE('',#1019,#126);
#69=LINE('',#1021,#127);
#70=LINE('',#1026,#128);
#71=LINE('',#1028,#129);
#72=LINE('',#1030,#130);
#73=LINE('',#1033,#131);
#74=LINE('',#1035,#132);
#75=LINE('',#1037,#133);
#76=LINE('',#1039,#134);
#77=LINE('',#1041,#135);
#78=LINE('',#1043,#136);
#79=LINE('',#1048,#137);
#80=LINE('',#1053,#138);
#81=LINE('',#1055,#139);
#82=LINE('',#1057,#140);
#83=LINE('',#1062,#141);
#84=LINE('',#1071,#142);
#85=LINE('',#1075,#143);
#86=LINE('',#1077,#144);
#87=LINE('',#1079,#145);
#88=LINE('',#1083,#146);
#89=LINE('',#1085,#147);
#90=LINE('',#1088,#148);
#91=LINE('',#1090,#149);
#92=LINE('',#1094,#150);
#93=LINE('',#1095,#151);
#94=LINE('',#1128,#152);
#95=LINE('',#1137,#153);
#96=LINE('',#1162,#154);
#97=LINE('',#1181,#155);
#98=LINE('',#1188,#156);
#99=LINE('',#1190,#157);
#100=LINE('',#1194,#158);
#101=LINE('',#1195,#159);
#102=LINE('',#1197,#160);
#103=LINE('',#1198,#161);
#104=LINE('',#1217,#162);
#105=LINE('',#1219,#163);
#106=LINE('',#1221,#164);
#107=LINE('',#1223,#165);
#108=LINE('',#1224,#166);
#109=LINE('',#1226,#167);
#110=LINE('',#1230,#168);
#111=LINE('',#1232,#169);
#112=LINE('',#1233,#170);
#113=LINE('',#1235,#171);
#114=LINE('',#1237,#172);
#115=LINE('',#1239,#173);
#116=VECTOR('',#791,1.);
#117=VECTOR('',#794,1.);
#118=VECTOR('',#797,1.);
#119=VECTOR('',#800,1.);
#120=VECTOR('',#805,1.);
#121=VECTOR('',#808,1.);
#122=VECTOR('',#811,1.);
#123=VECTOR('',#814,1.);
#124=VECTOR('',#823,1.);
#125=VECTOR('',#824,1.);
#126=VECTOR('',#825,1.);
#127=VECTOR('',#828,1.);
#128=VECTOR('',#831,1.);
#129=VECTOR('',#832,1.);
#130=VECTOR('',#835,1.);
#131=VECTOR('',#836,1.);
#132=VECTOR('',#837,1.);
#133=VECTOR('',#838,1.);
#134=VECTOR('',#841,1.);
#135=VECTOR('',#842,1.);
#136=VECTOR('',#843,1.);
#137=VECTOR('',#844,1.);
#138=VECTOR('',#845,1.);
#139=VECTOR('',#846,1.);
#140=VECTOR('',#847,1.);
#141=VECTOR('',#848,1.);
#142=VECTOR('',#853,1.);
#143=VECTOR('',#856,1.);
#144=VECTOR('',#857,1.);
#145=VECTOR('',#858,1.);
#146=VECTOR('',#861,1.);
#147=VECTOR('',#864,1.);
#148=VECTOR('',#865,1.);
#149=VECTOR('',#866,1.);
#150=VECTOR('',#871,1.);
#151=VECTOR('',#872,1.);
#152=VECTOR('',#883,1.);
#153=VECTOR('',#884,1.);
#154=VECTOR('',#885,1.);
#155=VECTOR('',#890,1.);
#156=VECTOR('',#901,1.);
#157=VECTOR('',#902,1.);
#158=VECTOR('',#907,1.);
#159=VECTOR('',#908,1.);
#160=VECTOR('',#911,1.);
#161=VECTOR('',#912,1.);
#162=VECTOR('',#941,1.);
#163=VECTOR('',#942,1.);
#164=VECTOR('',#945,1.);
#165=VECTOR('',#946,1.);
#166=VECTOR('',#947,1.);
#167=VECTOR('',#950,1.);
#168=VECTOR('',#957,1.);
#169=VECTOR('',#958,1.);
#170=VECTOR('',#959,1.);
#171=VECTOR('',#960,1.);
#172=VECTOR('',#963,1.);
#173=VECTOR('',#966,1.);
#174=ORIENTED_EDGE('',*,*,#368,.T.);
#175=ORIENTED_EDGE('',*,*,#369,.F.);
#176=ORIENTED_EDGE('',*,*,#370,.T.);
#177=ORIENTED_EDGE('',*,*,#371,.F.);
#178=ORIENTED_EDGE('',*,*,#372,.T.);
#179=ORIENTED_EDGE('',*,*,#373,.T.);
#180=ORIENTED_EDGE('',*,*,#374,.T.);
#181=ORIENTED_EDGE('',*,*,#375,.F.);
#182=ORIENTED_EDGE('',*,*,#376,.T.);
#183=ORIENTED_EDGE('',*,*,#377,.T.);
#184=ORIENTED_EDGE('',*,*,#378,.T.);
#185=ORIENTED_EDGE('',*,*,#379,.T.);
#186=ORIENTED_EDGE('',*,*,#380,.F.);
#187=ORIENTED_EDGE('',*,*,#381,.T.);
#188=ORIENTED_EDGE('',*,*,#382,.T.);
#189=ORIENTED_EDGE('',*,*,#383,.T.);
#190=ORIENTED_EDGE('',*,*,#384,.F.);
#191=ORIENTED_EDGE('',*,*,#385,.T.);
#192=ORIENTED_EDGE('',*,*,#386,.T.);
#193=ORIENTED_EDGE('',*,*,#387,.F.);
#194=ORIENTED_EDGE('',*,*,#388,.F.);
#195=ORIENTED_EDGE('',*,*,#389,.F.);
#196=ORIENTED_EDGE('',*,*,#390,.T.);
#197=ORIENTED_EDGE('',*,*,#391,.F.);
#198=ORIENTED_EDGE('',*,*,#392,.T.);
#199=ORIENTED_EDGE('',*,*,#393,.T.);
#200=ORIENTED_EDGE('',*,*,#394,.F.);
#201=ORIENTED_EDGE('',*,*,#395,.F.);
#202=ORIENTED_EDGE('',*,*,#396,.T.);
#203=ORIENTED_EDGE('',*,*,#397,.T.);
#204=ORIENTED_EDGE('',*,*,#398,.T.);
#205=ORIENTED_EDGE('',*,*,#399,.F.);
#206=ORIENTED_EDGE('',*,*,#400,.T.);
#207=ORIENTED_EDGE('',*,*,#401,.F.);
#208=ORIENTED_EDGE('',*,*,#383,.F.);
#209=ORIENTED_EDGE('',*,*,#402,.F.);
#210=ORIENTED_EDGE('',*,*,#403,.F.);
#211=ORIENTED_EDGE('',*,*,#404,.T.);
#212=ORIENTED_EDGE('',*,*,#379,.F.);
#213=ORIENTED_EDGE('',*,*,#405,.T.);
#214=ORIENTED_EDGE('',*,*,#406,.F.);
#215=ORIENTED_EDGE('',*,*,#407,.F.);
#216=ORIENTED_EDGE('',*,*,#374,.F.);
#217=ORIENTED_EDGE('',*,*,#408,.T.);
#218=ORIENTED_EDGE('',*,*,#409,.T.);
#219=ORIENTED_EDGE('',*,*,#410,.F.);
#220=ORIENTED_EDGE('',*,*,#370,.F.);
#221=ORIENTED_EDGE('',*,*,#411,.F.);
#222=ORIENTED_EDGE('',*,*,#412,.F.);
#223=ORIENTED_EDGE('',*,*,#413,.F.);
#224=ORIENTED_EDGE('',*,*,#398,.F.);
#225=ORIENTED_EDGE('',*,*,#414,.T.);
#226=ORIENTED_EDGE('',*,*,#415,.F.);
#227=ORIENTED_EDGE('',*,*,#416,.T.);
#228=ORIENTED_EDGE('',*,*,#417,.T.);
#229=ORIENTED_EDGE('',*,*,#418,.T.);
#230=ORIENTED_EDGE('',*,*,#419,.T.);
#231=ORIENTED_EDGE('',*,*,#420,.T.);
#232=ORIENTED_EDGE('',*,*,#421,.T.);
#233=ORIENTED_EDGE('',*,*,#422,.F.);
#234=ORIENTED_EDGE('',*,*,#423,.T.);
#235=ORIENTED_EDGE('',*,*,#417,.F.);
#236=ORIENTED_EDGE('',*,*,#424,.T.);
#237=ORIENTED_EDGE('',*,*,#420,.F.);
#238=ORIENTED_EDGE('',*,*,#425,.T.);
#239=ORIENTED_EDGE('',*,*,#426,.T.);
#240=ORIENTED_EDGE('',*,*,#368,.F.);
#241=ORIENTED_EDGE('',*,*,#426,.F.);
#242=ORIENTED_EDGE('',*,*,#389,.T.);
#243=ORIENTED_EDGE('',*,*,#427,.T.);
#244=ORIENTED_EDGE('',*,*,#372,.F.);
#245=ORIENTED_EDGE('',*,*,#428,.F.);
#246=ORIENTED_EDGE('',*,*,#381,.F.);
#247=ORIENTED_EDGE('',*,*,#429,.T.);
#248=ORIENTED_EDGE('',*,*,#394,.T.);
#249=ORIENTED_EDGE('',*,*,#430,.F.);
#250=ORIENTED_EDGE('',*,*,#431,.F.);
#251=ORIENTED_EDGE('',*,*,#391,.T.);
#252=ORIENTED_EDGE('',*,*,#429,.F.);
#253=ORIENTED_EDGE('',*,*,#380,.T.);
#254=ORIENTED_EDGE('',*,*,#404,.F.);
#255=ORIENTED_EDGE('',*,*,#432,.T.);
#256=ORIENTED_EDGE('',*,*,#433,.F.);
#257=ORIENTED_EDGE('',*,*,#434,.T.);
#258=ORIENTED_EDGE('',*,*,#390,.F.);
#259=ORIENTED_EDGE('',*,*,#428,.T.);
#260=ORIENTED_EDGE('',*,*,#371,.T.);
#261=ORIENTED_EDGE('',*,*,#410,.T.);
#262=ORIENTED_EDGE('',*,*,#435,.F.);
#263=ORIENTED_EDGE('',*,*,#436,.T.);
#264=ORIENTED_EDGE('',*,*,#408,.F.);
#265=ORIENTED_EDGE('',*,*,#373,.F.);
#266=ORIENTED_EDGE('',*,*,#427,.F.);
#267=ORIENTED_EDGE('',*,*,#388,.T.);
#268=ORIENTED_EDGE('',*,*,#437,.F.);
#269=ORIENTED_EDGE('',*,*,#433,.T.);
#270=ORIENTED_EDGE('',*,*,#409,.F.);
#271=ORIENTED_EDGE('',*,*,#436,.F.);
#272=ORIENTED_EDGE('',*,*,#393,.F.);
#273=ORIENTED_EDGE('',*,*,#438,.T.);
#274=ORIENTED_EDGE('',*,*,#439,.F.);
#275=ORIENTED_EDGE('',*,*,#402,.T.);
#276=ORIENTED_EDGE('',*,*,#382,.F.);
#277=ORIENTED_EDGE('',*,*,#430,.T.);
#278=ORIENTED_EDGE('',*,*,#439,.T.);
#279=ORIENTED_EDGE('',*,*,#440,.T.);
#280=ORIENTED_EDGE('',*,*,#432,.F.);
#281=ORIENTED_EDGE('',*,*,#403,.T.);
#282=ORIENTED_EDGE('',*,*,#441,.F.);
#283=ORIENTED_EDGE('',*,*,#442,.F.);
#284=ORIENTED_EDGE('',*,*,#443,.T.);
#285=ORIENTED_EDGE('',*,*,#444,.T.);
#286=ORIENTED_EDGE('',*,*,#396,.F.);
#287=ORIENTED_EDGE('',*,*,#445,.F.);
#288=ORIENTED_EDGE('',*,*,#419,.F.);
#289=ORIENTED_EDGE('',*,*,#446,.F.);
#290=ORIENTED_EDGE('',*,*,#443,.F.);
#291=ORIENTED_EDGE('',*,*,#422,.T.);
#292=ORIENTED_EDGE('',*,*,#447,.T.);
#293=ORIENTED_EDGE('',*,*,#415,.T.);
#294=ORIENTED_EDGE('',*,*,#448,.F.);
#295=ORIENTED_EDGE('',*,*,#414,.F.);
#296=ORIENTED_EDGE('',*,*,#397,.F.);
#297=ORIENTED_EDGE('',*,*,#444,.F.);
#298=ORIENTED_EDGE('',*,*,#446,.T.);
#299=ORIENTED_EDGE('',*,*,#418,.F.);
#300=ORIENTED_EDGE('',*,*,#425,.F.);
#301=ORIENTED_EDGE('',*,*,#423,.F.);
#302=ORIENTED_EDGE('',*,*,#448,.T.);
#303=ORIENTED_EDGE('',*,*,#441,.T.);
#304=ORIENTED_EDGE('',*,*,#449,.F.);
#305=ORIENTED_EDGE('',*,*,#411,.T.);
#306=ORIENTED_EDGE('',*,*,#449,.T.);
#307=ORIENTED_EDGE('',*,*,#450,.F.);
#308=ORIENTED_EDGE('',*,*,#412,.T.);
#309=ORIENTED_EDGE('',*,*,#450,.T.);
#310=ORIENTED_EDGE('',*,*,#451,.F.);
#311=ORIENTED_EDGE('',*,*,#424,.F.);
#312=ORIENTED_EDGE('',*,*,#416,.F.);
#313=ORIENTED_EDGE('',*,*,#447,.F.);
#314=ORIENTED_EDGE('',*,*,#421,.F.);
#315=ORIENTED_EDGE('',*,*,#452,.F.);
#316=ORIENTED_EDGE('',*,*,#442,.T.);
#317=ORIENTED_EDGE('',*,*,#395,.T.);
#318=ORIENTED_EDGE('',*,*,#413,.T.);
#319=ORIENTED_EDGE('',*,*,#445,.T.);
#320=ORIENTED_EDGE('',*,*,#452,.T.);
#321=ORIENTED_EDGE('',*,*,#431,.T.);
#322=ORIENTED_EDGE('',*,*,#440,.F.);
#323=ORIENTED_EDGE('',*,*,#438,.F.);
#324=ORIENTED_EDGE('',*,*,#392,.F.);
#325=ORIENTED_EDGE('',*,*,#387,.T.);
#326=ORIENTED_EDGE('',*,*,#434,.F.);
#327=ORIENTED_EDGE('',*,*,#437,.T.);
#328=ORIENTED_EDGE('',*,*,#435,.T.);
#329=ORIENTED_EDGE('',*,*,#451,.T.);
#330=ORIENTED_EDGE('',*,*,#453,.F.);
#331=ORIENTED_EDGE('',*,*,#375,.T.);
#332=ORIENTED_EDGE('',*,*,#407,.T.);
#333=ORIENTED_EDGE('',*,*,#454,.F.);
#334=ORIENTED_EDGE('',*,*,#455,.F.);
#335=ORIENTED_EDGE('',*,*,#456,.F.);
#336=ORIENTED_EDGE('',*,*,#454,.T.);
#337=ORIENTED_EDGE('',*,*,#406,.T.);
#338=ORIENTED_EDGE('',*,*,#457,.F.);
#339=ORIENTED_EDGE('',*,*,#378,.F.);
#340=ORIENTED_EDGE('',*,*,#458,.T.);
#341=ORIENTED_EDGE('',*,*,#457,.T.);
#342=ORIENTED_EDGE('',*,*,#405,.F.);
#343=ORIENTED_EDGE('',*,*,#377,.F.);
#344=ORIENTED_EDGE('',*,*,#455,.T.);
#345=ORIENTED_EDGE('',*,*,#458,.F.);
#346=ORIENTED_EDGE('',*,*,#376,.F.);
#347=ORIENTED_EDGE('',*,*,#453,.T.);
#348=ORIENTED_EDGE('',*,*,#456,.T.);
#349=ORIENTED_EDGE('',*,*,#400,.F.);
#350=ORIENTED_EDGE('',*,*,#459,.F.);
#351=ORIENTED_EDGE('',*,*,#460,.T.);
#352=ORIENTED_EDGE('',*,*,#461,.T.);
#353=ORIENTED_EDGE('',*,*,#462,.T.);
#354=ORIENTED_EDGE('',*,*,#399,.T.);
#355=ORIENTED_EDGE('',*,*,#369,.T.);
#356=ORIENTED_EDGE('',*,*,#463,.F.);
#357=ORIENTED_EDGE('',*,*,#459,.T.);
#358=ORIENTED_EDGE('',*,*,#464,.F.);
#359=ORIENTED_EDGE('',*,*,#384,.T.);
#360=ORIENTED_EDGE('',*,*,#401,.T.);
#361=ORIENTED_EDGE('',*,*,#462,.F.);
#362=ORIENTED_EDGE('',*,*,#385,.F.);
#363=ORIENTED_EDGE('',*,*,#464,.T.);
#364=ORIENTED_EDGE('',*,*,#461,.F.);
#365=ORIENTED_EDGE('',*,*,#386,.F.);
#366=ORIENTED_EDGE('',*,*,#460,.F.);
#367=ORIENTED_EDGE('',*,*,#463,.T.);
#368=EDGE_CURVE('',#465,#465,#532,.F.);
#369=EDGE_CURVE('',#466,#467,#58,.F.);
#370=EDGE_CURVE('',#466,#468,#533,.T.);
#371=EDGE_CURVE('',#469,#468,#59,.T.);
#372=EDGE_CURVE('',#469,#470,#534,.T.);
#373=EDGE_CURVE('',#470,#471,#60,.T.);
#374=EDGE_CURVE('',#471,#472,#535,.T.);
#375=EDGE_CURVE('',#473,#472,#61,.T.);
#376=EDGE_CURVE('',#473,#474,#536,.T.);
#377=EDGE_CURVE('',#474,#475,#537,.T.);
#378=EDGE_CURVE('',#475,#476,#62,.T.);
#379=EDGE_CURVE('',#476,#477,#538,.T.);
#380=EDGE_CURVE('',#478,#477,#63,.T.);
#381=EDGE_CURVE('',#478,#479,#539,.T.);
#382=EDGE_CURVE('',#479,#480,#64,.T.);
#383=EDGE_CURVE('',#480,#481,#540,.T.);
#384=EDGE_CURVE('',#482,#481,#65,.T.);
#385=EDGE_CURVE('',#482,#483,#541,.T.);
#386=EDGE_CURVE('',#483,#467,#542,.T.);
#387=EDGE_CURVE('',#484,#485,#543,.T.);
#388=EDGE_CURVE('',#486,#484,#66,.T.);
#389=EDGE_CURVE('',#487,#486,#67,.T.);
#390=EDGE_CURVE('',#487,#485,#68,.T.);
#391=EDGE_CURVE('',#488,#489,#69,.T.);
#392=EDGE_CURVE('',#488,#490,#544,.T.);
#393=EDGE_CURVE('',#490,#491,#70,.T.);
#394=EDGE_CURVE('',#489,#491,#71,.T.);
#395=EDGE_CURVE('',#492,#493,#72,.T.);
#396=EDGE_CURVE('',#492,#494,#73,.T.);
#397=EDGE_CURVE('',#494,#495,#74,.T.);
#398=EDGE_CURVE('',#495,#493,#75,.T.);
#399=EDGE_CURVE('',#496,#466,#76,.T.);
#400=EDGE_CURVE('',#496,#497,#77,.T.);
#401=EDGE_CURVE('',#481,#497,#78,.T.);
#402=EDGE_CURVE('',#498,#480,#17,.F.);
#403=EDGE_CURVE('',#499,#498,#79,.T.);
#404=EDGE_CURVE('',#499,#477,#18,.F.);
#405=EDGE_CURVE('',#476,#500,#80,.T.);
#406=EDGE_CURVE('',#501,#500,#81,.T.);
#407=EDGE_CURVE('',#472,#501,#82,.T.);
#408=EDGE_CURVE('',#471,#502,#19,.T.);
#409=EDGE_CURVE('',#502,#503,#83,.T.);
#410=EDGE_CURVE('',#468,#503,#20,.T.);
#411=EDGE_CURVE('',#504,#504,#545,.T.);
#412=EDGE_CURVE('',#505,#505,#546,.T.);
#413=EDGE_CURVE('',#493,#506,#84,.T.);
#414=EDGE_CURVE('',#495,#507,#547,.T.);
#415=EDGE_CURVE('',#508,#507,#85,.T.);
#416=EDGE_CURVE('',#508,#509,#86,.T.);
#417=EDGE_CURVE('',#509,#510,#87,.T.);
#418=EDGE_CURVE('',#510,#511,#548,.T.);
#419=EDGE_CURVE('',#511,#506,#88,.T.);
#420=EDGE_CURVE('',#512,#513,#89,.T.);
#421=EDGE_CURVE('',#513,#514,#90,.T.);
#422=EDGE_CURVE('',#515,#514,#91,.T.);
#423=EDGE_CURVE('',#515,#512,#549,.T.);
#424=EDGE_CURVE('',#509,#513,#92,.T.);
#425=EDGE_CURVE('',#512,#510,#93,.T.);
#426=EDGE_CURVE('',#516,#516,#550,.T.);
#427=EDGE_CURVE('',#486,#470,#21,.F.);
#428=EDGE_CURVE('',#487,#469,#22,.F.);
#429=EDGE_CURVE('',#478,#489,#23,.T.);
#430=EDGE_CURVE('',#479,#491,#24,.T.);
#431=EDGE_CURVE('',#488,#517,#25,.T.);
#432=EDGE_CURVE('',#499,#517,#94,.T.);
#433=EDGE_CURVE('',#518,#503,#95,.T.);
#434=EDGE_CURVE('',#518,#485,#26,.T.);
#435=EDGE_CURVE('',#519,#484,#27,.T.);
#436=EDGE_CURVE('',#519,#502,#96,.T.);
#437=EDGE_CURVE('',#518,#519,#551,.T.);
#438=EDGE_CURVE('',#490,#520,#28,.T.);
#439=EDGE_CURVE('',#498,#520,#97,.T.);
#440=EDGE_CURVE('',#520,#517,#552,.T.);
#441=EDGE_CURVE('',#521,#521,#553,.T.);
#442=EDGE_CURVE('',#522,#492,#98,.T.);
#443=EDGE_CURVE('',#522,#523,#99,.T.);
#444=EDGE_CURVE('',#523,#494,#554,.T.);
#445=EDGE_CURVE('',#506,#522,#100,.T.);
#446=EDGE_CURVE('',#523,#511,#101,.T.);
#447=EDGE_CURVE('',#514,#508,#102,.T.);
#448=EDGE_CURVE('',#515,#507,#103,.T.);
#449=EDGE_CURVE('',#524,#524,#555,.T.);
#450=EDGE_CURVE('',#525,#525,#556,.T.);
#451=EDGE_CURVE('',#526,#526,#557,.T.);
#452=EDGE_CURVE('',#527,#527,#558,.T.);
#453=EDGE_CURVE('',#473,#528,#104,.T.);
#454=EDGE_CURVE('',#528,#501,#105,.T.);
#455=EDGE_CURVE('',#474,#529,#106,.T.);
#456=EDGE_CURVE('',#528,#474,#107,.T.);
#457=EDGE_CURVE('',#529,#500,#108,.T.);
#458=EDGE_CURVE('',#475,#529,#109,.T.);
#459=EDGE_CURVE('',#530,#496,#110,.T.);
#460=EDGE_CURVE('',#530,#483,#111,.T.);
#461=EDGE_CURVE('',#483,#531,#112,.T.);
#462=EDGE_CURVE('',#531,#497,#113,.T.);
#463=EDGE_CURVE('',#530,#467,#114,.T.);
#464=EDGE_CURVE('',#482,#531,#115,.T.);
#465=VERTEX_POINT('',#974);
#466=VERTEX_POINT('',#976);
#467=VERTEX_POINT('',#977);
#468=VERTEX_POINT('',#979);
#469=VERTEX_POINT('',#981);
#470=VERTEX_POINT('',#983);
#471=VERTEX_POINT('',#985);
#472=VERTEX_POINT('',#987);
#473=VERTEX_POINT('',#989);
#474=VERTEX_POINT('',#991);
#475=VERTEX_POINT('',#993);
#476=VERTEX_POINT('',#995);
#477=VERTEX_POINT('',#997);
#478=VERTEX_POINT('',#999);
#479=VERTEX_POINT('',#1001);
#480=VERTEX_POINT('',#1003);
#481=VERTEX_POINT('',#1005);
#482=VERTEX_POINT('',#1007);
#483=VERTEX_POINT('',#1009);
#484=VERTEX_POINT('',#1013);
#485=VERTEX_POINT('',#1014);
#486=VERTEX_POINT('',#1016);
#487=VERTEX_POINT('',#1018);
#488=VERTEX_POINT('',#1022);
#489=VERTEX_POINT('',#1023);
#490=VERTEX_POINT('',#1025);
#491=VERTEX_POINT('',#1027);
#492=VERTEX_POINT('',#1031);
#493=VERTEX_POINT('',#1032);
#494=VERTEX_POINT('',#1034);
#495=VERTEX_POINT('',#1036);
#496=VERTEX_POINT('',#1040);
#497=VERTEX_POINT('',#1042);
#498=VERTEX_POINT('',#1047);
#499=VERTEX_POINT('',#1049);
#500=VERTEX_POINT('',#1054);
#501=VERTEX_POINT('',#1056);
#502=VERTEX_POINT('',#1061);
#503=VERTEX_POINT('',#1063);
#504=VERTEX_POINT('',#1068);
#505=VERTEX_POINT('',#1070);
#506=VERTEX_POINT('',#1072);
#507=VERTEX_POINT('',#1074);
#508=VERTEX_POINT('',#1076);
#509=VERTEX_POINT('',#1078);
#510=VERTEX_POINT('',#1080);
#511=VERTEX_POINT('',#1082);
#512=VERTEX_POINT('',#1086);
#513=VERTEX_POINT('',#1087);
#514=VERTEX_POINT('',#1089);
#515=VERTEX_POINT('',#1091);
#516=VERTEX_POINT('',#1098);
#517=VERTEX_POINT('',#1127);
#518=VERTEX_POINT('',#1138);
#519=VERTEX_POINT('',#1161);
#520=VERTEX_POINT('',#1180);
#521=VERTEX_POINT('',#1186);
#522=VERTEX_POINT('',#1189);
#523=VERTEX_POINT('',#1191);
#524=VERTEX_POINT('',#1202);
#525=VERTEX_POINT('',#1206);
#526=VERTEX_POINT('',#1210);
#527=VERTEX_POINT('',#1213);
#528=VERTEX_POINT('',#1218);
#529=VERTEX_POINT('',#1222);
#530=VERTEX_POINT('',#1231);
#531=VERTEX_POINT('',#1234);
#532=CIRCLE('',#723,0.0311257116796208);
#533=CIRCLE('',#724,0.0311257116796208);
#534=CIRCLE('',#725,0.0311257116796208);
#535=CIRCLE('',#726,0.0311257116796208);
#536=CIRCLE('',#727,0.0311257116796208);
#537=CIRCLE('',#728,0.0311257116796208);
#538=CIRCLE('',#729,0.0311257116796208);
#539=CIRCLE('',#730,0.0311257116796208);
#540=CIRCLE('',#731,0.0311257116796208);
#541=CIRCLE('',#732,0.0311257116796208);
#542=CIRCLE('',#733,0.0311257116796208);
#543=CIRCLE('',#735,0.0045);
#544=CIRCLE('',#737,0.0045);
#545=CIRCLE('',#740,0.0024);
#546=CIRCLE('',#741,0.0024);
#547=CIRCLE('',#742,0.0261257116796207);
#548=CIRCLE('',#743,0.0261257116796207);
#549=CIRCLE('',#745,0.0261257116796207);
#550=CIRCLE('',#748,0.0161257116796208);
#551=CIRCLE('',#753,0.0045);
#552=CIRCLE('',#755,0.0045);
#553=CIRCLE('',#757,0.0261257116796207);
#554=CIRCLE('',#759,0.0261257116796207);
#555=CIRCLE('',#764,0.0024);
#556=CIRCLE('',#767,0.0024);
#557=CIRCLE('',#770,0.0045);
#558=CIRCLE('',#772,0.0045);
#559=EDGE_LOOP('',(#174));
#560=EDGE_LOOP('',(#175,#176,#177,#178,#179,#180,#181,#182,#183,#184,#185,
#186,#187,#188,#189,#190,#191,#192));
#561=EDGE_LOOP('',(#193,#194,#195,#196));
#562=EDGE_LOOP('',(#197,#198,#199,#200));
#563=EDGE_LOOP('',(#201,#202,#203,#204));
#564=EDGE_LOOP('',(#205,#206,#207,#208,#209,#210,#211,#212,#213,#214,#215,
#216,#217,#218,#219,#220));
#565=EDGE_LOOP('',(#221));
#566=EDGE_LOOP('',(#222));
#567=EDGE_LOOP('',(#223,#224,#225,#226,#227,#228,#229,#230));
#568=EDGE_LOOP('',(#231,#232,#233,#234));
#569=EDGE_LOOP('',(#235,#236,#237,#238));
#570=EDGE_LOOP('',(#239));
#571=EDGE_LOOP('',(#240));
#572=EDGE_LOOP('',(#241));
#573=EDGE_LOOP('',(#242,#243,#244,#245));
#574=EDGE_LOOP('',(#246,#247,#248,#249));
#575=EDGE_LOOP('',(#250,#251,#252,#253,#254,#255));
#576=EDGE_LOOP('',(#256,#257,#258,#259,#260,#261));
#577=EDGE_LOOP('',(#262,#263,#264,#265,#266,#267));
#578=EDGE_LOOP('',(#268,#269,#270,#271));
#579=EDGE_LOOP('',(#272,#273,#274,#275,#276,#277));
#580=EDGE_LOOP('',(#278,#279,#280,#281));
#581=EDGE_LOOP('',(#282));
#582=EDGE_LOOP('',(#283,#284,#285,#286));
#583=EDGE_LOOP('',(#287,#288,#289,#290));
#584=EDGE_LOOP('',(#291,#292,#293,#294));
#585=EDGE_LOOP('',(#295,#296,#297,#298,#299,#300,#301,#302));
#586=EDGE_LOOP('',(#303));
#587=EDGE_LOOP('',(#304));
#588=EDGE_LOOP('',(#305));
#589=EDGE_LOOP('',(#306));
#590=EDGE_LOOP('',(#307));
#591=EDGE_LOOP('',(#308));
#592=EDGE_LOOP('',(#309));
#593=EDGE_LOOP('',(#310));
#594=EDGE_LOOP('',(#311,#312,#313,#314));
#595=EDGE_LOOP('',(#315));
#596=EDGE_LOOP('',(#316,#317,#318,#319));
#597=EDGE_LOOP('',(#320));
#598=EDGE_LOOP('',(#321,#322,#323,#324));
#599=EDGE_LOOP('',(#325,#326,#327,#328));
#600=EDGE_LOOP('',(#329));
#601=EDGE_LOOP('',(#330,#331,#332,#333));
#602=EDGE_LOOP('',(#334,#335,#336,#337,#338));
#603=EDGE_LOOP('',(#339,#340,#341,#342));
#604=EDGE_LOOP('',(#343,#344,#345));
#605=EDGE_LOOP('',(#346,#347,#348));
#606=EDGE_LOOP('',(#349,#350,#351,#352,#353));
#607=EDGE_LOOP('',(#354,#355,#356,#357));
#608=EDGE_LOOP('',(#358,#359,#360,#361));
#609=EDGE_LOOP('',(#362,#363,#364));
#610=EDGE_LOOP('',(#365,#366,#367));
#611=FACE_BOUND('',#559,.T.);
#612=FACE_BOUND('',#560,.T.);
#613=FACE_BOUND('',#561,.T.);
#614=FACE_BOUND('',#562,.T.);
#615=FACE_BOUND('',#563,.T.);
#616=FACE_BOUND('',#564,.T.);
#617=FACE_BOUND('',#565,.T.);
#618=FACE_BOUND('',#566,.T.);
#619=FACE_BOUND('',#567,.T.);
#620=FACE_BOUND('',#568,.T.);
#621=FACE_BOUND('',#569,.T.);
#622=FACE_BOUND('',#570,.T.);
#623=FACE_BOUND('',#571,.T.);
#624=FACE_BOUND('',#572,.T.);
#625=FACE_BOUND('',#573,.T.);
#626=FACE_BOUND('',#574,.T.);
#627=FACE_BOUND('',#575,.T.);
#628=FACE_BOUND('',#576,.T.);
#629=FACE_BOUND('',#577,.T.);
#630=FACE_BOUND('',#578,.T.);
#631=FACE_BOUND('',#579,.T.);
#632=FACE_BOUND('',#580,.T.);
#633=FACE_BOUND('',#581,.T.);
#634=FACE_BOUND('',#582,.T.);
#635=FACE_BOUND('',#583,.T.);
#636=FACE_BOUND('',#584,.T.);
#637=FACE_BOUND('',#585,.T.);
#638=FACE_BOUND('',#586,.T.);
#639=FACE_BOUND('',#587,.T.);
#640=FACE_BOUND('',#588,.T.);
#641=FACE_BOUND('',#589,.T.);
#642=FACE_BOUND('',#590,.T.);
#643=FACE_BOUND('',#591,.T.);
#644=FACE_BOUND('',#592,.T.);
#645=FACE_BOUND('',#593,.T.);
#646=FACE_BOUND('',#594,.T.);
#647=FACE_BOUND('',#595,.T.);
#648=FACE_BOUND('',#596,.T.);
#649=FACE_BOUND('',#597,.T.);
#650=FACE_BOUND('',#598,.T.);
#651=FACE_BOUND('',#599,.T.);
#652=FACE_BOUND('',#600,.T.);
#653=FACE_BOUND('',#601,.T.);
#654=FACE_BOUND('',#602,.T.);
#655=FACE_BOUND('',#603,.T.);
#656=FACE_BOUND('',#604,.T.);
#657=FACE_BOUND('',#605,.T.);
#658=FACE_BOUND('',#606,.T.);
#659=FACE_BOUND('',#607,.T.);
#660=FACE_BOUND('',#608,.T.);
#661=FACE_BOUND('',#609,.T.);
#662=FACE_BOUND('',#610,.T.);
#663=CYLINDRICAL_SURFACE('',#722,0.0311257116796208);
#664=CYLINDRICAL_SURFACE('',#762,0.0261257116796207);
#665=CYLINDRICAL_SURFACE('',#763,0.0024);
#666=CYLINDRICAL_SURFACE('',#766,0.0024);
#667=CYLINDRICAL_SURFACE('',#773,0.0045);
#668=CYLINDRICAL_SURFACE('',#774,0.0045);
#669=ADVANCED_FACE('',(#611,#612),#663,.T.);
#670=ADVANCED_FACE('',(#613),#29,.T.);
#671=ADVANCED_FACE('',(#614),#30,.F.);
#672=ADVANCED_FACE('',(#615),#31,.F.);
#673=ADVANCED_FACE('',(#616,#617,#618,#619),#32,.F.);
#674=ADVANCED_FACE('',(#620),#33,.T.);
#675=ADVANCED_FACE('',(#621),#34,.T.);
#676=ADVANCED_FACE('',(#622),#35,.T.);
#677=ADVANCED_FACE('',(#623,#624),#16,.T.);
#678=ADVANCED_FACE('',(#625),#36,.T.);
#679=ADVANCED_FACE('',(#626),#37,.T.);
#680=ADVANCED_FACE('',(#627),#12,.T.);
#681=ADVANCED_FACE('',(#628),#13,.F.);
#682=ADVANCED_FACE('',(#629),#14,.T.);
#683=ADVANCED_FACE('',(#630),#38,.T.);
#684=ADVANCED_FACE('',(#631),#15,.F.);
#685=ADVANCED_FACE('',(#632),#39,.F.);
#686=ADVANCED_FACE('',(#633),#40,.F.);
#687=ADVANCED_FACE('',(#634),#41,.T.);
#688=ADVANCED_FACE('',(#635),#42,.T.);
#689=ADVANCED_FACE('',(#636),#43,.F.);
#690=ADVANCED_FACE('',(#637,#638),#664,.F.);
#691=ADVANCED_FACE('',(#639,#640),#665,.T.);
#692=ADVANCED_FACE('',(#641),#44,.T.);
#693=ADVANCED_FACE('',(#642,#643),#666,.T.);
#694=ADVANCED_FACE('',(#644),#45,.T.);
#695=ADVANCED_FACE('',(#645,#646),#46,.T.);
#696=ADVANCED_FACE('',(#647,#648),#47,.F.);
#697=ADVANCED_FACE('',(#649,#650),#667,.F.);
#698=ADVANCED_FACE('',(#651,#652),#668,.F.);
#699=ADVANCED_FACE('',(#653),#48,.F.);
#700=ADVANCED_FACE('',(#654),#49,.F.);
#701=ADVANCED_FACE('',(#655),#50,.T.);
#702=ADVANCED_FACE('',(#656),#51,.T.);
#703=ADVANCED_FACE('',(#657),#52,.T.);
#704=ADVANCED_FACE('',(#658),#53,.T.);
#705=ADVANCED_FACE('',(#659),#54,.F.);
#706=ADVANCED_FACE('',(#660),#55,.F.);
#707=ADVANCED_FACE('',(#661),#56,.T.);
#708=ADVANCED_FACE('',(#662),#57,.T.);
#709=CLOSED_SHELL('',(#669,#670,#671,#672,#673,#674,#675,#676,#677,#678,
#679,#680,#681,#682,#683,#684,#685,#686,#687,#688,#689,#690,#691,#692,#693,
#694,#695,#696,#697,#698,#699,#700,#701,#702,#703,#704,#705,#706,#707,#708));
#710=STYLED_ITEM('',(#711),#718);
#711=PRESENTATION_STYLE_ASSIGNMENT((#712));
#712=SURFACE_STYLE_USAGE(.BOTH.,#713);
#713=SURFACE_SIDE_STYLE('',(#714));
#714=SURFACE_STYLE_FILL_AREA(#715);
#715=FILL_AREA_STYLE('',(#716));
#716=FILL_AREA_STYLE_COLOUR('',#717);
#717=COLOUR_RGB('',0.647058823529412,0.647058823529412,0.647058823529412);
#718=MANIFOLD_SOLID_BREP('Part 4',#709);
#719=SHAPE_DEFINITION_REPRESENTATION(#1248,#720);
#720=SHAPE_REPRESENTATION('Part 4',(#721),#1243);
#721=AXIS2_PLACEMENT_3D('',#971,#785,#786);
#722=AXIS2_PLACEMENT_3D('',#972,#787,#788);
#723=AXIS2_PLACEMENT_3D('',#973,#789,#790);
#724=AXIS2_PLACEMENT_3D('',#978,#792,#793);
#725=AXIS2_PLACEMENT_3D('',#982,#795,#796);
#726=AXIS2_PLACEMENT_3D('',#986,#798,#799);
#727=AXIS2_PLACEMENT_3D('',#990,#801,#802);
#728=AXIS2_PLACEMENT_3D('',#992,#803,#804);
#729=AXIS2_PLACEMENT_3D('',#996,#806,#807);
#730=AXIS2_PLACEMENT_3D('',#1000,#809,#810);
#731=AXIS2_PLACEMENT_3D('',#1004,#812,#813);
#732=AXIS2_PLACEMENT_3D('',#1008,#815,#816);
#733=AXIS2_PLACEMENT_3D('',#1010,#817,#818);
#734=AXIS2_PLACEMENT_3D('',#1011,#819,#820);
#735=AXIS2_PLACEMENT_3D('',#1012,#821,#822);
#736=AXIS2_PLACEMENT_3D('',#1020,#826,#827);
#737=AXIS2_PLACEMENT_3D('',#1024,#829,#830);
#738=AXIS2_PLACEMENT_3D('',#1029,#833,#834);
#739=AXIS2_PLACEMENT_3D('',#1038,#839,#840);
#740=AXIS2_PLACEMENT_3D('',#1067,#849,#850);
#741=AXIS2_PLACEMENT_3D('',#1069,#851,#852);
#742=AXIS2_PLACEMENT_3D('',#1073,#854,#855);
#743=AXIS2_PLACEMENT_3D('',#1081,#859,#860);
#744=AXIS2_PLACEMENT_3D('',#1084,#862,#863);
#745=AXIS2_PLACEMENT_3D('',#1092,#867,#868);
#746=AXIS2_PLACEMENT_3D('',#1093,#869,#870);
#747=AXIS2_PLACEMENT_3D('',#1096,#873,#874);
#748=AXIS2_PLACEMENT_3D('',#1097,#875,#876);
#749=AXIS2_PLACEMENT_3D('',#1099,#877,#878);
#750=AXIS2_PLACEMENT_3D('',#1100,#879,#880);
#751=AXIS2_PLACEMENT_3D('',#1107,#881,#882);
#752=AXIS2_PLACEMENT_3D('',#1163,#886,#887);
#753=AXIS2_PLACEMENT_3D('',#1164,#888,#889);
#754=AXIS2_PLACEMENT_3D('',#1182,#891,#892);
#755=AXIS2_PLACEMENT_3D('',#1183,#893,#894);
#756=AXIS2_PLACEMENT_3D('',#1184,#895,#896);
#757=AXIS2_PLACEMENT_3D('',#1185,#897,#898);
#758=AXIS2_PLACEMENT_3D('',#1187,#899,#900);
#759=AXIS2_PLACEMENT_3D('',#1192,#903,#904);
#760=AXIS2_PLACEMENT_3D('',#1193,#905,#906);
#761=AXIS2_PLACEMENT_3D('',#1196,#909,#910);
#762=AXIS2_PLACEMENT_3D('',#1199,#913,#914);
#763=AXIS2_PLACEMENT_3D('',#1200,#915,#916);
#764=AXIS2_PLACEMENT_3D('',#1201,#917,#918);
#765=AXIS2_PLACEMENT_3D('',#1203,#919,#920);
#766=AXIS2_PLACEMENT_3D('',#1204,#921,#922);
#767=AXIS2_PLACEMENT_3D('',#1205,#923,#924);
#768=AXIS2_PLACEMENT_3D('',#1207,#925,#926);
#769=AXIS2_PLACEMENT_3D('',#1208,#927,#928);
#770=AXIS2_PLACEMENT_3D('',#1209,#929,#930);
#771=AXIS2_PLACEMENT_3D('',#1211,#931,#932);
#772=AXIS2_PLACEMENT_3D('',#1212,#933,#934);
#773=AXIS2_PLACEMENT_3D('',#1214,#935,#936);
#774=AXIS2_PLACEMENT_3D('',#1215,#937,#938);
#775=AXIS2_PLACEMENT_3D('',#1216,#939,#940);
#776=AXIS2_PLACEMENT_3D('',#1220,#943,#944);
#777=AXIS2_PLACEMENT_3D('',#1225,#948,#949);
#778=AXIS2_PLACEMENT_3D('',#1227,#951,#952);
#779=AXIS2_PLACEMENT_3D('',#1228,#953,#954);
#780=AXIS2_PLACEMENT_3D('',#1229,#955,#956);
#781=AXIS2_PLACEMENT_3D('',#1236,#961,#962);
#782=AXIS2_PLACEMENT_3D('',#1238,#964,#965);
#783=AXIS2_PLACEMENT_3D('',#1240,#967,#968);
#784=AXIS2_PLACEMENT_3D('',#1241,#969,#970);
#785=DIRECTION('',(0.,0.,1.));
#786=DIRECTION('',(1.,0.,0.));
#787=DIRECTION('',(-1.,0.,0.));
#788=DIRECTION('',(0.,0.,1.));
#789=DIRECTION('',(1.,0.,0.));
#790=DIRECTION('',(0.,0.,-1.));
#791=DIRECTION('',(-1.,0.,0.));
#792=DIRECTION('',(1.,0.,0.));
#793=DIRECTION('',(0.,0.,-1.));
#794=DIRECTION('',(-1.,0.,0.));
#795=DIRECTION('',(1.,0.,0.));
#796=DIRECTION('',(0.,0.,-1.));
#797=DIRECTION('',(-1.,0.,0.));
#798=DIRECTION('',(1.,0.,0.));
#799=DIRECTION('',(0.,0.,-1.));
#800=DIRECTION('',(-1.,0.,0.));
#801=DIRECTION('',(1.,0.,0.));
#802=DIRECTION('',(0.,0.,-1.));
#803=DIRECTION('',(1.,0.,0.));
#804=DIRECTION('',(0.,0.,-1.));
#805=DIRECTION('',(-1.,0.,0.));
#806=DIRECTION('',(1.,0.,0.));
#807=DIRECTION('',(0.,0.,-1.));
#808=DIRECTION('',(-1.,0.,0.));
#809=DIRECTION('',(1.,0.,0.));
#810=DIRECTION('',(0.,0.,-1.));
#811=DIRECTION('',(-1.,0.,0.));
#812=DIRECTION('',(1.,0.,0.));
#813=DIRECTION('',(0.,0.,-1.));
#814=DIRECTION('',(-1.,0.,0.));
#815=DIRECTION('',(1.,0.,0.));
#816=DIRECTION('',(0.,0.,-1.));
#817=DIRECTION('',(1.,0.,0.));
#818=DIRECTION('',(0.,0.,-1.));
#819=DIRECTION('',(0.,-1.,0.));
#820=DIRECTION('',(1.,0.,0.));
#821=DIRECTION('',(0.,-1.,0.));
#822=DIRECTION('',(0.,0.,-1.));
#823=DIRECTION('',(-1.,0.,0.));
#824=DIRECTION('',(0.,0.,-1.));
#825=DIRECTION('',(-1.,0.,0.));
#826=DIRECTION('',(0.,-1.,0.));
#827=DIRECTION('',(1.,0.,0.));
#828=DIRECTION('',(1.,0.,0.));
#829=DIRECTION('',(0.,-1.,0.));
#830=DIRECTION('',(0.,0.,-1.));
#831=DIRECTION('',(1.,0.,0.));
#832=DIRECTION('',(0.,0.,1.));
#833=DIRECTION('',(1.3010426069826E-16,0.,-1.));
#834=DIRECTION('',(-1.,0.,-1.3010426069826E-16));
#835=DIRECTION('',(-1.,0.,0.));
#836=DIRECTION('',(0.,1.,0.));
#837=DIRECTION('',(-1.,0.,0.));
#838=DIRECTION('',(0.,-1.,0.));
#839=DIRECTION('',(1.,0.,0.));
#840=DIRECTION('',(0.,1.,0.));
#841=DIRECTION('',(0.,0.,-1.));
#842=DIRECTION('',(0.,1.,0.));
#843=DIRECTION('',(0.,0.,1.));
#844=DIRECTION('',(0.,0.,1.));
#845=DIRECTION('',(0.,0.,-1.));
#846=DIRECTION('',(0.,1.,0.));
#847=DIRECTION('',(0.,0.,-1.));
#848=DIRECTION('',(0.,0.,1.));
#849=DIRECTION('',(-1.,0.,0.));
#850=DIRECTION('',(0.,0.,1.));
#851=DIRECTION('',(-1.,0.,0.));
#852=DIRECTION('',(0.,0.,1.));
#853=DIRECTION('',(0.,0.,-1.));
#854=DIRECTION('',(1.,0.,0.));
#855=DIRECTION('',(0.,0.,-1.));
#856=DIRECTION('',(0.,-1.,0.));
#857=DIRECTION('',(0.,0.,-1.));
#858=DIRECTION('',(0.,-1.,0.));
#859=DIRECTION('',(1.,0.,0.));
#860=DIRECTION('',(0.,0.,-1.));
#861=DIRECTION('',(0.,-1.,0.));
#862=DIRECTION('',(1.,0.,0.));
#863=DIRECTION('',(0.,0.,-1.));
#864=DIRECTION('',(0.,1.,0.));
#865=DIRECTION('',(0.,0.,1.));
#866=DIRECTION('',(0.,1.,0.));
#867=DIRECTION('',(1.,0.,0.));
#868=DIRECTION('',(0.,0.,-1.));
#869=DIRECTION('',(0.,0.,-1.));
#870=DIRECTION('',(-1.,0.,0.));
#871=DIRECTION('',(1.,0.,0.));
#872=DIRECTION('',(-1.,0.,0.));
#873=DIRECTION('',(1.,0.,0.));
#874=DIRECTION('',(0.,1.,0.));
#875=DIRECTION('',(1.,0.,0.));
#876=DIRECTION('',(0.,0.,-1.));
#877=DIRECTION('',(1.,0.,0.));
#878=DIRECTION('',(0.,0.,-1.));
#879=DIRECTION('',(1.,0.,0.));
#880=DIRECTION('',(0.,0.,-1.));
#881=DIRECTION('',(1.,0.,0.));
#882=DIRECTION('',(0.,0.,-1.));
#883=DIRECTION('',(1.,0.,0.));
#884=DIRECTION('',(-1.,0.,0.));
#885=DIRECTION('',(-1.,0.,0.));
#886=DIRECTION('',(0.,-1.,0.));
#887=DIRECTION('',(1.,0.,0.));
#888=DIRECTION('',(0.,-1.,0.));
#889=DIRECTION('',(0.,0.,-1.));
#890=DIRECTION('',(1.,0.,0.));
#891=DIRECTION('',(0.,-1.,0.));
#892=DIRECTION('',(1.,0.,0.));
#893=DIRECTION('',(0.,-1.,0.));
#894=DIRECTION('',(0.,0.,-1.));
#895=DIRECTION('',(1.,0.,0.));
#896=DIRECTION('',(0.,1.,0.));
#897=DIRECTION('',(1.,0.,0.));
#898=DIRECTION('',(0.,0.,-1.));
#899=DIRECTION('',(1.,0.,0.));
#900=DIRECTION('',(0.,0.,-1.));
#901=DIRECTION('',(0.,0.,1.));
#902=DIRECTION('',(0.,1.,0.));
#903=DIRECTION('',(1.,0.,0.));
#904=DIRECTION('',(0.,0.,-1.));
#905=DIRECTION('',(0.,0.,-1.));
#906=DIRECTION('',(-1.,0.,0.));
#907=DIRECTION('',(1.,0.,0.));
#908=DIRECTION('',(-1.,0.,0.));
#909=DIRECTION('',(1.3010426069826E-16,0.,-1.));
#910=DIRECTION('',(-1.,0.,-1.3010426069826E-16));
#911=DIRECTION('',(-1.,0.,0.));
#912=DIRECTION('',(-1.,0.,0.));
#913=DIRECTION('',(-1.,0.,0.));
#914=DIRECTION('',(0.,0.,1.));
#915=DIRECTION('',(1.,0.,0.));
#916=DIRECTION('',(0.,0.,-1.));
#917=DIRECTION('',(-1.,0.,0.));
#918=DIRECTION('',(0.,0.,1.));
#919=DIRECTION('',(-1.,0.,0.));
#920=DIRECTION('',(0.,-1.,0.));
#921=DIRECTION('',(1.,0.,0.));
#922=DIRECTION('',(0.,0.,-1.));
#923=DIRECTION('',(-1.,0.,0.));
#924=DIRECTION('',(0.,0.,1.));
#925=DIRECTION('',(-1.,0.,0.));
#926=DIRECTION('',(0.,-1.,0.));
#927=DIRECTION('',(0.,1.,0.));
#928=DIRECTION('',(0.,0.,1.));
#929=DIRECTION('',(0.,1.,0.));
#930=DIRECTION('',(0.,0.,1.));
#931=DIRECTION('',(0.,1.,0.));
#932=DIRECTION('',(0.,0.,1.));
#933=DIRECTION('',(0.,-1.,0.));
#934=DIRECTION('',(0.,0.,-1.));
#935=DIRECTION('',(0.,-1.,0.));
#936=DIRECTION('',(0.,0.,-1.));
#937=DIRECTION('',(0.,1.,0.));
#938=DIRECTION('',(0.,0.,1.));
#939=DIRECTION('',(0.,1.,0.));
#940=DIRECTION('',(0.,0.,1.));
#941=DIRECTION('',(0.,0.,-1.));
#942=DIRECTION('',(-1.,0.,0.));
#943=DIRECTION('',(0.,0.,1.));
#944=DIRECTION('',(1.,0.,0.));
#945=DIRECTION('',(0.,1.,0.));
#946=DIRECTION('',(0.,1.,0.));
#947=DIRECTION('',(-1.,0.,0.));
#948=DIRECTION('',(0.,1.,0.));
#949=DIRECTION('',(0.,0.,1.));
#950=DIRECTION('',(0.,0.,-1.));
#951=DIRECTION('',(1.,0.,0.));
#952=DIRECTION('',(0.,1.,0.));
#953=DIRECTION('',(1.,0.,0.));
#954=DIRECTION('',(0.,1.,0.));
#955=DIRECTION('',(0.,0.,1.));
#956=DIRECTION('',(1.,0.,0.));
#957=DIRECTION('',(-1.,0.,0.));
#958=DIRECTION('',(0.,1.,0.));
#959=DIRECTION('',(0.,1.,0.));
#960=DIRECTION('',(-1.,0.,0.));
#961=DIRECTION('',(0.,1.,0.));
#962=DIRECTION('',(0.,0.,1.));
#963=DIRECTION('',(0.,0.,-1.));
#964=DIRECTION('',(0.,-1.,0.));
#965=DIRECTION('',(0.,0.,-1.));
#966=DIRECTION('',(0.,0.,1.));
#967=DIRECTION('',(1.,0.,0.));
#968=DIRECTION('',(0.,1.,0.));
#969=DIRECTION('',(1.,0.,0.));
#970=DIRECTION('',(0.,1.,0.));
#971=CARTESIAN_POINT('',(0.,0.,0.));
#972=CARTESIAN_POINT('',(0.377,0.,2.02836483889627E-18));
#973=CARTESIAN_POINT('',(0.367,0.,2.02836483889627E-18));
#974=CARTESIAN_POINT('',(0.367,0.,-0.0311257116796208));
#975=CARTESIAN_POINT('',(0.377,-0.01,0.0294755818867564));
#976=CARTESIAN_POINT('',(0.262,-0.01,0.0294755818867564));
#977=CARTESIAN_POINT('',(0.287,-0.01,0.0294755818867564));
#978=CARTESIAN_POINT('',(0.262,0.,2.02836483889627E-18));
#979=CARTESIAN_POINT('',(0.262,-0.0302086068457796,0.0075));
#980=CARTESIAN_POINT('',(0.377,-0.0302086068457796,0.0075));
#981=CARTESIAN_POINT('',(0.283001,-0.0302086068457796,0.0075));
#982=CARTESIAN_POINT('',(0.283001,0.,2.02836483889627E-18));
#983=CARTESIAN_POINT('',(0.283001,-0.0302086068457796,-0.0075));
#984=CARTESIAN_POINT('',(0.377,-0.0302086068457796,-0.0075));
#985=CARTESIAN_POINT('',(0.262,-0.0302086068457796,-0.0075));
#986=CARTESIAN_POINT('',(0.262,0.,2.02836483889627E-18));
#987=CARTESIAN_POINT('',(0.262,-0.01,-0.0294755818867564));
#988=CARTESIAN_POINT('',(0.377,-0.01,-0.0294755818867564));
#989=CARTESIAN_POINT('',(0.287,-0.01,-0.0294755818867564));
#990=CARTESIAN_POINT('',(0.287,0.,2.02836483889627E-18));
#991=CARTESIAN_POINT('',(0.287,0.,-0.0311257116796208));
#992=CARTESIAN_POINT('',(0.287,0.,2.02836483889627E-18));
#993=CARTESIAN_POINT('',(0.287,0.01,-0.0294755818867564));
#994=CARTESIAN_POINT('',(0.377,0.01,-0.0294755818867564));
#995=CARTESIAN_POINT('',(0.262,0.01,-0.0294755818867564));
#996=CARTESIAN_POINT('',(0.262,0.,2.02836483889627E-18));
#997=CARTESIAN_POINT('',(0.262,0.0302086068457796,-0.0075));
#998=CARTESIAN_POINT('',(0.377,0.0302086068457796,-0.0075));
#999=CARTESIAN_POINT('',(0.283001,0.0302086068457796,-0.0075));
#1000=CARTESIAN_POINT('',(0.283001,0.,2.02836483889627E-18));
#1001=CARTESIAN_POINT('',(0.283001,0.0302086068457796,0.0075));
#1002=CARTESIAN_POINT('',(0.377,0.0302086068457796,0.0075));
#1003=CARTESIAN_POINT('',(0.262,0.0302086068457796,0.0075));
#1004=CARTESIAN_POINT('',(0.262,0.,2.02836483889627E-18));
#1005=CARTESIAN_POINT('',(0.262,0.01,0.0294755818867564));
#1006=CARTESIAN_POINT('',(0.377,0.01,0.0294755818867564));
#1007=CARTESIAN_POINT('',(0.287,0.01,0.0294755818867564));
#1008=CARTESIAN_POINT('',(0.287,0.,2.02836483889627E-18));
#1009=CARTESIAN_POINT('',(0.287,0.,0.0311257116796208));
#1010=CARTESIAN_POINT('',(0.287,0.,2.02836483889627E-18));
#1011=CARTESIAN_POINT('',(0.263001,-0.035,-3.46944695195361E-18));
#1012=CARTESIAN_POINT('',(0.2725005,-0.035,2.22710944028206E-18));
#1013=CARTESIAN_POINT('',(0.276250129474244,-0.035,-0.00248802709106605));
#1014=CARTESIAN_POINT('',(0.276226046605328,-0.035,0.00252394581786791));
#1015=CARTESIAN_POINT('',(0.285101,-0.035,-0.00248802709106605));
#1016=CARTESIAN_POINT('',(0.283001,-0.035,-0.00248802709106605));
#1017=CARTESIAN_POINT('',(0.283001,-0.035,1.7347234759768E-18));
#1018=CARTESIAN_POINT('',(0.283001,-0.035,0.00252394581786791));
#1019=CARTESIAN_POINT('',(0.283901,-0.035,0.00252394581786791));
#1020=CARTESIAN_POINT('',(0.263001,0.035,1.7347234759768E-18));
#1021=CARTESIAN_POINT('',(0.235521,0.035,-0.00404566564175749));
#1022=CARTESIAN_POINT('',(0.274470928764281,0.035,-0.00404566564175749));
#1023=CARTESIAN_POINT('',(0.283001,0.035,-0.00404566564175749));
#1024=CARTESIAN_POINT('',(0.2725005,0.035,2.22710944028206E-18));
#1025=CARTESIAN_POINT('',(0.27613034566228,0.035,0.00265974067683834));
#1026=CARTESIAN_POINT('',(0.241201,0.035,0.00265974067683834));
#1027=CARTESIAN_POINT('',(0.283001,0.035,0.00265974067683834));
#1028=CARTESIAN_POINT('',(0.283001,0.035,-1.7347234759768E-18));
#1029=CARTESIAN_POINT('',(0.263001,-0.035,0.0075));
#1030=CARTESIAN_POINT('',(0.287,0.0175,0.0075));
#1031=CARTESIAN_POINT('',(0.283001,0.0175,0.0075));
#1032=CARTESIAN_POINT('',(0.262,0.0175,0.0075));
#1033=CARTESIAN_POINT('',(0.283001,-0.035,0.0075));
#1034=CARTESIAN_POINT('',(0.283001,0.02502604265094,0.0075));
#1035=CARTESIAN_POINT('',(0.157,0.02502604265094,0.0075));
#1036=CARTESIAN_POINT('',(0.262,0.02502604265094,0.0075));
#1037=CARTESIAN_POINT('',(0.262,-0.035,0.0075));
#1038=CARTESIAN_POINT('',(0.262,0.,3.46944695195361E-18));
#1039=CARTESIAN_POINT('',(0.262,-0.01,0.0298757116796208));
#1040=CARTESIAN_POINT('',(0.262,-0.01,0.0311257116796208));
#1041=CARTESIAN_POINT('',(0.262,0.005,0.0311257116796208));
#1042=CARTESIAN_POINT('',(0.262,0.01,0.0311257116796208));
#1043=CARTESIAN_POINT('',(0.262,0.01,0.0298757116796208));
#1044=CARTESIAN_POINT('',(0.262,0.0302086068457796,0.0075));
#1045=CARTESIAN_POINT('',(0.262,0.035,0.0075));
#1046=CARTESIAN_POINT('',(0.262,0.035,0.00265974067683834));
#1047=CARTESIAN_POINT('',(0.262,0.035,0.00265974067683834));
#1048=CARTESIAN_POINT('',(0.262,0.035,1.7347234759768E-18));
#1049=CARTESIAN_POINT('',(0.262,0.035,-0.00404566564175749));
#1050=CARTESIAN_POINT('',(0.262,0.0302086068457796,-0.0075));
#1051=CARTESIAN_POINT('',(0.262,0.035,-0.0075));
#1052=CARTESIAN_POINT('',(0.262,0.035,-0.00404566564175749));
#1053=CARTESIAN_POINT('',(0.262,0.01,-0.0298757116796208));
#1054=CARTESIAN_POINT('',(0.262,0.01,-0.0311257116796208));
#1055=CARTESIAN_POINT('',(0.262,-0.005,-0.0311257116796208));
#1056=CARTESIAN_POINT('',(0.262,-0.01,-0.0311257116796208));
#1057=CARTESIAN_POINT('',(0.262,-0.01,-0.0298757116796208));
#1058=CARTESIAN_POINT('',(0.262,-0.0302086068457796,-0.0075));
#1059=CARTESIAN_POINT('',(0.262,-0.035,-0.0075));
#1060=CARTESIAN_POINT('',(0.262,-0.035,-0.00248802709106605));
#1061=CARTESIAN_POINT('',(0.262,-0.035,-0.00248802709106605));
#1062=CARTESIAN_POINT('',(0.262,-0.035,-3.46944695195361E-18));
#1063=CARTESIAN_POINT('',(0.262,-0.035,0.00252394581786791));
#1064=CARTESIAN_POINT('',(0.262,-0.0302086068457796,0.0075));
#1065=CARTESIAN_POINT('',(0.262,-0.035,0.0075));
#1066=CARTESIAN_POINT('',(0.262,-0.035,0.00252394581786791));
#1067=CARTESIAN_POINT('',(0.262,0.031,-0.000692962482459577));
#1068=CARTESIAN_POINT('',(0.262,0.031,0.00170703751754042));
#1069=CARTESIAN_POINT('',(0.262,-0.031,1.79593634009273E-5));
#1070=CARTESIAN_POINT('',(0.262,-0.031,0.00241795936340093));
#1071=CARTESIAN_POINT('',(0.262,0.0175,0.00349013906907766));
#1072=CARTESIAN_POINT('',(0.262,0.0175,-0.0075));
#1073=CARTESIAN_POINT('',(0.262,0.,1.5997384591947E-18));
#1074=CARTESIAN_POINT('',(0.262,-0.02502604265094,0.0075));
#1075=CARTESIAN_POINT('',(0.262,-0.035,0.0075));
#1076=CARTESIAN_POINT('',(0.262,-0.0175,0.0075));
#1077=CARTESIAN_POINT('',(0.262,-0.0175,0.00366337968969255));
#1078=CARTESIAN_POINT('',(0.262,-0.0175,-0.0075));
#1079=CARTESIAN_POINT('',(0.262,-0.035,-0.0075));
#1080=CARTESIAN_POINT('',(0.262,-0.02502604265094,-0.0075));
#1081=CARTESIAN_POINT('',(0.262,0.,1.5997384591947E-18));
#1082=CARTESIAN_POINT('',(0.262,0.02502604265094,-0.0075));
#1083=CARTESIAN_POINT('',(0.262,-0.035,-0.0075));
#1084=CARTESIAN_POINT('',(0.283001,-0.035,1.7347234759768E-18));
#1085=CARTESIAN_POINT('',(0.283001,-0.035,-0.0075));
#1086=CARTESIAN_POINT('',(0.283001,-0.02502604265094,-0.0075));
#1087=CARTESIAN_POINT('',(0.283001,-0.0175,-0.0075));
#1088=CARTESIAN_POINT('',(0.283001,-0.0175,1.7347234759768E-18));
#1089=CARTESIAN_POINT('',(0.283001,-0.0175,0.0075));
#1090=CARTESIAN_POINT('',(0.283001,-0.035,0.0075));
#1091=CARTESIAN_POINT('',(0.283001,-0.02502604265094,0.0075));
#1092=CARTESIAN_POINT('',(0.283001,0.,1.5997384591947E-18));
#1093=CARTESIAN_POINT('',(0.263001,-0.035,-0.0075));
#1094=CARTESIAN_POINT('',(0.263001,-0.0175,-0.0075));
#1095=CARTESIAN_POINT('',(0.157,-0.02502604265094,-0.0075));
#1096=CARTESIAN_POINT('',(0.382,0.,0.));
#1097=CARTESIAN_POINT('',(0.382,0.,2.02836483889627E-18));
#1098=CARTESIAN_POINT('',(0.382,0.,-0.0161257116796208));
#1099=CARTESIAN_POINT('',(0.367,0.,2.02836483889627E-18));
#1100=CARTESIAN_POINT('',(0.283001,-0.035,1.7347234759768E-18));
#1101=CARTESIAN_POINT('',(0.283001,-0.0302086068457796,-0.0075));
#1102=CARTESIAN_POINT('',(0.283001,-0.035,-0.0075));
#1103=CARTESIAN_POINT('',(0.283001,-0.035,-0.00248802709106605));
#1104=CARTESIAN_POINT('',(0.283001,-0.0302086068457796,0.0075));
#1105=CARTESIAN_POINT('',(0.283001,-0.035,0.0075));
#1106=CARTESIAN_POINT('',(0.283001,-0.035,0.00252394581786791));
#1107=CARTESIAN_POINT('',(0.283001,0.035,-1.7347234759768E-18));
#1108=CARTESIAN_POINT('',(0.283001,0.0302086068457796,-0.0075));
#1109=CARTESIAN_POINT('',(0.283001,0.035,-0.0075));
#1110=CARTESIAN_POINT('',(0.283001,0.035,-0.00404566564175749));
#1111=CARTESIAN_POINT('',(0.283001,0.0302086068457796,0.0075));
#1112=CARTESIAN_POINT('',(0.283001,0.035,0.0075));
#1113=CARTESIAN_POINT('',(0.283001,0.035,0.00265974067683834));
#1114=CARTESIAN_POINT('',(0.262,0.0302086068457796,-0.0075));
#1115=CARTESIAN_POINT('',(0.283001,0.0302086068457796,-0.0075));
#1116=CARTESIAN_POINT('',(0.262,0.0334028689485932,-0.0075));
#1117=CARTESIAN_POINT('',(0.283001,0.0334028689485932,-0.0075));
#1118=CARTESIAN_POINT('',(0.262,0.035,-0.00634855521391916));
#1119=CARTESIAN_POINT('',(0.283001,0.035,-0.00634855521391916));
#1120=CARTESIAN_POINT('',(0.262,0.035,-0.00404566564175749));
#1121=CARTESIAN_POINT('',(0.283001,0.035,-0.00404566564175749));
#1122=CARTESIAN_POINT('',(0.274470928764281,0.035,-0.00404566564175749));
#1123=CARTESIAN_POINT('',(0.273854350168742,0.035,-0.00434596831322629));
#1124=CARTESIAN_POINT('',(0.272504887027127,0.0349555844463328,-0.00465404231516012));
#1125=CARTESIAN_POINT('',(0.271146601844314,0.035,-0.00434594494133526));
#1126=CARTESIAN_POINT('',(0.27053007123572,0.035,-0.00404566564175749));
#1127=CARTESIAN_POINT('',(0.27053007123572,0.035,-0.00404566564175749));
#1128=CARTESIAN_POINT('',(0.235521,0.035,-0.00404566564175749));
#1129=CARTESIAN_POINT('',(0.283001,-0.0302086068457796,0.0075));
#1130=CARTESIAN_POINT('',(0.262,-0.0302086068457796,0.0075));
#1131=CARTESIAN_POINT('',(0.283001,-0.0334028689485932,0.0075));
#1132=CARTESIAN_POINT('',(0.262,-0.0334028689485932,0.0075));
#1133=CARTESIAN_POINT('',(0.283001,-0.035,0.00584131527262264));
#1134=CARTESIAN_POINT('',(0.262,-0.035,0.00584131527262264));
#1135=CARTESIAN_POINT('',(0.283001,-0.035,0.00252394581786791));
#1136=CARTESIAN_POINT('',(0.262,-0.035,0.00252394581786791));
#1137=CARTESIAN_POINT('',(0.283901,-0.035,0.00252394581786791));
#1138=CARTESIAN_POINT('',(0.268774953394673,-0.035,0.00252394581786791));
#1139=CARTESIAN_POINT('',(0.268774953394673,-0.035,0.00252394581786791));
#1140=CARTESIAN_POINT('',(0.269189902063639,-0.035,0.00313644335807241));
#1141=CARTESIAN_POINT('',(0.27030510447509,-0.034879358871611,0.00413234715566716));
#1142=CARTESIAN_POINT('',(0.272496595556855,-0.0347012490870134,0.00468341419296844));
#1143=CARTESIAN_POINT('',(0.274695044797355,-0.0348790636732185,0.00413399105002282));
#1144=CARTESIAN_POINT('',(0.275811122099802,-0.035,0.00313640769089464));
#1145=CARTESIAN_POINT('',(0.276226046605328,-0.035,0.00252394581786791));
#1146=CARTESIAN_POINT('',(0.283001,-0.0302086068457796,-0.0075));
#1147=CARTESIAN_POINT('',(0.262,-0.0302086068457796,-0.0075));
#1148=CARTESIAN_POINT('',(0.283001,-0.0334028689485932,-0.0075));
#1149=CARTESIAN_POINT('',(0.262,-0.0334028689485932,-0.0075));
#1150=CARTESIAN_POINT('',(0.283001,-0.035,-0.00582934236368868));
#1151=CARTESIAN_POINT('',(0.262,-0.035,-0.00582934236368868));
#1152=CARTESIAN_POINT('',(0.283001,-0.035,-0.00248802709106605));
#1153=CARTESIAN_POINT('',(0.262,-0.035,-0.00248802709106605));
#1154=CARTESIAN_POINT('',(0.268750870525756,-0.035,-0.00248802709106605));
#1155=CARTESIAN_POINT('',(0.269164026667161,-0.035,-0.00311068206570037));
#1156=CARTESIAN_POINT('',(0.270283501213299,-0.0348768039354518,-0.0041250334373577));
#1157=CARTESIAN_POINT('',(0.272497821171599,-0.0346934820166116,-0.00468725430727764));
#1158=CARTESIAN_POINT('',(0.274717331671699,-0.0348766380887233,-0.00412594714043424));
#1159=CARTESIAN_POINT('',(0.275836980177435,-0.035,-0.00311067175041999));
#1160=CARTESIAN_POINT('',(0.276250129474244,-0.035,-0.00248802709106605));
#1161=CARTESIAN_POINT('',(0.268750870525756,-0.035,-0.00248802709106605));
#1162=CARTESIAN_POINT('',(0.285101,-0.035,-0.00248802709106605));
#1163=CARTESIAN_POINT('',(0.263001,-0.035,-3.46944695195361E-18));
#1164=CARTESIAN_POINT('',(0.2725005,-0.035,2.22710944028206E-18));
#1165=CARTESIAN_POINT('',(0.262,0.0302086068457796,0.0075));
#1166=CARTESIAN_POINT('',(0.283001,0.0302086068457796,0.0075));
#1167=CARTESIAN_POINT('',(0.262,0.0334028689485932,0.0075));
#1168=CARTESIAN_POINT('',(0.283001,0.0334028689485932,0.0075));
#1169=CARTESIAN_POINT('',(0.262,0.035,0.00588658022561278));
#1170=CARTESIAN_POINT('',(0.283001,0.035,0.00588658022561278));
#1171=CARTESIAN_POINT('',(0.262,0.035,0.00265974067683834));
#1172=CARTESIAN_POINT('',(0.283001,0.035,0.00265974067683834));
#1173=CARTESIAN_POINT('',(0.27613034566228,0.035,0.00265974067683834));
#1174=CARTESIAN_POINT('',(0.275709448969016,0.035,0.00323415383283429));
#1175=CARTESIAN_POINT('',(0.274618277625914,0.0348896542818228,0.00415666925709035));
#1176=CARTESIAN_POINT('',(0.27250854897826,0.0347302612969197,0.00466984163645455));
#1177=CARTESIAN_POINT('',(0.270392344731701,0.0348883873042906,0.00416393181248388));
#1178=CARTESIAN_POINT('',(0.269291408218258,0.035,0.00323395893106699));
#1179=CARTESIAN_POINT('',(0.268870654337721,0.035,0.00265974067683834));
#1180=CARTESIAN_POINT('',(0.268870654337721,0.035,0.00265974067683834));
#1181=CARTESIAN_POINT('',(0.241201,0.035,0.00265974067683834));
#1182=CARTESIAN_POINT('',(0.263001,0.035,1.7347234759768E-18));
#1183=CARTESIAN_POINT('',(0.2725005,0.035,2.22710944028206E-18));
#1184=CARTESIAN_POINT('',(0.377,0.,0.));
#1185=CARTESIAN_POINT('',(0.377,0.,1.5997384591947E-18));
#1186=CARTESIAN_POINT('',(0.377,0.,-0.0261257116796207));
#1187=CARTESIAN_POINT('',(0.283001,-0.035,1.7347234759768E-18));
#1188=CARTESIAN_POINT('',(0.283001,0.0175,1.7347234759768E-18));
#1189=CARTESIAN_POINT('',(0.283001,0.0175,-0.0075));
#1190=CARTESIAN_POINT('',(0.283001,-0.035,-0.0075));
#1191=CARTESIAN_POINT('',(0.283001,0.02502604265094,-0.0075));
#1192=CARTESIAN_POINT('',(0.283001,0.,1.5997384591947E-18));
#1193=CARTESIAN_POINT('',(0.263001,-0.035,-0.0075));
#1194=CARTESIAN_POINT('',(0.263001,0.0175,-0.0075));
#1195=CARTESIAN_POINT('',(0.157,0.02502604265094,-0.0075));
#1196=CARTESIAN_POINT('',(0.263001,-0.035,0.0075));
#1197=CARTESIAN_POINT('',(0.287,-0.0175,0.0075));
#1198=CARTESIAN_POINT('',(0.157,-0.02502604265094,0.0075));
#1199=CARTESIAN_POINT('',(0.157,0.,1.5997384591947E-18));
#1200=CARTESIAN_POINT('',(0.25705,0.031,-0.000692962482459577));
#1201=CARTESIAN_POINT('',(0.25705,0.031,-0.000692962482459577));
#1202=CARTESIAN_POINT('',(0.25705,0.031,0.00170703751754042));
#1203=CARTESIAN_POINT('',(0.25705,0.,0.));
#1204=CARTESIAN_POINT('',(0.25705,-0.031,1.79593634009273E-5));
#1205=CARTESIAN_POINT('',(0.25705,-0.031,1.79593634009273E-5));
#1206=CARTESIAN_POINT('',(0.25705,-0.031,0.00241795936340093));
#1207=CARTESIAN_POINT('',(0.25705,0.,0.));
#1208=CARTESIAN_POINT('',(0.287,-0.0175,0.00366337968969255));
#1209=CARTESIAN_POINT('',(0.2725005,-0.0175,2.22710944028206E-18));
#1210=CARTESIAN_POINT('',(0.2725005,-0.0175,0.0045));
#1211=CARTESIAN_POINT('',(0.287,0.0175,0.00349013906907766));
#1212=CARTESIAN_POINT('',(0.2725005,0.0175,2.22710944028206E-18));
#1213=CARTESIAN_POINT('',(0.2725005,0.0175,-0.0045));
#1214=CARTESIAN_POINT('',(0.2725005,0.0425,2.22710944028206E-18));
#1215=CARTESIAN_POINT('',(0.2725005,-0.106,2.22710944028206E-18));
#1216=CARTESIAN_POINT('',(0.287,-0.01,-0.0298757116796208));
#1217=CARTESIAN_POINT('',(0.287,-0.01,-0.0298757116796208));
#1218=CARTESIAN_POINT('',(0.287,-0.01,-0.0311257116796208));
#1219=CARTESIAN_POINT('',(0.287,-0.01,-0.0311257116796208));
#1220=CARTESIAN_POINT('',(0.287,-0.005,-0.0311257116796208));
#1221=CARTESIAN_POINT('',(0.287,-0.005,-0.0311257116796208));
#1222=CARTESIAN_POINT('',(0.287,0.01,-0.0311257116796208));
#1223=CARTESIAN_POINT('',(0.287,-0.005,-0.0311257116796208));
#1224=CARTESIAN_POINT('',(0.287,0.01,-0.0311257116796208));
#1225=CARTESIAN_POINT('',(0.287,0.01,-0.0298757116796208));
#1226=CARTESIAN_POINT('',(0.287,0.01,-0.0298757116796208));
#1227=CARTESIAN_POINT('',(0.287,-3.46944695195361E-18,0.));
#1228=CARTESIAN_POINT('',(0.287,-3.46944695195361E-18,0.));
#1229=CARTESIAN_POINT('',(0.287,0.005,0.0311257116796208));
#1230=CARTESIAN_POINT('',(0.287,-0.01,0.0311257116796208));
#1231=CARTESIAN_POINT('',(0.287,-0.01,0.0311257116796208));
#1232=CARTESIAN_POINT('',(0.287,0.005,0.0311257116796208));
#1233=CARTESIAN_POINT('',(0.287,0.005,0.0311257116796208));
#1234=CARTESIAN_POINT('',(0.287,0.01,0.0311257116796208));
#1235=CARTESIAN_POINT('',(0.287,0.01,0.0311257116796208));
#1236=CARTESIAN_POINT('',(0.287,-0.01,0.0298757116796208));
#1237=CARTESIAN_POINT('',(0.287,-0.01,0.0298757116796208));
#1238=CARTESIAN_POINT('',(0.287,0.01,0.0298757116796208));
#1239=CARTESIAN_POINT('',(0.287,0.01,0.0298757116796208));
#1240=CARTESIAN_POINT('',(0.287,-3.46944695195361E-18,0.));
#1241=CARTESIAN_POINT('',(0.287,-3.46944695195361E-18,0.));
#1242=MECHANICAL_DESIGN_GEOMETRIC_PRESENTATION_REPRESENTATION('',(#710),
#1243);
#1243=(
GEOMETRIC_REPRESENTATION_CONTEXT(3)
GLOBAL_UNCERTAINTY_ASSIGNED_CONTEXT((#1244))
GLOBAL_UNIT_ASSIGNED_CONTEXT((#1247,#1246,#1245))
REPRESENTATION_CONTEXT('Part 4','TOP_LEVEL_ASSEMBLY_PART')
);
#1244=UNCERTAINTY_MEASURE_WITH_UNIT(LENGTH_MEASURE(2.E-5),#1247,
'DISTANCE_ACCURACY_VALUE','Maximum Tolerance applied to model');
#1245=(
NAMED_UNIT(*)
SI_UNIT($,.STERADIAN.)
SOLID_ANGLE_UNIT()
);
#1246=(
NAMED_UNIT(*)
PLANE_ANGLE_UNIT()
SI_UNIT($,.RADIAN.)
);
#1247=(
LENGTH_UNIT()
NAMED_UNIT(*)
SI_UNIT($,.METRE.)
);
#1248=PRODUCT_DEFINITION_SHAPE('','',#1249);
#1249=PRODUCT_DEFINITION('','',#1251,#1250);
#1250=PRODUCT_DEFINITION_CONTEXT('',#1257,'design');
#1251=PRODUCT_DEFINITION_FORMATION_WITH_SPECIFIED_SOURCE('','',#1253,
 .NOT_KNOWN.);
#1252=PRODUCT_RELATED_PRODUCT_CATEGORY('','',(#1253));
#1253=PRODUCT('Part 4','Part 4','Part 4',(#1255));
#1254=PRODUCT_CATEGORY('','');
#1255=PRODUCT_CONTEXT('',#1257,'mechanical');
#1256=APPLICATION_PROTOCOL_DEFINITION('international standard',
'ap242_managed_model_based_3d_engineering',2020,#1257);
#1257=APPLICATION_CONTEXT('managed model based 3d engineering');
ENDSEC;
END-ISO-10303-21;
