ISO-10303-21;
HEADER;
/* Generated by software containing ST-Developer
 * from STEP Tools, Inc. (www.steptools.com) 
 */
/* OPTION: using custom renumber hook */

FILE_DESCRIPTION(
/* description */ ('STEP AP242 Edition 2',
'CAx-IF Rec.Pracs.---Representation and Presentation of Product Manufa
cturing Information (PMI)---4.0---2014-10-13',
'CAx-IF Rec.Pracs.---3D Tessellated Geometry---0.4---2014-09-14','2;1',
'CAx-IF Rec.Pracs.---User Defined Attributes---1.5---2016-08-15'),
/* implementation_level */ '2;1');

FILE_NAME(
/* name */ 'Part Studio 1 - Part 3',
/* time_stamp */ '2026-09-25T23:53:45Z',
/* author */ (''),
/* organization */ (''),
/* preprocessor_version */ 'ST-DEVELOPER v20',
/* originating_system */ 'ONSHAPE BY PTC INC, 1.221',
/* authorisation */ '  ');

FILE_SCHEMA (('AP242_MANAGED_MODEL_BASED_3D_ENGINEERING_MIM_LF { 1 0 10303 442 3 1 4 }'));
ENDSEC;

DATA;
#10=SHAPE_REPRESENTATION_RELATIONSHIP('','',#368,#11);
#11=ADVANCED_BREP_SHAPE_REPRESENTATION('',(#366),#643);
#12=CONICAL_SURFACE('',#388,0.0331257116796207,0.349065850398866);
#13=CONICAL_SURFACE('',#393,0.0290781389208114,0.959931088596853);
#14=CONICAL_SURFACE('',#394,0.0311257116796208,0.610865238197987);
#15=B_SPLINE_CURVE_WITH_KNOTS('',2,(#568,#569,#570),.UNSPECIFIED.,.F.,.F.,
(3,3),(0.,1.),.PIECEWISE_BEZIER_KNOTS.);
#16=B_SPLINE_CURVE_WITH_KNOTS('',2,(#571,#572,#573),.UNSPECIFIED.,.F.,.F.,
(3,3),(0.,1.),.PIECEWISE_BEZIER_KNOTS.);
#17=B_SPLINE_CURVE_WITH_KNOTS('',2,(#582,#583,#584),.UNSPECIFIED.,.F.,.F.,
(3,3),(0.,1.),.PIECEWISE_BEZIER_KNOTS.);
#18=B_SPLINE_CURVE_WITH_KNOTS('',2,(#585,#586,#587),.UNSPECIFIED.,.F.,.F.,
(3,3),(0.,1.),.PIECEWISE_BEZIER_KNOTS.);
#19=B_SPLINE_CURVE_WITH_KNOTS('',2,(#596,#597,#598),.UNSPECIFIED.,.F.,.F.,
(3,3),(0.,1.),.PIECEWISE_BEZIER_KNOTS.);
#20=B_SPLINE_CURVE_WITH_KNOTS('',2,(#599,#600,#601),.UNSPECIFIED.,.F.,.F.,
(3,3),(0.,1.),.PIECEWISE_BEZIER_KNOTS.);
#21=B_SPLINE_CURVE_WITH_KNOTS('',2,(#610,#611,#612),.UNSPECIFIED.,.F.,.F.,
(3,3),(0.,1.),.PIECEWISE_BEZIER_KNOTS.);
#22=B_SPLINE_CURVE_WITH_KNOTS('',2,(#613,#614,#615),.UNSPECIFIED.,.F.,.F.,
(3,3),(0.,1.),.PIECEWISE_BEZIER_KNOTS.);
#23=B_SPLINE_SURFACE_WITH_KNOTS('',3,1,((#560,#561),(#562,#563),(#564,#565),
(#566,#567)),.SURF_OF_LINEAR_EXTRUSION.,.F.,.F.,.F.,(4,4),(2,2),(0.,1.),
(0.,1.),.PIECEWISE_BEZIER_KNOTS.);
#24=B_SPLINE_SURFACE_WITH_KNOTS('',3,1,((#574,#575),(#576,#577),(#578,#579),
(#580,#581)),.SURF_OF_LINEAR_EXTRUSION.,.F.,.F.,.F.,(4,4),(2,2),(0.,1.),
(0.,1.),.PIECEWISE_BEZIER_KNOTS.);
#25=B_SPLINE_SURFACE_WITH_KNOTS('',3,1,((#588,#589),(#590,#591),(#592,#593),
(#594,#595)),.SURF_OF_LINEAR_EXTRUSION.,.F.,.F.,.F.,(4,4),(2,2),(0.,1.),
(0.,1.),.PIECEWISE_BEZIER_KNOTS.);
#26=B_SPLINE_SURFACE_WITH_KNOTS('',3,1,((#602,#603),(#604,#605),(#606,#607),
(#608,#609)),.SURF_OF_LINEAR_EXTRUSION.,.F.,.F.,.F.,(4,4),(2,2),(0.,1.),
(0.,1.),.PIECEWISE_BEZIER_KNOTS.);
#27=CIRCLE('',#372,0.0261257116796207);
#28=CIRCLE('',#373,0.0261257116796207);
#29=CIRCLE('',#374,0.0261257116796207);
#30=CIRCLE('',#375,0.0261257116796207);
#31=CIRCLE('',#376,0.0261257116796207);
#32=CIRCLE('',#378,0.0311257116796208);
#33=CIRCLE('',#379,0.0311257116796208);
#34=CIRCLE('',#380,0.0311257116796208);
#35=CIRCLE('',#381,0.0311257116796208);
#36=CIRCLE('',#382,0.0311257116796208);
#37=CIRCLE('',#389,0.0290781389208114);
#38=CIRCLE('',#390,0.0324416713929693);
#39=CIRCLE('',#392,0.0263940986341601);
#40=CIRCLE('',#397,0.0025);
#41=CIRCLE('',#398,0.0025);
#42=CIRCLE('',#400,0.0025);
#43=CIRCLE('',#403,0.0025);
#44=CYLINDRICAL_SURFACE('',#371,0.0261257116796207);
#45=CYLINDRICAL_SURFACE('',#377,0.0311257116796208);
#46=CYLINDRICAL_SURFACE('',#399,0.0025);
#47=CYLINDRICAL_SURFACE('',#402,0.0025);
#48=ORIENTED_EDGE('',*,*,#138,.F.);
#49=ORIENTED_EDGE('',*,*,#139,.F.);
#50=ORIENTED_EDGE('',*,*,#140,.T.);
#51=ORIENTED_EDGE('',*,*,#141,.T.);
#52=ORIENTED_EDGE('',*,*,#142,.F.);
#53=ORIENTED_EDGE('',*,*,#143,.F.);
#54=ORIENTED_EDGE('',*,*,#144,.T.);
#55=ORIENTED_EDGE('',*,*,#145,.T.);
#56=ORIENTED_EDGE('',*,*,#146,.T.);
#57=ORIENTED_EDGE('',*,*,#147,.F.);
#58=ORIENTED_EDGE('',*,*,#148,.T.);
#59=ORIENTED_EDGE('',*,*,#149,.T.);
#60=ORIENTED_EDGE('',*,*,#150,.T.);
#61=ORIENTED_EDGE('',*,*,#151,.T.);
#62=ORIENTED_EDGE('',*,*,#152,.F.);
#63=ORIENTED_EDGE('',*,*,#153,.T.);
#64=ORIENTED_EDGE('',*,*,#154,.F.);
#65=ORIENTED_EDGE('',*,*,#155,.F.);
#66=ORIENTED_EDGE('',*,*,#156,.F.);
#67=ORIENTED_EDGE('',*,*,#157,.T.);
#68=ORIENTED_EDGE('',*,*,#158,.F.);
#69=ORIENTED_EDGE('',*,*,#159,.F.);
#70=ORIENTED_EDGE('',*,*,#160,.F.);
#71=ORIENTED_EDGE('',*,*,#161,.T.);
#72=ORIENTED_EDGE('',*,*,#162,.T.);
#73=ORIENTED_EDGE('',*,*,#163,.T.);
#74=ORIENTED_EDGE('',*,*,#164,.F.);
#75=ORIENTED_EDGE('',*,*,#143,.T.);
#76=ORIENTED_EDGE('',*,*,#165,.F.);
#77=ORIENTED_EDGE('',*,*,#145,.F.);
#78=ORIENTED_EDGE('',*,*,#149,.F.);
#79=ORIENTED_EDGE('',*,*,#166,.T.);
#80=ORIENTED_EDGE('',*,*,#147,.T.);
#81=ORIENTED_EDGE('',*,*,#167,.T.);
#82=ORIENTED_EDGE('',*,*,#168,.F.);
#83=ORIENTED_EDGE('',*,*,#159,.T.);
#84=ORIENTED_EDGE('',*,*,#169,.T.);
#85=ORIENTED_EDGE('',*,*,#162,.F.);
#86=ORIENTED_EDGE('',*,*,#157,.F.);
#87=ORIENTED_EDGE('',*,*,#170,.T.);
#88=ORIENTED_EDGE('',*,*,#160,.T.);
#89=ORIENTED_EDGE('',*,*,#171,.F.);
#90=ORIENTED_EDGE('',*,*,#172,.F.);
#91=ORIENTED_EDGE('',*,*,#141,.F.);
#92=ORIENTED_EDGE('',*,*,#173,.F.);
#93=ORIENTED_EDGE('',*,*,#153,.F.);
#94=ORIENTED_EDGE('',*,*,#139,.T.);
#95=ORIENTED_EDGE('',*,*,#174,.T.);
#96=ORIENTED_EDGE('',*,*,#155,.T.);
#97=ORIENTED_EDGE('',*,*,#175,.T.);
#98=ORIENTED_EDGE('',*,*,#175,.F.);
#99=ORIENTED_EDGE('',*,*,#154,.T.);
#100=ORIENTED_EDGE('',*,*,#173,.T.);
#101=ORIENTED_EDGE('',*,*,#140,.F.);
#102=ORIENTED_EDGE('',*,*,#158,.T.);
#103=ORIENTED_EDGE('',*,*,#171,.T.);
#104=ORIENTED_EDGE('',*,*,#163,.F.);
#105=ORIENTED_EDGE('',*,*,#169,.F.);
#106=ORIENTED_EDGE('',*,*,#176,.T.);
#107=ORIENTED_EDGE('',*,*,#177,.T.);
#108=ORIENTED_EDGE('',*,*,#178,.T.);
#109=ORIENTED_EDGE('',*,*,#142,.T.);
#110=ORIENTED_EDGE('',*,*,#178,.F.);
#111=ORIENTED_EDGE('',*,*,#176,.F.);
#112=ORIENTED_EDGE('',*,*,#177,.F.);
#113=ORIENTED_EDGE('',*,*,#151,.F.);
#114=ORIENTED_EDGE('',*,*,#146,.F.);
#115=ORIENTED_EDGE('',*,*,#165,.T.);
#116=ORIENTED_EDGE('',*,*,#150,.F.);
#117=ORIENTED_EDGE('',*,*,#167,.F.);
#118=ORIENTED_EDGE('',*,*,#179,.F.);
#119=ORIENTED_EDGE('',*,*,#180,.F.);
#120=ORIENTED_EDGE('',*,*,#144,.F.);
#121=ORIENTED_EDGE('',*,*,#164,.T.);
#122=ORIENTED_EDGE('',*,*,#148,.F.);
#123=ORIENTED_EDGE('',*,*,#166,.F.);
#124=ORIENTED_EDGE('',*,*,#152,.T.);
#125=ORIENTED_EDGE('',*,*,#168,.T.);
#126=ORIENTED_EDGE('',*,*,#161,.F.);
#127=ORIENTED_EDGE('',*,*,#170,.F.);
#128=ORIENTED_EDGE('',*,*,#156,.T.);
#129=ORIENTED_EDGE('',*,*,#174,.F.);
#130=ORIENTED_EDGE('',*,*,#138,.T.);
#131=ORIENTED_EDGE('',*,*,#172,.T.);
#132=ORIENTED_EDGE('',*,*,#181,.F.);
#133=ORIENTED_EDGE('',*,*,#180,.T.);
#134=ORIENTED_EDGE('',*,*,#181,.T.);
#135=ORIENTED_EDGE('',*,*,#182,.F.);
#136=ORIENTED_EDGE('',*,*,#179,.T.);
#137=ORIENTED_EDGE('',*,*,#182,.T.);
#138=EDGE_CURVE('',#183,#184,#216,.T.);
#139=EDGE_CURVE('',#185,#183,#217,.T.);
#140=EDGE_CURVE('',#185,#186,#218,.T.);
#141=EDGE_CURVE('',#186,#184,#219,.T.);
#142=EDGE_CURVE('',#187,#187,#27,.T.);
#143=EDGE_CURVE('',#188,#189,#220,.T.);
#144=EDGE_CURVE('',#188,#190,#28,.T.);
#145=EDGE_CURVE('',#190,#191,#221,.T.);
#146=EDGE_CURVE('',#191,#192,#29,.T.);
#147=EDGE_CURVE('',#193,#192,#222,.T.);
#148=EDGE_CURVE('',#193,#194,#30,.T.);
#149=EDGE_CURVE('',#194,#195,#223,.T.);
#150=EDGE_CURVE('',#195,#189,#31,.T.);
#151=EDGE_CURVE('',#196,#196,#32,.T.);
#152=EDGE_CURVE('',#197,#198,#33,.T.);
#153=EDGE_CURVE('',#197,#199,#224,.T.);
#154=EDGE_CURVE('',#200,#199,#34,.T.);
#155=EDGE_CURVE('',#201,#200,#225,.T.);
#156=EDGE_CURVE('',#202,#201,#35,.T.);
#157=EDGE_CURVE('',#202,#203,#226,.T.);
#158=EDGE_CURVE('',#204,#203,#36,.T.);
#159=EDGE_CURVE('',#198,#204,#227,.T.);
#160=EDGE_CURVE('',#205,#206,#228,.T.);
#161=EDGE_CURVE('',#205,#207,#229,.T.);
#162=EDGE_CURVE('',#207,#208,#230,.T.);
#163=EDGE_CURVE('',#208,#206,#231,.T.);
#164=EDGE_CURVE('',#188,#190,#232,.T.);
#165=EDGE_CURVE('',#191,#189,#233,.T.);
#166=EDGE_CURVE('',#194,#193,#234,.T.);
#167=EDGE_CURVE('',#192,#195,#235,.T.);
#168=EDGE_CURVE('',#198,#207,#15,.T.);
#169=EDGE_CURVE('',#204,#208,#16,.T.);
#170=EDGE_CURVE('',#202,#205,#17,.T.);
#171=EDGE_CURVE('',#203,#206,#18,.T.);
#172=EDGE_CURVE('',#184,#197,#19,.F.);
#173=EDGE_CURVE('',#199,#186,#20,.T.);
#174=EDGE_CURVE('',#183,#201,#21,.F.);
#175=EDGE_CURVE('',#200,#185,#22,.T.);
#176=EDGE_CURVE('',#209,#209,#37,.T.);
#177=EDGE_CURVE('',#210,#210,#38,.F.);
#178=EDGE_CURVE('',#211,#211,#39,.T.);
#179=EDGE_CURVE('',#212,#212,#40,.T.);
#180=EDGE_CURVE('',#213,#213,#41,.T.);
#181=EDGE_CURVE('',#214,#214,#42,.T.);
#182=EDGE_CURVE('',#215,#215,#43,.T.);
#183=VERTEX_POINT('',#500);
#184=VERTEX_POINT('',#501);
#185=VERTEX_POINT('',#503);
#186=VERTEX_POINT('',#505);
#187=VERTEX_POINT('',#509);
#188=VERTEX_POINT('',#511);
#189=VERTEX_POINT('',#512);
#190=VERTEX_POINT('',#514);
#191=VERTEX_POINT('',#516);
#192=VERTEX_POINT('',#518);
#193=VERTEX_POINT('',#520);
#194=VERTEX_POINT('',#522);
#195=VERTEX_POINT('',#524);
#196=VERTEX_POINT('',#528);
#197=VERTEX_POINT('',#530);
#198=VERTEX_POINT('',#531);
#199=VERTEX_POINT('',#533);
#200=VERTEX_POINT('',#535);
#201=VERTEX_POINT('',#537);
#202=VERTEX_POINT('',#539);
#203=VERTEX_POINT('',#541);
#204=VERTEX_POINT('',#543);
#205=VERTEX_POINT('',#547);
#206=VERTEX_POINT('',#548);
#207=VERTEX_POINT('',#550);
#208=VERTEX_POINT('',#552);
#209=VERTEX_POINT('',#620);
#210=VERTEX_POINT('',#622);
#211=VERTEX_POINT('',#625);
#212=VERTEX_POINT('',#631);
#213=VERTEX_POINT('',#633);
#214=VERTEX_POINT('',#636);
#215=VERTEX_POINT('',#640);
#216=LINE('',#499,#236);
#217=LINE('',#502,#237);
#218=LINE('',#504,#238);
#219=LINE('',#506,#239);
#220=LINE('',#510,#240);
#221=LINE('',#515,#241);
#222=LINE('',#519,#242);
#223=LINE('',#523,#243);
#224=LINE('',#532,#244);
#225=LINE('',#536,#245);
#226=LINE('',#540,#246);
#227=LINE('',#544,#247);
#228=LINE('',#546,#248);
#229=LINE('',#549,#249);
#230=LINE('',#551,#250);
#231=LINE('',#553,#251);
#232=LINE('',#555,#252);
#233=LINE('',#556,#253);
#234=LINE('',#558,#254);
#235=LINE('',#559,#255);
#236=VECTOR('',#409,1.);
#237=VECTOR('',#410,1.);
#238=VECTOR('',#411,1.);
#239=VECTOR('',#412,1.);
#240=VECTOR('',#417,1.);
#241=VECTOR('',#420,1.);
#242=VECTOR('',#423,1.);
#243=VECTOR('',#426,1.);
#244=VECTOR('',#435,1.);
#245=VECTOR('',#438,1.);
#246=VECTOR('',#441,1.);
#247=VECTOR('',#444,1.);
#248=VECTOR('',#447,1.);
#249=VECTOR('',#448,1.);
#250=VECTOR('',#449,1.);
#251=VECTOR('',#450,1.);
#252=VECTOR('',#453,1.);
#253=VECTOR('',#454,1.);
#254=VECTOR('',#457,1.);
#255=VECTOR('',#458,1.);
#256=EDGE_LOOP('',(#48,#49,#50,#51));
#257=EDGE_LOOP('',(#52));
#258=EDGE_LOOP('',(#53,#54,#55,#56,#57,#58,#59,#60));
#259=EDGE_LOOP('',(#61));
#260=EDGE_LOOP('',(#62,#63,#64,#65,#66,#67,#68,#69));
#261=EDGE_LOOP('',(#70,#71,#72,#73));
#262=EDGE_LOOP('',(#74,#75,#76,#77));
#263=EDGE_LOOP('',(#78,#79,#80,#81));
#264=EDGE_LOOP('',(#82,#83,#84,#85));
#265=EDGE_LOOP('',(#86,#87,#88,#89));
#266=EDGE_LOOP('',(#90,#91,#92,#93));
#267=EDGE_LOOP('',(#94,#95,#96,#97));
#268=EDGE_LOOP('',(#98,#99,#100,#101));
#269=EDGE_LOOP('',(#102,#103,#104,#105));
#270=EDGE_LOOP('',(#106));
#271=EDGE_LOOP('',(#107));
#272=EDGE_LOOP('',(#108));
#273=EDGE_LOOP('',(#109));
#274=EDGE_LOOP('',(#110));
#275=EDGE_LOOP('',(#111));
#276=EDGE_LOOP('',(#112));
#277=EDGE_LOOP('',(#113));
#278=EDGE_LOOP('',(#114,#115,#116,#117));
#279=EDGE_LOOP('',(#118));
#280=EDGE_LOOP('',(#119));
#281=EDGE_LOOP('',(#120,#121));
#282=EDGE_LOOP('',(#122,#123));
#283=EDGE_LOOP('',(#124,#125,#126,#127,#128,#129,#130,#131));
#284=EDGE_LOOP('',(#132));
#285=EDGE_LOOP('',(#133));
#286=EDGE_LOOP('',(#134));
#287=EDGE_LOOP('',(#135));
#288=EDGE_LOOP('',(#136));
#289=EDGE_LOOP('',(#137));
#290=FACE_BOUND('',#256,.T.);
#291=FACE_BOUND('',#257,.T.);
#292=FACE_BOUND('',#258,.T.);
#293=FACE_BOUND('',#259,.T.);
#294=FACE_BOUND('',#260,.T.);
#295=FACE_BOUND('',#261,.T.);
#296=FACE_BOUND('',#262,.T.);
#297=FACE_BOUND('',#263,.T.);
#298=FACE_BOUND('',#264,.T.);
#299=FACE_BOUND('',#265,.T.);
#300=FACE_BOUND('',#266,.T.);
#301=FACE_BOUND('',#267,.T.);
#302=FACE_BOUND('',#268,.T.);
#303=FACE_BOUND('',#269,.T.);
#304=FACE_BOUND('',#270,.T.);
#305=FACE_BOUND('',#271,.T.);
#306=FACE_BOUND('',#272,.T.);
#307=FACE_BOUND('',#273,.T.);
#308=FACE_BOUND('',#274,.T.);
#309=FACE_BOUND('',#275,.T.);
#310=FACE_BOUND('',#276,.T.);
#311=FACE_BOUND('',#277,.T.);
#312=FACE_BOUND('',#278,.T.);
#313=FACE_BOUND('',#279,.T.);
#314=FACE_BOUND('',#280,.T.);
#315=FACE_BOUND('',#281,.T.);
#316=FACE_BOUND('',#282,.T.);
#317=FACE_BOUND('',#283,.T.);
#318=FACE_BOUND('',#284,.T.);
#319=FACE_BOUND('',#285,.T.);
#320=FACE_BOUND('',#286,.T.);
#321=FACE_BOUND('',#287,.T.);
#322=FACE_BOUND('',#288,.T.);
#323=FACE_BOUND('',#289,.T.);
#324=PLANE('',#370);
#325=PLANE('',#383);
#326=PLANE('',#384);
#327=PLANE('',#385);
#328=PLANE('',#386);
#329=PLANE('',#387);
#330=PLANE('',#391);
#331=PLANE('',#395);
#332=PLANE('',#396);
#333=PLANE('',#401);
#334=PLANE('',#404);
#335=ADVANCED_FACE('',(#290),#324,.F.);
#336=ADVANCED_FACE('',(#291,#292),#44,.F.);
#337=ADVANCED_FACE('',(#293,#294),#45,.T.);
#338=ADVANCED_FACE('',(#295),#325,.T.);
#339=ADVANCED_FACE('',(#296),#326,.F.);
#340=ADVANCED_FACE('',(#297),#327,.T.);
#341=ADVANCED_FACE('',(#298),#23,.F.);
#342=ADVANCED_FACE('',(#299),#24,.T.);
#343=ADVANCED_FACE('',(#300),#25,.F.);
#344=ADVANCED_FACE('',(#301),#26,.T.);
#345=ADVANCED_FACE('',(#302),#328,.F.);
#346=ADVANCED_FACE('',(#303),#329,.F.);
#347=ADVANCED_FACE('',(#304,#305),#12,.T.);
#348=ADVANCED_FACE('',(#306,#307),#330,.T.);
#349=ADVANCED_FACE('',(#308,#309),#13,.T.);
#350=ADVANCED_FACE('',(#310,#311),#14,.T.);
#351=ADVANCED_FACE('',(#312),#331,.F.);
#352=ADVANCED_FACE('',(#313,#314,#315,#316,#317),#332,.T.);
#353=ADVANCED_FACE('',(#318,#319),#46,.F.);
#354=ADVANCED_FACE('',(#320),#333,.T.);
#355=ADVANCED_FACE('',(#321,#322),#47,.F.);
#356=ADVANCED_FACE('',(#323),#334,.T.);
#357=CLOSED_SHELL('',(#335,#336,#337,#338,#339,#340,#341,#342,#343,#344,
#345,#346,#347,#348,#349,#350,#351,#352,#353,#354,#355,#356));
#358=STYLED_ITEM('',(#359),#366);
#359=PRESENTATION_STYLE_ASSIGNMENT((#360));
#360=SURFACE_STYLE_USAGE(.BOTH.,#361);
#361=SURFACE_SIDE_STYLE('',(#362));
#362=SURFACE_STYLE_FILL_AREA(#363);
#363=FILL_AREA_STYLE('',(#364));
#364=FILL_AREA_STYLE_COLOUR('',#365);
#365=COLOUR_RGB('',0.647058823529412,0.647058823529412,0.647058823529412);
#366=MANIFOLD_SOLID_BREP('Part 3',#357);
#367=SHAPE_DEFINITION_REPRESENTATION(#648,#368);
#368=SHAPE_REPRESENTATION('Part 3',(#369),#643);
#369=AXIS2_PLACEMENT_3D('',#497,#405,#406);
#370=AXIS2_PLACEMENT_3D('',#498,#407,#408);
#371=AXIS2_PLACEMENT_3D('',#507,#413,#414);
#372=AXIS2_PLACEMENT_3D('',#508,#415,#416);
#373=AXIS2_PLACEMENT_3D('',#513,#418,#419);
#374=AXIS2_PLACEMENT_3D('',#517,#421,#422);
#375=AXIS2_PLACEMENT_3D('',#521,#424,#425);
#376=AXIS2_PLACEMENT_3D('',#525,#427,#428);
#377=AXIS2_PLACEMENT_3D('',#526,#429,#430);
#378=AXIS2_PLACEMENT_3D('',#527,#431,#432);
#379=AXIS2_PLACEMENT_3D('',#529,#433,#434);
#380=AXIS2_PLACEMENT_3D('',#534,#436,#437);
#381=AXIS2_PLACEMENT_3D('',#538,#439,#440);
#382=AXIS2_PLACEMENT_3D('',#542,#442,#443);
#383=AXIS2_PLACEMENT_3D('',#545,#445,#446);
#384=AXIS2_PLACEMENT_3D('',#554,#451,#452);
#385=AXIS2_PLACEMENT_3D('',#557,#455,#456);
#386=AXIS2_PLACEMENT_3D('',#616,#459,#460);
#387=AXIS2_PLACEMENT_3D('',#617,#461,#462);
#388=AXIS2_PLACEMENT_3D('',#618,#463,#464);
#389=AXIS2_PLACEMENT_3D('',#619,#465,#466);
#390=AXIS2_PLACEMENT_3D('',#621,#467,#468);
#391=AXIS2_PLACEMENT_3D('',#623,#469,#470);
#392=AXIS2_PLACEMENT_3D('',#624,#471,#472);
#393=AXIS2_PLACEMENT_3D('',#626,#473,#474);
#394=AXIS2_PLACEMENT_3D('',#627,#475,#476);
#395=AXIS2_PLACEMENT_3D('',#628,#477,#478);
#396=AXIS2_PLACEMENT_3D('',#629,#479,#480);
#397=AXIS2_PLACEMENT_3D('',#630,#481,#482);
#398=AXIS2_PLACEMENT_3D('',#632,#483,#484);
#399=AXIS2_PLACEMENT_3D('',#634,#485,#486);
#400=AXIS2_PLACEMENT_3D('',#635,#487,#488);
#401=AXIS2_PLACEMENT_3D('',#637,#489,#490);
#402=AXIS2_PLACEMENT_3D('',#638,#491,#492);
#403=AXIS2_PLACEMENT_3D('',#639,#493,#494);
#404=AXIS2_PLACEMENT_3D('',#641,#495,#496);
#405=DIRECTION('',(0.,0.,1.));
#406=DIRECTION('',(1.,0.,0.));
#407=DIRECTION('',(0.,-1.,0.));
#408=DIRECTION('',(1.,0.,0.));
#409=DIRECTION('',(0.,0.,1.));
#410=DIRECTION('',(1.,0.,0.));
#411=DIRECTION('',(0.,0.,1.));
#412=DIRECTION('',(1.,0.,0.));
#413=DIRECTION('',(-1.,0.,0.));
#414=DIRECTION('',(0.,0.,1.));
#415=DIRECTION('',(1.,0.,0.));
#416=DIRECTION('',(0.,0.,-1.));
#417=DIRECTION('',(-1.,0.,0.));
#418=DIRECTION('',(1.,0.,0.));
#419=DIRECTION('',(0.,0.,-1.));
#420=DIRECTION('',(-1.,0.,0.));
#421=DIRECTION('',(1.,0.,0.));
#422=DIRECTION('',(0.,0.,-1.));
#423=DIRECTION('',(-1.,0.,0.));
#424=DIRECTION('',(1.,0.,0.));
#425=DIRECTION('',(0.,0.,-1.));
#426=DIRECTION('',(-1.,0.,0.));
#427=DIRECTION('',(1.,0.,0.));
#428=DIRECTION('',(0.,0.,-1.));
#429=DIRECTION('',(-1.,0.,0.));
#430=DIRECTION('',(0.,0.,1.));
#431=DIRECTION('',(1.,0.,0.));
#432=DIRECTION('',(0.,0.,-1.));
#433=DIRECTION('',(1.,0.,0.));
#434=DIRECTION('',(0.,0.,-1.));
#435=DIRECTION('',(-1.,0.,0.));
#436=DIRECTION('',(1.,0.,0.));
#437=DIRECTION('',(0.,0.,-1.));
#438=DIRECTION('',(-1.,0.,0.));
#439=DIRECTION('',(1.,0.,0.));
#440=DIRECTION('',(0.,0.,-1.));
#441=DIRECTION('',(-1.,0.,0.));
#442=DIRECTION('',(1.,0.,0.));
#443=DIRECTION('',(0.,0.,-1.));
#444=DIRECTION('',(-1.,0.,0.));
#445=DIRECTION('',(0.,-1.,0.));
#446=DIRECTION('',(1.,0.,0.));
#447=DIRECTION('',(-1.,0.,0.));
#448=DIRECTION('',(0.,0.,1.));
#449=DIRECTION('',(-1.,0.,0.));
#450=DIRECTION('',(0.,0.,-1.));
#451=DIRECTION('',(1.3010426069826E-16,0.,-1.));
#452=DIRECTION('',(-1.,0.,-1.3010426069826E-16));
#453=DIRECTION('',(0.,-1.,0.));
#454=DIRECTION('',(0.,1.,0.));
#455=DIRECTION('',(0.,0.,-1.));
#456=DIRECTION('',(-1.,0.,0.));
#457=DIRECTION('',(0.,-1.,0.));
#458=DIRECTION('',(0.,1.,0.));
#459=DIRECTION('',(1.,0.,0.));
#460=DIRECTION('',(0.,0.,-1.));
#461=DIRECTION('',(1.,0.,0.));
#462=DIRECTION('',(0.,0.,-1.));
#463=DIRECTION('',(1.,0.,0.));
#464=DIRECTION('',(0.,0.,-1.));
#465=DIRECTION('',(1.,0.,0.));
#466=DIRECTION('',(0.,0.,-1.));
#467=DIRECTION('',(1.,0.,0.));
#468=DIRECTION('',(0.,0.,-1.));
#469=DIRECTION('',(-1.,0.,0.));
#470=DIRECTION('',(0.,-1.,0.));
#471=DIRECTION('',(-1.,0.,0.));
#472=DIRECTION('',(0.,0.,1.));
#473=DIRECTION('',(1.,0.,0.));
#474=DIRECTION('',(0.,0.,-1.));
#475=DIRECTION('',(-1.,0.,0.));
#476=DIRECTION('',(0.,0.,1.));
#477=DIRECTION('',(1.,0.,0.));
#478=DIRECTION('',(0.,0.,-1.));
#479=DIRECTION('',(1.,0.,0.));
#480=DIRECTION('',(0.,1.,0.));
#481=DIRECTION('',(1.,0.,0.));
#482=DIRECTION('',(0.,0.,-1.));
#483=DIRECTION('',(1.,0.,0.));
#484=DIRECTION('',(0.,0.,-1.));
#485=DIRECTION('',(1.,0.,0.));
#486=DIRECTION('',(0.,0.,-1.));
#487=DIRECTION('',(1.,0.,0.));
#488=DIRECTION('',(0.,0.,-1.));
#489=DIRECTION('',(1.,0.,0.));
#490=DIRECTION('',(0.,1.,0.));
#491=DIRECTION('',(1.,0.,0.));
#492=DIRECTION('',(0.,0.,-1.));
#493=DIRECTION('',(1.,0.,0.));
#494=DIRECTION('',(0.,0.,-1.));
#495=DIRECTION('',(1.,0.,0.));
#496=DIRECTION('',(0.,1.,0.));
#497=CARTESIAN_POINT('',(0.,0.,0.));
#498=CARTESIAN_POINT('',(0.262901,0.035,1.7347234759768E-18));
#499=CARTESIAN_POINT('',(0.2619,0.035,1.7347234759768E-18));
#500=CARTESIAN_POINT('',(0.2619,0.035,-0.00404566564175749));
#501=CARTESIAN_POINT('',(0.2619,0.035,0.00265974067683834));
#502=CARTESIAN_POINT('',(0.235421,0.035,-0.00404566564175749));
#503=CARTESIAN_POINT('',(0.242901,0.035,-0.00404566564175749));
#504=CARTESIAN_POINT('',(0.242901,0.035,-1.7347234759768E-18));
#505=CARTESIAN_POINT('',(0.242901,0.035,0.00265974067683834));
#506=CARTESIAN_POINT('',(0.241101,0.035,0.00265974067683834));
#507=CARTESIAN_POINT('',(0.1569,0.,1.5997384591947E-18));
#508=CARTESIAN_POINT('',(0.1439,0.,1.5997384591947E-18));
#509=CARTESIAN_POINT('',(0.1439,0.,-0.0261257116796207));
#510=CARTESIAN_POINT('',(0.1569,0.02502604265094,0.0075));
#511=CARTESIAN_POINT('',(0.2619,0.02502604265094,0.0075));
#512=CARTESIAN_POINT('',(0.242901,0.02502604265094,0.0075));
#513=CARTESIAN_POINT('',(0.2619,0.,1.5997384591947E-18));
#514=CARTESIAN_POINT('',(0.2619,-0.02502604265094,0.0075));
#515=CARTESIAN_POINT('',(0.1569,-0.02502604265094,0.0075));
#516=CARTESIAN_POINT('',(0.242901,-0.02502604265094,0.0075));
#517=CARTESIAN_POINT('',(0.242901,0.,1.5997384591947E-18));
#518=CARTESIAN_POINT('',(0.242901,-0.02502604265094,-0.0075));
#519=CARTESIAN_POINT('',(0.1569,-0.02502604265094,-0.0075));
#520=CARTESIAN_POINT('',(0.2619,-0.02502604265094,-0.0075));
#521=CARTESIAN_POINT('',(0.2619,0.,1.5997384591947E-18));
#522=CARTESIAN_POINT('',(0.2619,0.02502604265094,-0.0075));
#523=CARTESIAN_POINT('',(0.1569,0.02502604265094,-0.0075));
#524=CARTESIAN_POINT('',(0.242901,0.02502604265094,-0.0075));
#525=CARTESIAN_POINT('',(0.242901,0.,1.5997384591947E-18));
#526=CARTESIAN_POINT('',(0.3769,0.,2.02836483889627E-18));
#527=CARTESIAN_POINT('',(0.1569,0.,2.02836483889627E-18));
#528=CARTESIAN_POINT('',(0.1569,0.,-0.0311257116796208));
#529=CARTESIAN_POINT('',(0.2619,0.,2.02836483889627E-18));
#530=CARTESIAN_POINT('',(0.2619,0.0302086068457796,0.0075));
#531=CARTESIAN_POINT('',(0.2619,-0.0302086068457796,0.0075));
#532=CARTESIAN_POINT('',(0.3769,0.0302086068457796,0.0075));
#533=CARTESIAN_POINT('',(0.242901,0.0302086068457796,0.0075));
#534=CARTESIAN_POINT('',(0.242901,0.,2.02836483889627E-18));
#535=CARTESIAN_POINT('',(0.242901,0.0302086068457796,-0.0075));
#536=CARTESIAN_POINT('',(0.3769,0.0302086068457796,-0.0075));
#537=CARTESIAN_POINT('',(0.2619,0.0302086068457796,-0.0075));
#538=CARTESIAN_POINT('',(0.2619,0.,2.02836483889627E-18));
#539=CARTESIAN_POINT('',(0.2619,-0.0302086068457796,-0.0075));
#540=CARTESIAN_POINT('',(0.3769,-0.0302086068457796,-0.0075));
#541=CARTESIAN_POINT('',(0.242901,-0.0302086068457796,-0.0075));
#542=CARTESIAN_POINT('',(0.242901,0.,2.02836483889627E-18));
#543=CARTESIAN_POINT('',(0.242901,-0.0302086068457796,0.0075));
#544=CARTESIAN_POINT('',(0.3769,-0.0302086068457796,0.0075));
#545=CARTESIAN_POINT('',(0.262901,-0.035,-3.46944695195361E-18));
#546=CARTESIAN_POINT('',(0.285001,-0.035,-0.00248802709106605));
#547=CARTESIAN_POINT('',(0.2619,-0.035,-0.00248802709106605));
#548=CARTESIAN_POINT('',(0.242901,-0.035,-0.00248802709106605));
#549=CARTESIAN_POINT('',(0.2619,-0.035,-3.46944695195361E-18));
#550=CARTESIAN_POINT('',(0.2619,-0.035,0.00252394581786791));
#551=CARTESIAN_POINT('',(0.283801,-0.035,0.00252394581786791));
#552=CARTESIAN_POINT('',(0.242901,-0.035,0.00252394581786791));
#553=CARTESIAN_POINT('',(0.242901,-0.035,-3.46944695195361E-18));
#554=CARTESIAN_POINT('',(0.262901,-0.035,0.0075));
#555=CARTESIAN_POINT('',(0.2619,-0.035,0.0075));
#556=CARTESIAN_POINT('',(0.242901,-0.035,0.0075));
#557=CARTESIAN_POINT('',(0.262901,-0.035,-0.0075));
#558=CARTESIAN_POINT('',(0.2619,-0.035,-0.0075));
#559=CARTESIAN_POINT('',(0.242901,-0.035,-0.0075));
#560=CARTESIAN_POINT('',(0.2619,-0.0302086068457796,0.0075));
#561=CARTESIAN_POINT('',(0.242901,-0.0302086068457796,0.0075));
#562=CARTESIAN_POINT('',(0.2619,-0.0334028689485932,0.0075));
#563=CARTESIAN_POINT('',(0.242901,-0.0334028689485932,0.0075));
#564=CARTESIAN_POINT('',(0.2619,-0.035,0.00584131527262264));
#565=CARTESIAN_POINT('',(0.242901,-0.035,0.00584131527262264));
#566=CARTESIAN_POINT('',(0.2619,-0.035,0.00252394581786791));
#567=CARTESIAN_POINT('',(0.242901,-0.035,0.00252394581786791));
#568=CARTESIAN_POINT('',(0.2619,-0.0302086068457796,0.0075));
#569=CARTESIAN_POINT('',(0.2619,-0.035,0.0075));
#570=CARTESIAN_POINT('',(0.2619,-0.035,0.00252394581786791));
#571=CARTESIAN_POINT('',(0.242901,-0.0302086068457796,0.0075));
#572=CARTESIAN_POINT('',(0.242901,-0.035,0.0075));
#573=CARTESIAN_POINT('',(0.242901,-0.035,0.00252394581786791));
#574=CARTESIAN_POINT('',(0.2619,-0.0302086068457796,-0.0075));
#575=CARTESIAN_POINT('',(0.242901,-0.0302086068457796,-0.0075));
#576=CARTESIAN_POINT('',(0.2619,-0.0334028689485932,-0.0075));
#577=CARTESIAN_POINT('',(0.242901,-0.0334028689485932,-0.0075));
#578=CARTESIAN_POINT('',(0.2619,-0.035,-0.00582934236368868));
#579=CARTESIAN_POINT('',(0.242901,-0.035,-0.00582934236368868));
#580=CARTESIAN_POINT('',(0.2619,-0.035,-0.00248802709106605));
#581=CARTESIAN_POINT('',(0.242901,-0.035,-0.00248802709106605));
#582=CARTESIAN_POINT('',(0.2619,-0.0302086068457796,-0.0075));
#583=CARTESIAN_POINT('',(0.2619,-0.035,-0.0075));
#584=CARTESIAN_POINT('',(0.2619,-0.035,-0.00248802709106605));
#585=CARTESIAN_POINT('',(0.242901,-0.0302086068457796,-0.0075));
#586=CARTESIAN_POINT('',(0.242901,-0.035,-0.0075));
#587=CARTESIAN_POINT('',(0.242901,-0.035,-0.00248802709106605));
#588=CARTESIAN_POINT('',(0.242901,0.0302086068457796,0.0075));
#589=CARTESIAN_POINT('',(0.2619,0.0302086068457796,0.0075));
#590=CARTESIAN_POINT('',(0.242901,0.0334028689485932,0.0075));
#591=CARTESIAN_POINT('',(0.2619,0.0334028689485932,0.0075));
#592=CARTESIAN_POINT('',(0.242901,0.035,0.00588658022561278));
#593=CARTESIAN_POINT('',(0.2619,0.035,0.00588658022561278));
#594=CARTESIAN_POINT('',(0.242901,0.035,0.00265974067683834));
#595=CARTESIAN_POINT('',(0.2619,0.035,0.00265974067683834));
#596=CARTESIAN_POINT('',(0.2619,0.0302086068457796,0.0075));
#597=CARTESIAN_POINT('',(0.2619,0.035,0.0075));
#598=CARTESIAN_POINT('',(0.2619,0.035,0.00265974067683834));
#599=CARTESIAN_POINT('',(0.242901,0.0302086068457796,0.0075));
#600=CARTESIAN_POINT('',(0.242901,0.035,0.0075));
#601=CARTESIAN_POINT('',(0.242901,0.035,0.00265974067683834));
#602=CARTESIAN_POINT('',(0.242901,0.0302086068457796,-0.0075));
#603=CARTESIAN_POINT('',(0.2619,0.0302086068457796,-0.0075));
#604=CARTESIAN_POINT('',(0.242901,0.0334028689485932,-0.0075));
#605=CARTESIAN_POINT('',(0.2619,0.0334028689485932,-0.0075));
#606=CARTESIAN_POINT('',(0.242901,0.035,-0.00634855521391916));
#607=CARTESIAN_POINT('',(0.2619,0.035,-0.00634855521391916));
#608=CARTESIAN_POINT('',(0.242901,0.035,-0.00404566564175749));
#609=CARTESIAN_POINT('',(0.2619,0.035,-0.00404566564175749));
#610=CARTESIAN_POINT('',(0.2619,0.0302086068457796,-0.0075));
#611=CARTESIAN_POINT('',(0.2619,0.035,-0.0075));
#612=CARTESIAN_POINT('',(0.2619,0.035,-0.00404566564175749));
#613=CARTESIAN_POINT('',(0.242901,0.0302086068457796,-0.0075));
#614=CARTESIAN_POINT('',(0.242901,0.035,-0.0075));
#615=CARTESIAN_POINT('',(0.242901,0.035,-0.00404566564175749));
#616=CARTESIAN_POINT('',(0.242901,0.035,-1.7347234759768E-18));
#617=CARTESIAN_POINT('',(0.242901,-0.035,-3.46944695195361E-18));
#618=CARTESIAN_POINT('',(0.1569,0.,2.02836483889627E-18));
#619=CARTESIAN_POINT('',(0.145779385241572,0.,2.02836483889627E-18));
#620=CARTESIAN_POINT('',(0.145779385241572,0.,-0.0290781389208114));
#621=CARTESIAN_POINT('',(0.155020614758429,0.,2.02836483889627E-18));
#622=CARTESIAN_POINT('',(0.155020614758429,0.,-0.0324416713929693));
#623=CARTESIAN_POINT('',(0.1439,0.,0.));
#624=CARTESIAN_POINT('',(0.1439,0.,2.02836483889627E-18));
#625=CARTESIAN_POINT('',(0.1439,0.,0.0263940986341602));
#626=CARTESIAN_POINT('',(0.145779385241572,0.,2.02836483889627E-18));
#627=CARTESIAN_POINT('',(0.1569,0.,2.02836483889627E-18));
#628=CARTESIAN_POINT('',(0.242901,-0.035,-3.46944695195361E-18));
#629=CARTESIAN_POINT('',(0.2619,0.,3.46944695195361E-18));
#630=CARTESIAN_POINT('',(0.2619,0.031,-0.000692962482459577));
#631=CARTESIAN_POINT('',(0.2619,0.031,-0.00319296248245958));
#632=CARTESIAN_POINT('',(0.2619,-0.031,1.53080849893419E-19));
#633=CARTESIAN_POINT('',(0.2619,-0.031,-0.0025));
#634=CARTESIAN_POINT('',(0.2569,-0.031,1.53080849893419E-19));
#635=CARTESIAN_POINT('',(0.2569,-0.031,1.53080849893419E-19));
#636=CARTESIAN_POINT('',(0.2569,-0.031,-0.0025));
#637=CARTESIAN_POINT('',(0.2569,0.,0.));
#638=CARTESIAN_POINT('',(0.2569,0.031,-0.000692962482459577));
#639=CARTESIAN_POINT('',(0.2569,0.031,-0.000692962482459577));
#640=CARTESIAN_POINT('',(0.2569,0.031,-0.00319296248245958));
#641=CARTESIAN_POINT('',(0.2569,0.,0.));
#642=MECHANICAL_DESIGN_GEOMETRIC_PRESENTATION_REPRESENTATION('',(#358),
#643);
#643=(
GEOMETRIC_REPRESENTATION_CONTEXT(3)
GLOBAL_UNCERTAINTY_ASSIGNED_CONTEXT((#644))
GLOBAL_UNIT_ASSIGNED_CONTEXT((#647,#646,#645))
REPRESENTATION_CONTEXT('Part 3','TOP_LEVEL_ASSEMBLY_PART')
);
#644=UNCERTAINTY_MEASURE_WITH_UNIT(LENGTH_MEASURE(2.E-5),#647,
'DISTANCE_ACCURACY_VALUE','Maximum Tolerance applied to model');
#645=(
NAMED_UNIT(*)
SI_UNIT($,.STERADIAN.)
SOLID_ANGLE_UNIT()
);
#646=(
NAMED_UNIT(*)
PLANE_ANGLE_UNIT()
SI_UNIT($,.RADIAN.)
);
#647=(
LENGTH_UNIT()
NAMED_UNIT(*)
SI_UNIT($,.METRE.)
);
#648=PRODUCT_DEFINITION_SHAPE('','',#649);
#649=PRODUCT_DEFINITION('','',#651,#650);
#650=PRODUCT_DEFINITION_CONTEXT('',#657,'design');
#651=PRODUCT_DEFINITION_FORMATION_WITH_SPECIFIED_SOURCE('','',#653,
 .NOT_KNOWN.);
#652=PRODUCT_RELATED_PRODUCT_CATEGORY('','',(#653));
#653=PRODUCT('Part 3','Part 3','Part 3',(#655));
#654=PRODUCT_CATEGORY('','');
#655=PRODUCT_CONTEXT('',#657,'mechanical');
#656=APPLICATION_PROTOCOL_DEFINITION('international standard',
'ap242_managed_model_based_3d_engineering',2020,#657);
#657=APPLICATION_CONTEXT('managed model based 3d engineering');
ENDSEC;
END-ISO-10303-21;
