ISO-10303-21;
HEADER;
/* Generated by software containing ST-Developer
 * from STEP Tools, Inc. (www.steptools.com) 
 */
/* OPTION: using custom renumber hook */

FILE_DESCRIPTION(
/* description */ ('STEP AP242 Edition 2',
'CAx-IF Rec.Pracs.---Representation and Presentation of Product Manufa
cturing Information (PMI)---4.0---2014-10-13',
'CAx-IF Rec.Pracs.---3D Tessellated Geometry---0.4---2014-09-14','2;1',
'CAx-IF Rec.Pracs.---User Defined Attributes---1.5---2016-08-15'),
/* implementation_level */ '2;1');

FILE_NAME(
/* name */ 'Part Studio 1 - Part 1',
/* time_stamp */ '2026-09-25T23:53:05Z',
/* author */ (''),
/* organization */ (''),
/* preprocessor_version */ 'ST-DEVELOPER v20',
/* originating_system */ 'ONSHAPE BY PTC INC, 1.221',
/* authorisation */ '  ');

FILE_SCHEMA (('AP242_MANAGED_MODEL_BASED_3D_ENGINEERING_MIM_LF { 1 0 10303 442 3 1 4 }'));
ENDSEC;

DATA;
#10=SHAPE_REPRESENTATION_RELATIONSHIP('','',#607,#11);
#11=ADVANCED_BREP_SHAPE_REPRESENTATION('',(#605),#1042);
#12=CONICAL_SURFACE('',#622,0.02,0.48091828);
#13=CONICAL_SURFACE('',#625,0.015,0.0523598775598298);
#14=CONICAL_SURFACE('',#638,0.0191236362975236,0.610865238198015);
#15=PLANE('',#617);
#16=PLANE('',#619);
#17=PLANE('',#620);
#18=PLANE('',#621);
#19=PLANE('',#635);
#20=PLANE('',#637);
#21=PLANE('',#644);
#22=PLANE('',#645);
#23=PLANE('',#646);
#24=PLANE('',#647);
#25=PLANE('',#648);
#26=PLANE('',#651);
#27=PLANE('',#652);
#28=PLANE('',#653);
#29=PLANE('',#654);
#30=PLANE('',#655);
#31=PLANE('',#656);
#32=PLANE('',#657);
#33=PLANE('',#658);
#34=PLANE('',#659);
#35=PLANE('',#664);
#36=PLANE('',#667);
#37=LINE('',#864,#79);
#38=LINE('',#868,#80);
#39=LINE('',#872,#81);
#40=LINE('',#875,#82);
#41=LINE('',#877,#83);
#42=LINE('',#879,#84);
#43=LINE('',#881,#85);
#44=LINE('',#884,#86);
#45=LINE('',#886,#87);
#46=LINE('',#893,#88);
#47=LINE('',#900,#89);
#48=LINE('',#902,#90);
#49=LINE('',#904,#91);
#50=LINE('',#906,#92);
#51=LINE('',#908,#93);
#52=LINE('',#915,#94);
#53=LINE('',#922,#95);
#54=LINE('',#924,#96);
#55=LINE('',#926,#97);
#56=LINE('',#928,#98);
#57=LINE('',#935,#99);
#58=LINE('',#942,#100);
#59=LINE('',#974,#101);
#60=LINE('',#975,#102);
#61=LINE('',#988,#103);
#62=LINE('',#990,#104);
#63=LINE('',#992,#105);
#64=LINE('',#993,#106);
#65=LINE('',#995,#107);
#66=LINE('',#1003,#108);
#67=LINE('',#1005,#109);
#68=LINE('',#1007,#110);
#69=LINE('',#1009,#111);
#70=LINE('',#1011,#112);
#71=LINE('',#1014,#113);
#72=LINE('',#1017,#114);
#73=LINE('',#1018,#115);
#74=LINE('',#1020,#116);
#75=LINE('',#1022,#117);
#76=LINE('',#1024,#118);
#77=LINE('',#1026,#119);
#78=LINE('',#1028,#120);
#79=VECTOR('',#684,1.);
#80=VECTOR('',#687,1.);
#81=VECTOR('',#692,1.);
#82=VECTOR('',#693,1.);
#83=VECTOR('',#694,1.);
#84=VECTOR('',#695,1.);
#85=VECTOR('',#698,1.);
#86=VECTOR('',#699,1.);
#87=VECTOR('',#700,1.);
#88=VECTOR('',#701,1.);
#89=VECTOR('',#702,1.);
#90=VECTOR('',#703,1.);
#91=VECTOR('',#706,1.);
#92=VECTOR('',#707,1.);
#93=VECTOR('',#708,1.);
#94=VECTOR('',#709,1.);
#95=VECTOR('',#710,1.);
#96=VECTOR('',#713,1.);
#97=VECTOR('',#714,1.);
#98=VECTOR('',#715,1.);
#99=VECTOR('',#716,1.);
#100=VECTOR('',#717,1.);
#101=VECTOR('',#748,1.);
#102=VECTOR('',#749,1.);
#103=VECTOR('',#768,1.);
#104=VECTOR('',#771,1.);
#105=VECTOR('',#772,1.);
#106=VECTOR('',#773,1.);
#107=VECTOR('',#774,1.);
#108=VECTOR('',#785,1.);
#109=VECTOR('',#786,1.);
#110=VECTOR('',#787,1.);
#111=VECTOR('',#790,1.);
#112=VECTOR('',#793,1.);
#113=VECTOR('',#798,1.);
#114=VECTOR('',#799,1.);
#115=VECTOR('',#800,1.);
#116=VECTOR('',#803,1.);
#117=VECTOR('',#804,1.);
#118=VECTOR('',#805,1.);
#119=VECTOR('',#808,1.);
#120=VECTOR('',#811,1.);
#121=B_SPLINE_CURVE_WITH_KNOTS('',3,(#834,#835,#836,#837,#838,#839,#840,
#841,#842,#843,#844,#845,#846,#847,#848,#849,#850,#851,#852),
 .UNSPECIFIED.,.T.,.F.,(1,1,1,1,1,1,1,1,1,1,1,1,1,1,1,1,1,1,1,1,1,1,1),
(-0.0047382804686165,-0.00315885364574433,-0.00157942682287217,1.05566924713169E-20,
0.00157942682287217,0.00315885364574433,0.0047382804686165,0.00631770729148867,
0.00789713411436083,0.009476560937233,0.0110559877601052,0.0126354145829773,
0.0142148414058495,0.0157942682287217,0.0173736950515938,0.018953121874466,
0.0205325486973382,0.0221119755202103,0.0236914023430825,0.0252708291659547,
0.0268502559888268,0.028429682811699,0.0300091096345712),.UNSPECIFIED.);
#122=B_SPLINE_CURVE_WITH_KNOTS('',3,(#888,#889,#890,#891),.UNSPECIFIED.,
 .F.,.F.,(4,4),(0.0258905909750135,0.0359257024739811),.UNSPECIFIED.);
#123=B_SPLINE_CURVE_WITH_KNOTS('',3,(#895,#896,#897,#898),.UNSPECIFIED.,
 .F.,.F.,(4,4),(0.0259294364290534,0.0359643719963851),.UNSPECIFIED.);
#124=B_SPLINE_CURVE_WITH_KNOTS('',3,(#910,#911,#912,#913),.UNSPECIFIED.,
 .F.,.F.,(4,4),(0.0262334429366832,0.0362669571898651),.UNSPECIFIED.);
#125=B_SPLINE_CURVE_WITH_KNOTS('',3,(#917,#918,#919,#920),.UNSPECIFIED.,
 .F.,.F.,(4,4),(0.0262681575364398,0.036301547088592),.UNSPECIFIED.);
#126=B_SPLINE_CURVE_WITH_KNOTS('',3,(#930,#931,#932,#933),.UNSPECIFIED.,
 .F.,.F.,(4,4),(0.0259294364290534,0.0359643719963851),.UNSPECIFIED.);
#127=B_SPLINE_CURVE_WITH_KNOTS('',3,(#937,#938,#939,#940),.UNSPECIFIED.,
 .F.,.F.,(4,4),(0.0258905909750135,0.0359257024739811),.UNSPECIFIED.);
#128=B_SPLINE_CURVE_WITH_KNOTS('',3,(#951,#952,#953,#954),.UNSPECIFIED.,
 .F.,.F.,(4,4),(0.0262681575364398,0.036301547088592),.UNSPECIFIED.);
#129=B_SPLINE_CURVE_WITH_KNOTS('',3,(#959,#960,#961,#962),.UNSPECIFIED.,
 .F.,.F.,(4,4),(0.0262334429366832,0.0362669571898651),.UNSPECIFIED.);
#130=ORIENTED_EDGE('',*,*,#286,.T.);
#131=ORIENTED_EDGE('',*,*,#287,.T.);
#132=ORIENTED_EDGE('',*,*,#288,.F.);
#133=ORIENTED_EDGE('',*,*,#289,.F.);
#134=ORIENTED_EDGE('',*,*,#290,.T.);
#135=ORIENTED_EDGE('',*,*,#291,.F.);
#136=ORIENTED_EDGE('',*,*,#292,.T.);
#137=ORIENTED_EDGE('',*,*,#293,.T.);
#138=ORIENTED_EDGE('',*,*,#294,.F.);
#139=ORIENTED_EDGE('',*,*,#295,.T.);
#140=ORIENTED_EDGE('',*,*,#296,.T.);
#141=ORIENTED_EDGE('',*,*,#297,.T.);
#142=ORIENTED_EDGE('',*,*,#298,.F.);
#143=ORIENTED_EDGE('',*,*,#299,.F.);
#144=ORIENTED_EDGE('',*,*,#300,.F.);
#145=ORIENTED_EDGE('',*,*,#301,.F.);
#146=ORIENTED_EDGE('',*,*,#302,.F.);
#147=ORIENTED_EDGE('',*,*,#303,.F.);
#148=ORIENTED_EDGE('',*,*,#304,.F.);
#149=ORIENTED_EDGE('',*,*,#305,.F.);
#150=ORIENTED_EDGE('',*,*,#306,.F.);
#151=ORIENTED_EDGE('',*,*,#307,.T.);
#152=ORIENTED_EDGE('',*,*,#308,.F.);
#153=ORIENTED_EDGE('',*,*,#309,.F.);
#154=ORIENTED_EDGE('',*,*,#310,.F.);
#155=ORIENTED_EDGE('',*,*,#311,.F.);
#156=ORIENTED_EDGE('',*,*,#312,.F.);
#157=ORIENTED_EDGE('',*,*,#313,.F.);
#158=ORIENTED_EDGE('',*,*,#314,.F.);
#159=ORIENTED_EDGE('',*,*,#301,.T.);
#160=ORIENTED_EDGE('',*,*,#309,.T.);
#161=ORIENTED_EDGE('',*,*,#315,.T.);
#162=ORIENTED_EDGE('',*,*,#316,.F.);
#163=ORIENTED_EDGE('',*,*,#317,.T.);
#164=ORIENTED_EDGE('',*,*,#318,.T.);
#165=ORIENTED_EDGE('',*,*,#319,.T.);
#166=ORIENTED_EDGE('',*,*,#320,.T.);
#167=ORIENTED_EDGE('',*,*,#321,.T.);
#168=ORIENTED_EDGE('',*,*,#322,.T.);
#169=ORIENTED_EDGE('',*,*,#323,.F.);
#170=ORIENTED_EDGE('',*,*,#324,.F.);
#171=ORIENTED_EDGE('',*,*,#325,.F.);
#172=ORIENTED_EDGE('',*,*,#326,.F.);
#173=ORIENTED_EDGE('',*,*,#327,.F.);
#174=ORIENTED_EDGE('',*,*,#328,.F.);
#175=ORIENTED_EDGE('',*,*,#318,.F.);
#176=ORIENTED_EDGE('',*,*,#329,.F.);
#177=ORIENTED_EDGE('',*,*,#320,.F.);
#178=ORIENTED_EDGE('',*,*,#330,.F.);
#179=ORIENTED_EDGE('',*,*,#311,.T.);
#180=ORIENTED_EDGE('',*,*,#331,.F.);
#181=ORIENTED_EDGE('',*,*,#313,.T.);
#182=ORIENTED_EDGE('',*,*,#332,.F.);
#183=ORIENTED_EDGE('',*,*,#303,.T.);
#184=ORIENTED_EDGE('',*,*,#333,.F.);
#185=ORIENTED_EDGE('',*,*,#305,.T.);
#186=ORIENTED_EDGE('',*,*,#334,.F.);
#187=ORIENTED_EDGE('',*,*,#335,.F.);
#188=ORIENTED_EDGE('',*,*,#336,.F.);
#189=ORIENTED_EDGE('',*,*,#306,.T.);
#190=ORIENTED_EDGE('',*,*,#333,.T.);
#191=ORIENTED_EDGE('',*,*,#302,.T.);
#192=ORIENTED_EDGE('',*,*,#314,.T.);
#193=ORIENTED_EDGE('',*,*,#331,.T.);
#194=ORIENTED_EDGE('',*,*,#310,.T.);
#195=ORIENTED_EDGE('',*,*,#321,.F.);
#196=ORIENTED_EDGE('',*,*,#329,.T.);
#197=ORIENTED_EDGE('',*,*,#317,.F.);
#198=ORIENTED_EDGE('',*,*,#337,.F.);
#199=ORIENTED_EDGE('',*,*,#326,.T.);
#200=ORIENTED_EDGE('',*,*,#324,.T.);
#201=ORIENTED_EDGE('',*,*,#322,.F.);
#202=ORIENTED_EDGE('',*,*,#335,.T.);
#203=ORIENTED_EDGE('',*,*,#338,.F.);
#204=ORIENTED_EDGE('',*,*,#339,.T.);
#205=ORIENTED_EDGE('',*,*,#295,.F.);
#206=ORIENTED_EDGE('',*,*,#340,.F.);
#207=ORIENTED_EDGE('',*,*,#338,.T.);
#208=ORIENTED_EDGE('',*,*,#339,.F.);
#209=ORIENTED_EDGE('',*,*,#340,.T.);
#210=ORIENTED_EDGE('',*,*,#286,.F.);
#211=ORIENTED_EDGE('',*,*,#334,.T.);
#212=ORIENTED_EDGE('',*,*,#304,.T.);
#213=ORIENTED_EDGE('',*,*,#332,.T.);
#214=ORIENTED_EDGE('',*,*,#312,.T.);
#215=ORIENTED_EDGE('',*,*,#330,.T.);
#216=ORIENTED_EDGE('',*,*,#319,.F.);
#217=ORIENTED_EDGE('',*,*,#328,.T.);
#218=ORIENTED_EDGE('',*,*,#341,.F.);
#219=ORIENTED_EDGE('',*,*,#316,.T.);
#220=ORIENTED_EDGE('',*,*,#342,.T.);
#221=ORIENTED_EDGE('',*,*,#343,.T.);
#222=ORIENTED_EDGE('',*,*,#296,.F.);
#223=ORIENTED_EDGE('',*,*,#344,.F.);
#224=ORIENTED_EDGE('',*,*,#345,.T.);
#225=ORIENTED_EDGE('',*,*,#307,.F.);
#226=ORIENTED_EDGE('',*,*,#336,.T.);
#227=ORIENTED_EDGE('',*,*,#325,.T.);
#228=ORIENTED_EDGE('',*,*,#341,.T.);
#229=ORIENTED_EDGE('',*,*,#327,.T.);
#230=ORIENTED_EDGE('',*,*,#337,.T.);
#231=ORIENTED_EDGE('',*,*,#323,.T.);
#232=ORIENTED_EDGE('',*,*,#290,.F.);
#233=ORIENTED_EDGE('',*,*,#346,.F.);
#234=ORIENTED_EDGE('',*,*,#347,.F.);
#235=ORIENTED_EDGE('',*,*,#289,.T.);
#236=ORIENTED_EDGE('',*,*,#288,.T.);
#237=ORIENTED_EDGE('',*,*,#300,.T.);
#238=ORIENTED_EDGE('',*,*,#345,.F.);
#239=ORIENTED_EDGE('',*,*,#348,.T.);
#240=ORIENTED_EDGE('',*,*,#349,.T.);
#241=ORIENTED_EDGE('',*,*,#350,.F.);
#242=ORIENTED_EDGE('',*,*,#342,.F.);
#243=ORIENTED_EDGE('',*,*,#315,.F.);
#244=ORIENTED_EDGE('',*,*,#308,.T.);
#245=ORIENTED_EDGE('',*,*,#299,.T.);
#246=ORIENTED_EDGE('',*,*,#351,.F.);
#247=ORIENTED_EDGE('',*,*,#348,.F.);
#248=ORIENTED_EDGE('',*,*,#344,.T.);
#249=ORIENTED_EDGE('',*,*,#298,.T.);
#250=ORIENTED_EDGE('',*,*,#352,.F.);
#251=ORIENTED_EDGE('',*,*,#349,.F.);
#252=ORIENTED_EDGE('',*,*,#351,.T.);
#253=ORIENTED_EDGE('',*,*,#297,.F.);
#254=ORIENTED_EDGE('',*,*,#343,.F.);
#255=ORIENTED_EDGE('',*,*,#350,.T.);
#256=ORIENTED_EDGE('',*,*,#352,.T.);
#257=ORIENTED_EDGE('',*,*,#353,.F.);
#258=ORIENTED_EDGE('',*,*,#354,.F.);
#259=ORIENTED_EDGE('',*,*,#292,.F.);
#260=ORIENTED_EDGE('',*,*,#355,.T.);
#261=ORIENTED_EDGE('',*,*,#356,.T.);
#262=ORIENTED_EDGE('',*,*,#357,.T.);
#263=ORIENTED_EDGE('',*,*,#358,.F.);
#264=ORIENTED_EDGE('',*,*,#294,.T.);
#265=ORIENTED_EDGE('',*,*,#358,.T.);
#266=ORIENTED_EDGE('',*,*,#359,.T.);
#267=ORIENTED_EDGE('',*,*,#355,.F.);
#268=ORIENTED_EDGE('',*,*,#291,.T.);
#269=ORIENTED_EDGE('',*,*,#360,.F.);
#270=ORIENTED_EDGE('',*,*,#356,.F.);
#271=ORIENTED_EDGE('',*,*,#293,.F.);
#272=ORIENTED_EDGE('',*,*,#354,.T.);
#273=ORIENTED_EDGE('',*,*,#361,.F.);
#274=ORIENTED_EDGE('',*,*,#359,.F.);
#275=ORIENTED_EDGE('',*,*,#357,.F.);
#276=ORIENTED_EDGE('',*,*,#360,.T.);
#277=ORIENTED_EDGE('',*,*,#353,.T.);
#278=ORIENTED_EDGE('',*,*,#361,.T.);
#279=ORIENTED_EDGE('',*,*,#287,.F.);
#280=ORIENTED_EDGE('',*,*,#362,.F.);
#281=ORIENTED_EDGE('',*,*,#347,.T.);
#282=ORIENTED_EDGE('',*,*,#362,.T.);
#283=ORIENTED_EDGE('',*,*,#363,.F.);
#284=ORIENTED_EDGE('',*,*,#346,.T.);
#285=ORIENTED_EDGE('',*,*,#363,.T.);
#286=EDGE_CURVE('',#364,#364,#422,.T.);
#287=EDGE_CURVE('',#365,#365,#121,.T.);
#288=EDGE_CURVE('',#366,#366,#423,.F.);
#289=EDGE_CURVE('',#367,#367,#424,.T.);
#290=EDGE_CURVE('',#368,#368,#425,.T.);
#291=EDGE_CURVE('',#369,#370,#426,.T.);
#292=EDGE_CURVE('',#369,#371,#37,.T.);
#293=EDGE_CURVE('',#371,#372,#427,.T.);
#294=EDGE_CURVE('',#370,#372,#38,.T.);
#295=EDGE_CURVE('',#373,#373,#428,.T.);
#296=EDGE_CURVE('',#374,#375,#39,.T.);
#297=EDGE_CURVE('',#375,#376,#40,.T.);
#298=EDGE_CURVE('',#377,#376,#41,.T.);
#299=EDGE_CURVE('',#374,#377,#42,.T.);
#300=EDGE_CURVE('',#378,#379,#43,.T.);
#301=EDGE_CURVE('',#380,#378,#44,.T.);
#302=EDGE_CURVE('',#381,#380,#45,.T.);
#303=EDGE_CURVE('',#382,#381,#122,.T.);
#304=EDGE_CURVE('',#383,#382,#46,.T.);
#305=EDGE_CURVE('',#384,#383,#123,.T.);
#306=EDGE_CURVE('',#385,#384,#47,.T.);
#307=EDGE_CURVE('',#385,#379,#48,.T.);
#308=EDGE_CURVE('',#386,#378,#49,.T.);
#309=EDGE_CURVE('',#387,#386,#50,.T.);
#310=EDGE_CURVE('',#388,#387,#51,.T.);
#311=EDGE_CURVE('',#389,#388,#124,.T.);
#312=EDGE_CURVE('',#390,#389,#52,.T.);
#313=EDGE_CURVE('',#391,#390,#125,.T.);
#314=EDGE_CURVE('',#380,#391,#53,.T.);
#315=EDGE_CURVE('',#386,#392,#54,.T.);
#316=EDGE_CURVE('',#393,#392,#55,.T.);
#317=EDGE_CURVE('',#393,#394,#56,.T.);
#318=EDGE_CURVE('',#394,#395,#126,.T.);
#319=EDGE_CURVE('',#395,#396,#57,.T.);
#320=EDGE_CURVE('',#396,#397,#127,.T.);
#321=EDGE_CURVE('',#397,#387,#58,.T.);
#322=EDGE_CURVE('',#398,#398,#429,.T.);
#323=EDGE_CURVE('',#399,#399,#430,.T.);
#324=EDGE_CURVE('',#400,#400,#431,.T.);
#325=EDGE_CURVE('',#401,#402,#128,.T.);
#326=EDGE_CURVE('',#403,#401,#432,.T.);
#327=EDGE_CURVE('',#404,#403,#129,.T.);
#328=EDGE_CURVE('',#395,#404,#433,.T.);
#329=EDGE_CURVE('',#397,#394,#434,.T.);
#330=EDGE_CURVE('',#389,#396,#435,.T.);
#331=EDGE_CURVE('',#391,#388,#436,.T.);
#332=EDGE_CURVE('',#382,#390,#437,.T.);
#333=EDGE_CURVE('',#384,#381,#438,.T.);
#334=EDGE_CURVE('',#402,#383,#439,.T.);
#335=EDGE_CURVE('',#405,#405,#440,.T.);
#336=EDGE_CURVE('',#385,#401,#59,.T.);
#337=EDGE_CURVE('',#403,#393,#60,.T.);
#338=EDGE_CURVE('',#406,#406,#441,.T.);
#339=EDGE_CURVE('',#407,#407,#442,.T.);
#340=EDGE_CURVE('',#408,#408,#443,.T.);
#341=EDGE_CURVE('',#402,#404,#61,.T.);
#342=EDGE_CURVE('',#392,#409,#62,.T.);
#343=EDGE_CURVE('',#409,#375,#63,.T.);
#344=EDGE_CURVE('',#410,#374,#64,.T.);
#345=EDGE_CURVE('',#410,#379,#65,.T.);
#346=EDGE_CURVE('',#411,#411,#444,.T.);
#347=EDGE_CURVE('',#412,#412,#445,.T.);
#348=EDGE_CURVE('',#410,#413,#66,.T.);
#349=EDGE_CURVE('',#413,#414,#67,.T.);
#350=EDGE_CURVE('',#409,#414,#68,.T.);
#351=EDGE_CURVE('',#413,#377,#69,.T.);
#352=EDGE_CURVE('',#414,#376,#70,.T.);
#353=EDGE_CURVE('',#415,#416,#71,.T.);
#354=EDGE_CURVE('',#371,#415,#72,.T.);
#355=EDGE_CURVE('',#369,#416,#73,.T.);
#356=EDGE_CURVE('',#372,#417,#74,.T.);
#357=EDGE_CURVE('',#417,#418,#75,.T.);
#358=EDGE_CURVE('',#370,#418,#76,.T.);
#359=EDGE_CURVE('',#418,#416,#77,.T.);
#360=EDGE_CURVE('',#417,#415,#78,.T.);
#361=EDGE_CURVE('',#419,#419,#446,.T.);
#362=EDGE_CURVE('',#420,#420,#447,.T.);
#363=EDGE_CURVE('',#421,#421,#448,.T.);
#364=VERTEX_POINT('',#833);
#365=VERTEX_POINT('',#853);
#366=VERTEX_POINT('',#855);
#367=VERTEX_POINT('',#858);
#368=VERTEX_POINT('',#860);
#369=VERTEX_POINT('',#862);
#370=VERTEX_POINT('',#863);
#371=VERTEX_POINT('',#865);
#372=VERTEX_POINT('',#867);
#373=VERTEX_POINT('',#871);
#374=VERTEX_POINT('',#873);
#375=VERTEX_POINT('',#874);
#376=VERTEX_POINT('',#876);
#377=VERTEX_POINT('',#878);
#378=VERTEX_POINT('',#882);
#379=VERTEX_POINT('',#883);
#380=VERTEX_POINT('',#885);
#381=VERTEX_POINT('',#887);
#382=VERTEX_POINT('',#892);
#383=VERTEX_POINT('',#894);
#384=VERTEX_POINT('',#899);
#385=VERTEX_POINT('',#901);
#386=VERTEX_POINT('',#905);
#387=VERTEX_POINT('',#907);
#388=VERTEX_POINT('',#909);
#389=VERTEX_POINT('',#914);
#390=VERTEX_POINT('',#916);
#391=VERTEX_POINT('',#921);
#392=VERTEX_POINT('',#925);
#393=VERTEX_POINT('',#927);
#394=VERTEX_POINT('',#929);
#395=VERTEX_POINT('',#934);
#396=VERTEX_POINT('',#936);
#397=VERTEX_POINT('',#941);
#398=VERTEX_POINT('',#945);
#399=VERTEX_POINT('',#947);
#400=VERTEX_POINT('',#950);
#401=VERTEX_POINT('',#955);
#402=VERTEX_POINT('',#956);
#403=VERTEX_POINT('',#958);
#404=VERTEX_POINT('',#963);
#405=VERTEX_POINT('',#973);
#406=VERTEX_POINT('',#979);
#407=VERTEX_POINT('',#982);
#408=VERTEX_POINT('',#985);
#409=VERTEX_POINT('',#991);
#410=VERTEX_POINT('',#994);
#411=VERTEX_POINT('',#999);
#412=VERTEX_POINT('',#1001);
#413=VERTEX_POINT('',#1004);
#414=VERTEX_POINT('',#1006);
#415=VERTEX_POINT('',#1015);
#416=VERTEX_POINT('',#1016);
#417=VERTEX_POINT('',#1021);
#418=VERTEX_POINT('',#1023);
#419=VERTEX_POINT('',#1031);
#420=VERTEX_POINT('',#1035);
#421=VERTEX_POINT('',#1039);
#422=CIRCLE('',#610,0.01);
#423=CIRCLE('',#611,0.01);
#424=CIRCLE('',#613,0.0176822248775298);
#425=CIRCLE('',#614,0.0176822248775298);
#426=CIRCLE('',#615,0.0176822248775298);
#427=CIRCLE('',#616,0.0176822248775298);
#428=CIRCLE('',#618,0.0211232490305514);
#429=CIRCLE('',#623,0.02);
#430=CIRCLE('',#624,0.0173911071530626);
#431=CIRCLE('',#626,0.0199787390318889);
#432=CIRCLE('',#627,0.0152096311171322);
#433=CIRCLE('',#628,0.0157337089099626);
#434=CIRCLE('',#629,0.0152096311171322);
#435=CIRCLE('',#630,0.0157337089099626);
#436=CIRCLE('',#631,0.0152096311171322);
#437=CIRCLE('',#632,0.0157337089099626);
#438=CIRCLE('',#633,0.0152096311171322);
#439=CIRCLE('',#634,0.0157337089099626);
#440=CIRCLE('',#636,0.0191236362975236);
#441=CIRCLE('',#639,0.0261257116796207);
#442=CIRCLE('',#641,0.0211232490305514);
#443=CIRCLE('',#643,0.0261257116796207);
#444=CIRCLE('',#649,0.0017);
#445=CIRCLE('',#650,0.0017);
#446=CIRCLE('',#660,0.004);
#447=CIRCLE('',#663,0.0017);
#448=CIRCLE('',#666,0.0017);
#449=EDGE_LOOP('',(#130));
#450=EDGE_LOOP('',(#131));
#451=EDGE_LOOP('',(#132));
#452=EDGE_LOOP('',(#133));
#453=EDGE_LOOP('',(#134));
#454=EDGE_LOOP('',(#135,#136,#137,#138));
#455=EDGE_LOOP('',(#139));
#456=EDGE_LOOP('',(#140,#141,#142,#143));
#457=EDGE_LOOP('',(#144,#145,#146,#147,#148,#149,#150,#151));
#458=EDGE_LOOP('',(#152,#153,#154,#155,#156,#157,#158,#159));
#459=EDGE_LOOP('',(#160,#161,#162,#163,#164,#165,#166,#167));
#460=EDGE_LOOP('',(#168));
#461=EDGE_LOOP('',(#169));
#462=EDGE_LOOP('',(#170));
#463=EDGE_LOOP('',(#171,#172,#173,#174,#175,#176,#177,#178,#179,#180,#181,
#182,#183,#184,#185,#186));
#464=EDGE_LOOP('',(#187));
#465=EDGE_LOOP('',(#188,#189,#190,#191,#192,#193,#194,#195,#196,#197,#198,
#199));
#466=EDGE_LOOP('',(#200));
#467=EDGE_LOOP('',(#201));
#468=EDGE_LOOP('',(#202));
#469=EDGE_LOOP('',(#203));
#470=EDGE_LOOP('',(#204));
#471=EDGE_LOOP('',(#205));
#472=EDGE_LOOP('',(#206));
#473=EDGE_LOOP('',(#207));
#474=EDGE_LOOP('',(#208));
#475=EDGE_LOOP('',(#209));
#476=EDGE_LOOP('',(#210));
#477=EDGE_LOOP('',(#211,#212,#213,#214,#215,#216,#217,#218));
#478=EDGE_LOOP('',(#219,#220,#221,#222,#223,#224,#225,#226,#227,#228,#229,
#230));
#479=EDGE_LOOP('',(#231));
#480=EDGE_LOOP('',(#232));
#481=EDGE_LOOP('',(#233));
#482=EDGE_LOOP('',(#234));
#483=EDGE_LOOP('',(#235));
#484=EDGE_LOOP('',(#236));
#485=EDGE_LOOP('',(#237,#238,#239,#240,#241,#242,#243,#244));
#486=EDGE_LOOP('',(#245,#246,#247,#248));
#487=EDGE_LOOP('',(#249,#250,#251,#252));
#488=EDGE_LOOP('',(#253,#254,#255,#256));
#489=EDGE_LOOP('',(#257,#258,#259,#260));
#490=EDGE_LOOP('',(#261,#262,#263,#264));
#491=EDGE_LOOP('',(#265,#266,#267,#268));
#492=EDGE_LOOP('',(#269,#270,#271,#272));
#493=EDGE_LOOP('',(#273));
#494=EDGE_LOOP('',(#274,#275,#276,#277));
#495=EDGE_LOOP('',(#278));
#496=EDGE_LOOP('',(#279));
#497=EDGE_LOOP('',(#280));
#498=EDGE_LOOP('',(#281));
#499=EDGE_LOOP('',(#282));
#500=EDGE_LOOP('',(#283));
#501=EDGE_LOOP('',(#284));
#502=EDGE_LOOP('',(#285));
#503=FACE_BOUND('',#449,.T.);
#504=FACE_BOUND('',#450,.T.);
#505=FACE_BOUND('',#451,.T.);
#506=FACE_BOUND('',#452,.T.);
#507=FACE_BOUND('',#453,.T.);
#508=FACE_BOUND('',#454,.T.);
#509=FACE_BOUND('',#455,.T.);
#510=FACE_BOUND('',#456,.T.);
#511=FACE_BOUND('',#457,.T.);
#512=FACE_BOUND('',#458,.T.);
#513=FACE_BOUND('',#459,.T.);
#514=FACE_BOUND('',#460,.T.);
#515=FACE_BOUND('',#461,.T.);
#516=FACE_BOUND('',#462,.T.);
#517=FACE_BOUND('',#463,.T.);
#518=FACE_BOUND('',#464,.T.);
#519=FACE_BOUND('',#465,.T.);
#520=FACE_BOUND('',#466,.T.);
#521=FACE_BOUND('',#467,.T.);
#522=FACE_BOUND('',#468,.T.);
#523=FACE_BOUND('',#469,.T.);
#524=FACE_BOUND('',#470,.T.);
#525=FACE_BOUND('',#471,.T.);
#526=FACE_BOUND('',#472,.T.);
#527=FACE_BOUND('',#473,.T.);
#528=FACE_BOUND('',#474,.T.);
#529=FACE_BOUND('',#475,.T.);
#530=FACE_BOUND('',#476,.T.);
#531=FACE_BOUND('',#477,.T.);
#532=FACE_BOUND('',#478,.T.);
#533=FACE_BOUND('',#479,.T.);
#534=FACE_BOUND('',#480,.T.);
#535=FACE_BOUND('',#481,.T.);
#536=FACE_BOUND('',#482,.T.);
#537=FACE_BOUND('',#483,.T.);
#538=FACE_BOUND('',#484,.T.);
#539=FACE_BOUND('',#485,.T.);
#540=FACE_BOUND('',#486,.T.);
#541=FACE_BOUND('',#487,.T.);
#542=FACE_BOUND('',#488,.T.);
#543=FACE_BOUND('',#489,.T.);
#544=FACE_BOUND('',#490,.T.);
#545=FACE_BOUND('',#491,.T.);
#546=FACE_BOUND('',#492,.T.);
#547=FACE_BOUND('',#493,.T.);
#548=FACE_BOUND('',#494,.T.);
#549=FACE_BOUND('',#495,.T.);
#550=FACE_BOUND('',#496,.T.);
#551=FACE_BOUND('',#497,.T.);
#552=FACE_BOUND('',#498,.T.);
#553=FACE_BOUND('',#499,.T.);
#554=FACE_BOUND('',#500,.T.);
#555=FACE_BOUND('',#501,.T.);
#556=FACE_BOUND('',#502,.T.);
#557=CYLINDRICAL_SURFACE('',#609,0.01);
#558=CYLINDRICAL_SURFACE('',#612,0.0176822248775298);
#559=CYLINDRICAL_SURFACE('',#640,0.0211232490305514);
#560=CYLINDRICAL_SURFACE('',#642,0.0261257116796207);
#561=CYLINDRICAL_SURFACE('',#661,0.004);
#562=CYLINDRICAL_SURFACE('',#662,0.0017);
#563=CYLINDRICAL_SURFACE('',#665,0.0017);
#564=ADVANCED_FACE('',(#503,#504,#505),#557,.F.);
#565=ADVANCED_FACE('',(#506,#507,#508),#558,.T.);
#566=ADVANCED_FACE('',(#509,#510),#15,.T.);
#567=ADVANCED_FACE('',(#511),#16,.F.);
#568=ADVANCED_FACE('',(#512),#17,.F.);
#569=ADVANCED_FACE('',(#513),#18,.T.);
#570=ADVANCED_FACE('',(#514,#515),#12,.T.);
#571=ADVANCED_FACE('',(#516,#517),#13,.T.);
#572=ADVANCED_FACE('',(#518,#519),#19,.F.);
#573=ADVANCED_FACE('',(#520,#521),#20,.F.);
#574=ADVANCED_FACE('',(#522,#523),#14,.T.);
#575=ADVANCED_FACE('',(#524,#525),#559,.F.);
#576=ADVANCED_FACE('',(#526,#527),#560,.T.);
#577=ADVANCED_FACE('',(#528,#529),#21,.T.);
#578=ADVANCED_FACE('',(#530,#531),#22,.T.);
#579=ADVANCED_FACE('',(#532),#23,.T.);
#580=ADVANCED_FACE('',(#533,#534),#24,.F.);
#581=ADVANCED_FACE('',(#535,#536,#537,#538),#25,.T.);
#582=ADVANCED_FACE('',(#539),#26,.T.);
#583=ADVANCED_FACE('',(#540),#27,.F.);
#584=ADVANCED_FACE('',(#541),#28,.F.);
#585=ADVANCED_FACE('',(#542),#29,.T.);
#586=ADVANCED_FACE('',(#543),#30,.T.);
#587=ADVANCED_FACE('',(#544),#31,.F.);
#588=ADVANCED_FACE('',(#545),#32,.F.);
#589=ADVANCED_FACE('',(#546),#33,.T.);
#590=ADVANCED_FACE('',(#547,#548),#34,.F.);
#591=ADVANCED_FACE('',(#549,#550),#561,.F.);
#592=ADVANCED_FACE('',(#551,#552),#562,.T.);
#593=ADVANCED_FACE('',(#553),#35,.T.);
#594=ADVANCED_FACE('',(#554,#555),#563,.T.);
#595=ADVANCED_FACE('',(#556),#36,.T.);
#596=CLOSED_SHELL('',(#564,#565,#566,#567,#568,#569,#570,#571,#572,#573,
#574,#575,#576,#577,#578,#579,#580,#581,#582,#583,#584,#585,#586,#587,#588,
#589,#590,#591,#592,#593,#594,#595));
#597=STYLED_ITEM('',(#598),#605);
#598=PRESENTATION_STYLE_ASSIGNMENT((#599));
#599=SURFACE_STYLE_USAGE(.BOTH.,#600);
#600=SURFACE_SIDE_STYLE('',(#601));
#601=SURFACE_STYLE_FILL_AREA(#602);
#602=FILL_AREA_STYLE('',(#603));
#603=FILL_AREA_STYLE_COLOUR('',#604);
#604=COLOUR_RGB('',0.615686274509804,0.811764705882353,0.929411764705882);
#605=MANIFOLD_SOLID_BREP('Part 1',#596);
#606=SHAPE_DEFINITION_REPRESENTATION(#1047,#607);
#607=SHAPE_REPRESENTATION('Part 1',(#608),#1042);
#608=AXIS2_PLACEMENT_3D('',#830,#668,#669);
#609=AXIS2_PLACEMENT_3D('',#831,#670,#671);
#610=AXIS2_PLACEMENT_3D('',#832,#672,#673);
#611=AXIS2_PLACEMENT_3D('',#854,#674,#675);
#612=AXIS2_PLACEMENT_3D('',#856,#676,#677);
#613=AXIS2_PLACEMENT_3D('',#857,#678,#679);
#614=AXIS2_PLACEMENT_3D('',#859,#680,#681);
#615=AXIS2_PLACEMENT_3D('',#861,#682,#683);
#616=AXIS2_PLACEMENT_3D('',#866,#685,#686);
#617=AXIS2_PLACEMENT_3D('',#869,#688,#689);
#618=AXIS2_PLACEMENT_3D('',#870,#690,#691);
#619=AXIS2_PLACEMENT_3D('',#880,#696,#697);
#620=AXIS2_PLACEMENT_3D('',#903,#704,#705);
#621=AXIS2_PLACEMENT_3D('',#923,#711,#712);
#622=AXIS2_PLACEMENT_3D('',#943,#718,#719);
#623=AXIS2_PLACEMENT_3D('',#944,#720,#721);
#624=AXIS2_PLACEMENT_3D('',#946,#722,#723);
#625=AXIS2_PLACEMENT_3D('',#948,#724,#725);
#626=AXIS2_PLACEMENT_3D('',#949,#726,#727);
#627=AXIS2_PLACEMENT_3D('',#957,#728,#729);
#628=AXIS2_PLACEMENT_3D('',#964,#730,#731);
#629=AXIS2_PLACEMENT_3D('',#965,#732,#733);
#630=AXIS2_PLACEMENT_3D('',#966,#734,#735);
#631=AXIS2_PLACEMENT_3D('',#967,#736,#737);
#632=AXIS2_PLACEMENT_3D('',#968,#738,#739);
#633=AXIS2_PLACEMENT_3D('',#969,#740,#741);
#634=AXIS2_PLACEMENT_3D('',#970,#742,#743);
#635=AXIS2_PLACEMENT_3D('',#971,#744,#745);
#636=AXIS2_PLACEMENT_3D('',#972,#746,#747);
#637=AXIS2_PLACEMENT_3D('',#976,#750,#751);
#638=AXIS2_PLACEMENT_3D('',#977,#752,#753);
#639=AXIS2_PLACEMENT_3D('',#978,#754,#755);
#640=AXIS2_PLACEMENT_3D('',#980,#756,#757);
#641=AXIS2_PLACEMENT_3D('',#981,#758,#759);
#642=AXIS2_PLACEMENT_3D('',#983,#760,#761);
#643=AXIS2_PLACEMENT_3D('',#984,#762,#763);
#644=AXIS2_PLACEMENT_3D('',#986,#764,#765);
#645=AXIS2_PLACEMENT_3D('',#987,#766,#767);
#646=AXIS2_PLACEMENT_3D('',#989,#769,#770);
#647=AXIS2_PLACEMENT_3D('',#996,#775,#776);
#648=AXIS2_PLACEMENT_3D('',#997,#777,#778);
#649=AXIS2_PLACEMENT_3D('',#998,#779,#780);
#650=AXIS2_PLACEMENT_3D('',#1000,#781,#782);
#651=AXIS2_PLACEMENT_3D('',#1002,#783,#784);
#652=AXIS2_PLACEMENT_3D('',#1008,#788,#789);
#653=AXIS2_PLACEMENT_3D('',#1010,#791,#792);
#654=AXIS2_PLACEMENT_3D('',#1012,#794,#795);
#655=AXIS2_PLACEMENT_3D('',#1013,#796,#797);
#656=AXIS2_PLACEMENT_3D('',#1019,#801,#802);
#657=AXIS2_PLACEMENT_3D('',#1025,#806,#807);
#658=AXIS2_PLACEMENT_3D('',#1027,#809,#810);
#659=AXIS2_PLACEMENT_3D('',#1029,#812,#813);
#660=AXIS2_PLACEMENT_3D('',#1030,#814,#815);
#661=AXIS2_PLACEMENT_3D('',#1032,#816,#817);
#662=AXIS2_PLACEMENT_3D('',#1033,#818,#819);
#663=AXIS2_PLACEMENT_3D('',#1034,#820,#821);
#664=AXIS2_PLACEMENT_3D('',#1036,#822,#823);
#665=AXIS2_PLACEMENT_3D('',#1037,#824,#825);
#666=AXIS2_PLACEMENT_3D('',#1038,#826,#827);
#667=AXIS2_PLACEMENT_3D('',#1040,#828,#829);
#668=DIRECTION('',(0.,0.,1.));
#669=DIRECTION('',(1.,0.,0.));
#670=DIRECTION('',(-1.,0.,0.));
#671=DIRECTION('',(0.,-1.22464679914735E-16,-1.));
#672=DIRECTION('',(1.,0.,0.));
#673=DIRECTION('',(0.,1.22464679914735E-16,1.));
#674=DIRECTION('',(-1.,0.,0.));
#675=DIRECTION('',(0.,-1.22464679914735E-16,-1.));
#676=DIRECTION('',(1.,0.,0.));
#677=DIRECTION('',(0.,1.22464679914735E-16,1.));
#678=DIRECTION('',(-1.,0.,0.));
#679=DIRECTION('',(0.,-1.22464679914735E-16,-1.));
#680=DIRECTION('',(-1.,0.,0.));
#681=DIRECTION('',(0.,-1.22464679914735E-16,-1.));
#682=DIRECTION('',(1.,0.,0.));
#683=DIRECTION('',(0.,1.22464679914735E-16,1.));
#684=DIRECTION('',(1.,0.,0.));
#685=DIRECTION('',(1.,-5.78241158658936E-17,7.08141184086922E-33));
#686=DIRECTION('',(-5.78241158658936E-17,-1.,1.22464679914735E-16));
#687=DIRECTION('',(1.,0.,0.));
#688=DIRECTION('',(1.,0.,0.));
#689=DIRECTION('',(0.,-1.,1.22464679914735E-16));
#690=DIRECTION('',(1.,0.,0.));
#691=DIRECTION('',(0.,1.22464679914735E-16,1.));
#692=DIRECTION('',(0.,1.,-1.22464679914735E-16));
#693=DIRECTION('',(0.,-1.22464679914735E-16,-1.));
#694=DIRECTION('',(0.,1.,-1.22464679914735E-16));
#695=DIRECTION('',(0.,-1.22464679914735E-16,-1.));
#696=DIRECTION('',(0.,-1.,1.22464679914735E-16));
#697=DIRECTION('',(0.,-1.22464679914735E-16,-1.));
#698=DIRECTION('',(0.,1.22464679914735E-16,1.));
#699=DIRECTION('',(1.,0.,0.));
#700=DIRECTION('',(0.,-1.22464679914735E-16,-1.));
#701=DIRECTION('',(0.,-1.22464679914735E-16,-1.));
#702=DIRECTION('',(0.,-1.22464679914735E-16,-1.));
#703=DIRECTION('',(1.,0.,0.));
#704=DIRECTION('',(0.,-1.22464679914735E-16,-1.));
#705=DIRECTION('',(1.,0.,0.));
#706=DIRECTION('',(0.,-1.,1.22464679914735E-16));
#707=DIRECTION('',(1.,0.,0.));
#708=DIRECTION('',(0.,1.,-1.22464679914735E-16));
#709=DIRECTION('',(0.,1.,-1.22464679914735E-16));
#710=DIRECTION('',(0.,1.,-1.22464679914735E-16));
#711=DIRECTION('',(0.,-1.,1.22464679914735E-16));
#712=DIRECTION('',(0.,-1.22464679914735E-16,-1.));
#713=DIRECTION('',(0.,1.22464679914735E-16,1.));
#714=DIRECTION('',(1.,0.,0.));
#715=DIRECTION('',(0.,-1.22464679914735E-16,-1.));
#716=DIRECTION('',(0.,-1.22464679914735E-16,-1.));
#717=DIRECTION('',(0.,-1.22464679914735E-16,-1.));
#718=DIRECTION('',(1.,0.,0.));
#719=DIRECTION('',(0.,-1.22464679914735E-16,-1.));
#720=DIRECTION('',(-1.,0.,0.));
#721=DIRECTION('',(0.,-1.22464679914735E-16,-1.));
#722=DIRECTION('',(-1.,0.,0.));
#723=DIRECTION('',(0.,-1.22464679914735E-16,-1.));
#724=DIRECTION('',(-1.,0.,0.));
#725=DIRECTION('',(0.,1.22464679914735E-16,1.));
#726=DIRECTION('',(-1.,0.,0.));
#727=DIRECTION('',(0.,-1.22464679914735E-16,-1.));
#728=DIRECTION('',(1.,0.,0.));
#729=DIRECTION('',(0.,1.22464679914735E-16,1.));
#730=DIRECTION('',(1.,0.,0.));
#731=DIRECTION('',(0.,1.22464679914735E-16,1.));
#732=DIRECTION('',(1.,0.,0.));
#733=DIRECTION('',(0.,1.22464679914735E-16,1.));
#734=DIRECTION('',(1.,0.,0.));
#735=DIRECTION('',(0.,1.22464679914735E-16,1.));
#736=DIRECTION('',(1.,0.,0.));
#737=DIRECTION('',(0.,1.22464679914735E-16,1.));
#738=DIRECTION('',(1.,0.,0.));
#739=DIRECTION('',(0.,1.22464679914735E-16,1.));
#740=DIRECTION('',(1.,0.,0.));
#741=DIRECTION('',(0.,1.22464679914735E-16,1.));
#742=DIRECTION('',(1.,0.,0.));
#743=DIRECTION('',(0.,1.22464679914735E-16,1.));
#744=DIRECTION('',(1.,0.,0.));
#745=DIRECTION('',(0.,-1.,1.22464679914735E-16));
#746=DIRECTION('',(1.,0.,0.));
#747=DIRECTION('',(0.,1.22464679914735E-16,1.));
#748=DIRECTION('',(0.,1.,-1.22464679914735E-16));
#749=DIRECTION('',(0.,1.,-1.22464679914735E-16));
#750=DIRECTION('',(-1.,0.,0.));
#751=DIRECTION('',(0.,1.,-1.22464679914735E-16));
#752=DIRECTION('',(1.,0.,0.));
#753=DIRECTION('',(0.,1.22464679914735E-16,1.));
#754=DIRECTION('',(1.,0.,0.));
#755=DIRECTION('',(0.,1.22464679914735E-16,1.));
#756=DIRECTION('',(-1.,0.,0.));
#757=DIRECTION('',(0.,-1.22464679914735E-16,-1.));
#758=DIRECTION('',(1.,0.,0.));
#759=DIRECTION('',(0.,1.22464679914735E-16,1.));
#760=DIRECTION('',(-1.,0.,0.));
#761=DIRECTION('',(0.,-1.22464679914735E-16,-1.));
#762=DIRECTION('',(1.,0.,0.));
#763=DIRECTION('',(0.,1.22464679914735E-16,1.));
#764=DIRECTION('',(1.,0.,0.));
#765=DIRECTION('',(0.,-1.,1.22464679914735E-16));
#766=DIRECTION('',(1.,0.,0.));
#767=DIRECTION('',(0.,-1.,1.22464679914735E-16));
#768=DIRECTION('',(0.,1.,-1.22464679914735E-16));
#769=DIRECTION('',(0.,-1.22464679914735E-16,-1.));
#770=DIRECTION('',(1.,0.,0.));
#771=DIRECTION('',(0.,1.,-1.22464679914735E-16));
#772=DIRECTION('',(1.,0.,0.));
#773=DIRECTION('',(1.,0.,0.));
#774=DIRECTION('',(0.,1.,-1.22464679914735E-16));
#775=DIRECTION('',(-1.,0.,0.));
#776=DIRECTION('',(0.,1.,-1.22464679914735E-16));
#777=DIRECTION('',(-1.,0.,0.));
#778=DIRECTION('',(0.,1.,-1.22464679914735E-16));
#779=DIRECTION('',(-1.,0.,0.));
#780=DIRECTION('',(0.,-1.22464679914735E-16,-1.));
#781=DIRECTION('',(-1.,0.,0.));
#782=DIRECTION('',(0.,-1.22464679914735E-16,-1.));
#783=DIRECTION('',(1.,0.,0.));
#784=DIRECTION('',(0.,-1.,1.22464679914735E-16));
#785=DIRECTION('',(0.,-1.22464679914735E-16,-1.));
#786=DIRECTION('',(0.,1.,-1.22464679914735E-16));
#787=DIRECTION('',(0.,-1.22464679914735E-16,-1.));
#788=DIRECTION('',(0.,-1.,1.22464679914735E-16));
#789=DIRECTION('',(0.,-1.22464679914735E-16,-1.));
#790=DIRECTION('',(1.,0.,0.));
#791=DIRECTION('',(0.,-1.22464679914735E-16,-1.));
#792=DIRECTION('',(1.,0.,0.));
#793=DIRECTION('',(1.,0.,0.));
#794=DIRECTION('',(0.,-1.,1.22464679914735E-16));
#795=DIRECTION('',(0.,-1.22464679914735E-16,-1.));
#796=DIRECTION('',(0.,1.,-1.22464679914735E-16));
#797=DIRECTION('',(0.,1.22464679914735E-16,1.));
#798=DIRECTION('',(-1.,0.,0.));
#799=DIRECTION('',(0.,1.22464679914735E-16,1.));
#800=DIRECTION('',(0.,1.22464679914735E-16,1.));
#801=DIRECTION('',(-1.44560289664734E-16,1.,-1.22464679914735E-16));
#802=DIRECTION('',(1.,1.44560289664734E-16,-1.7703529602173E-32));
#803=DIRECTION('',(0.,1.22464679914735E-16,1.));
#804=DIRECTION('',(-1.,-1.44560289664734E-16,1.7703529602173E-32));
#805=DIRECTION('',(0.,1.22464679914735E-16,1.));
#806=DIRECTION('',(1.,0.,0.));
#807=DIRECTION('',(0.,1.22464679914735E-16,1.));
#808=DIRECTION('',(0.,1.,-1.22464679914735E-16));
#809=DIRECTION('',(1.,-5.78241158658936E-17,7.08141184086922E-33));
#810=DIRECTION('',(-5.78241158658936E-17,-1.,1.22464679914735E-16));
#811=DIRECTION('',(5.78241158658936E-17,1.,-1.22464679914735E-16));
#812=DIRECTION('',(0.,-1.22464679914735E-16,-1.));
#813=DIRECTION('',(1.,0.,0.));
#814=DIRECTION('',(0.,1.22464679914735E-16,1.));
#815=DIRECTION('',(-1.,0.,0.));
#816=DIRECTION('',(0.,1.22464679914735E-16,1.));
#817=DIRECTION('',(-1.,0.,0.));
#818=DIRECTION('',(1.,0.,0.));
#819=DIRECTION('',(0.,1.22464679914735E-16,1.));
#820=DIRECTION('',(-1.,0.,0.));
#821=DIRECTION('',(0.,-1.22464679914735E-16,-1.));
#822=DIRECTION('',(-1.,0.,0.));
#823=DIRECTION('',(0.,1.,-1.22464679914735E-16));
#824=DIRECTION('',(1.,0.,0.));
#825=DIRECTION('',(0.,1.22464679914735E-16,1.));
#826=DIRECTION('',(-1.,0.,0.));
#827=DIRECTION('',(0.,-1.22464679914735E-16,-1.));
#828=DIRECTION('',(-1.,0.,0.));
#829=DIRECTION('',(0.,1.,-1.22464679914735E-16));
#830=CARTESIAN_POINT('',(0.,0.,0.));
#831=CARTESIAN_POINT('',(0.0969,-7.49879891330929E-35,-6.12323399573677E-19));
#832=CARTESIAN_POINT('',(0.0869,-7.49879891330929E-35,-6.12323399573677E-19));
#833=CARTESIAN_POINT('',(0.0869,1.22464679914735E-18,0.01));
#834=CARTESIAN_POINT('',(-0.0131793779500382,0.00158768965642718,0.00991116910801631));
#835=CARTESIAN_POINT('',(-0.0135020448873853,-1.44268366558702E-7,0.0100443976522534));
#836=CARTESIAN_POINT('',(-0.0131795792792841,-0.00158711258296094,0.00991124028296997));
#837=CARTESIAN_POINT('',(-0.0122925824427646,-0.00290144338421025,0.00959332669220775));
#838=CARTESIAN_POINT('',(-0.0109812855428546,-0.00378417907038755,0.00926351336319529));
#839=CARTESIAN_POINT('',(-0.00940045516338038,-0.00410722819348026,0.0091162441683912));
#840=CARTESIAN_POINT('',(-0.00781113526979954,-0.00378689285018498,0.00926242498257811));
#841=CARTESIAN_POINT('',(-0.00649553959557174,-0.00290078288697015,0.00959363054923618));
#842=CARTESIAN_POINT('',(-0.00561006004823152,-0.00158731531297423,0.00991103224926294));
#843=CARTESIAN_POINT('',(-0.00528756351640956,-4.81461655281341E-6,0.0100441735313136));
#844=CARTESIAN_POINT('',(-0.00560683556238135,0.00158169257274217,0.00991226846652871));
#845=CARTESIAN_POINT('',(-0.00649504193797161,0.00290078645016999,0.0095936906893322));
#846=CARTESIAN_POINT('',(-0.00780882575262235,0.0037849793788554,0.0092631667380478));
#847=CARTESIAN_POINT('',(-0.00939142875166601,0.00410705577534688,0.00911632466894001));
#848=CARTESIAN_POINT('',(-0.0109771037192317,0.0037867925195197,0.00926244510794451));
#849=CARTESIAN_POINT('',(-0.0122923035526288,0.0029020189339111,0.00959320638107495));
#850=CARTESIAN_POINT('',(-0.0131793779500382,0.00158768965642718,0.00991116910801631));
#851=CARTESIAN_POINT('',(-0.0135020448873853,-1.44268366558702E-7,0.0100443976522534));
#852=CARTESIAN_POINT('',(-0.0131795792792841,-0.00158711258296094,0.00991124028296997));
#853=CARTESIAN_POINT('',(-0.0133945227964773,1.23552539239814E-18,0.01));
#854=CARTESIAN_POINT('',(-0.0191,-7.49879891330929E-35,-6.12323399573677E-19));
#855=CARTESIAN_POINT('',(-0.0191,-1.22464679914735E-18,-0.01));
#856=CARTESIAN_POINT('',(-0.0091,-1.32595448696511E-34,-1.08272400490353E-18));
#857=CARTESIAN_POINT('',(-0.0191,-1.32595448696511E-34,-1.08272400490353E-18));
#858=CARTESIAN_POINT('',(-0.0191,-2.16544800980706E-18,-0.0176822248775298));
#859=CARTESIAN_POINT('',(0.000900000000000012,-1.32595448696511E-34,-1.08272400490353E-18));
#860=CARTESIAN_POINT('',(0.000900000000000012,-2.16544800980706E-18,-0.0176822248775298));
#861=CARTESIAN_POINT('',(-0.0153945227964773,-1.32595448696511E-34,-1.08272400490353E-18));
#862=CARTESIAN_POINT('',(-0.0153945227964773,0.0075,0.0160128409915147));
#863=CARTESIAN_POINT('',(-0.0153945227964773,-0.0075,0.0160128409915147));
#864=CARTESIAN_POINT('',(-0.0091,0.0075,0.0160128409915147));
#865=CARTESIAN_POINT('',(-0.00339452279647727,0.0075,0.0160128409915147));
#866=CARTESIAN_POINT('',(-0.00339452279647727,-1.32595448696511E-34,-1.08272400490353E-18));
#867=CARTESIAN_POINT('',(-0.00339452279647727,-0.0075,0.0160128409915147));
#868=CARTESIAN_POINT('',(-0.0091,-0.0075,0.0160128409915147));
#869=CARTESIAN_POINT('',(0.1069,0.,0.));
#870=CARTESIAN_POINT('',(0.1069,-4.0802447757529E-34,-3.33177270262228E-18));
#871=CARTESIAN_POINT('',(0.1069,2.58685193128572E-18,0.0211232490305514));
#872=CARTESIAN_POINT('',(0.1069,1.45713191611297E-18,0.0118983850456105));
#873=CARTESIAN_POINT('',(0.1069,-0.0140851094999516,0.0118983850456105));
#874=CARTESIAN_POINT('',(0.1069,0.0140851094999517,0.0118983850456105));
#875=CARTESIAN_POINT('',(0.1069,0.0140851094999516,-0.00025));
#876=CARTESIAN_POINT('',(0.1069,0.0140851094999516,-0.0123983850456105));
#877=CARTESIAN_POINT('',(0.1069,0.0130851094999516,-0.0123983850456105));
#878=CARTESIAN_POINT('',(0.1069,-0.0140851094999517,-0.0123983850456105));
#879=CARTESIAN_POINT('',(0.1069,-0.0140851094999516,-0.00025));
#880=CARTESIAN_POINT('',(0.0869,-0.0120851094999516,1.47999906664611E-18));
#881=CARTESIAN_POINT('',(0.098,-0.0120851094999516,1.47999906664611E-18));
#882=CARTESIAN_POINT('',(0.098,-0.0120851094999517,-0.0118983850456105));
#883=CARTESIAN_POINT('',(0.098,-0.0120851094999516,0.0118983850456105));
#884=CARTESIAN_POINT('',(0.0869,-0.0120851094999517,-0.0118983850456105));
#885=CARTESIAN_POINT('',(0.0969,-0.0120851094999517,-0.0118983850456105));
#886=CARTESIAN_POINT('',(0.0969,-0.0120851094999516,1.47999906664611E-18));
#887=CARTESIAN_POINT('',(0.0969,-0.0120851094999517,-0.0092348799176499));
#888=CARTESIAN_POINT('',(0.0869,-0.0120851094999516,-0.0100747071638643));
#889=CARTESIAN_POINT('',(0.0902339050590721,-0.0120851094999516,-0.00980184226943265));
#890=CARTESIAN_POINT('',(0.0935673441196327,-0.0120851094999516,-0.00952253606396119));
#891=CARTESIAN_POINT('',(0.0969,-0.0120851094999516,-0.00923487991764991));
#892=CARTESIAN_POINT('',(0.0869,-0.0120851094999517,-0.0100747071638641));
#893=CARTESIAN_POINT('',(0.0869,-0.0120851094999516,1.47999906664611E-18));
#894=CARTESIAN_POINT('',(0.0869,-0.0120851094999516,0.0100747071638641));
#895=CARTESIAN_POINT('',(0.0969,-0.0120851094999516,0.00923487991764991));
#896=CARTESIAN_POINT('',(0.0935672894327399,-0.0120851094999516,0.00952254078422677));
#897=CARTESIAN_POINT('',(0.0902338951024637,-0.0120851094999516,0.00980184308433536));
#898=CARTESIAN_POINT('',(0.0869,-0.0120851094999516,0.0100747071638641));
#899=CARTESIAN_POINT('',(0.0969,-0.0120851094999516,0.0092348799176499));
#900=CARTESIAN_POINT('',(0.0969,-0.0120851094999516,1.47999906664611E-18));
#901=CARTESIAN_POINT('',(0.0969,-0.0120851094999516,0.0118983850456105));
#902=CARTESIAN_POINT('',(0.0869,-0.0120851094999516,0.0118983850456105));
#903=CARTESIAN_POINT('',(0.0869,-1.45713191611297E-18,-0.0118983850456105));
#904=CARTESIAN_POINT('',(0.098,-1.45713191611297E-18,-0.0118983850456105));
#905=CARTESIAN_POINT('',(0.098,0.0120851094999516,-0.0118983850456105));
#906=CARTESIAN_POINT('',(0.0869,0.0120851094999516,-0.0118983850456105));
#907=CARTESIAN_POINT('',(0.0969,0.0120851094999516,-0.0118983850456105));
#908=CARTESIAN_POINT('',(0.0969,-1.45713191611297E-18,-0.0118983850456105));
#909=CARTESIAN_POINT('',(0.0969,0.0094742446678153,-0.0118983850456105));
#910=CARTESIAN_POINT('',(0.0869,0.010294563097569,-0.0118983850456105));
#911=CARTESIAN_POINT('',(0.0902338415480893,0.0100275307318948,-0.0118983850456105));
#912=CARTESIAN_POINT('',(0.0935672641101935,0.00975463997505771,-0.0118983850456105));
#913=CARTESIAN_POINT('',(0.0969,0.00947424466781529,-0.0118983850456105));
#914=CARTESIAN_POINT('',(0.0869,0.0102945630975689,-0.0118983850456105));
#915=CARTESIAN_POINT('',(0.0869,-1.45713191611297E-18,-0.0118983850456105));
#916=CARTESIAN_POINT('',(0.0869,-0.0102945630975689,-0.0118983850456105));
#917=CARTESIAN_POINT('',(0.0969,-0.0094742446678153,-0.0118983850456105));
#918=CARTESIAN_POINT('',(0.0935672090154104,-0.0097546446103841,-0.0118983850456105));
#919=CARTESIAN_POINT('',(0.0902338319510786,-0.0100275315005913,-0.0118983850456105));
#920=CARTESIAN_POINT('',(0.0869,-0.0102945630975689,-0.0118983850456105));
#921=CARTESIAN_POINT('',(0.0969,-0.0094742446678153,-0.0118983850456105));
#922=CARTESIAN_POINT('',(0.0969,-1.45713191611297E-18,-0.0118983850456105));
#923=CARTESIAN_POINT('',(0.0869,0.0120851094999516,-1.47999906664611E-18));
#924=CARTESIAN_POINT('',(0.098,0.0120851094999516,-1.47999906664611E-18));
#925=CARTESIAN_POINT('',(0.098,0.0120851094999517,0.0118983850456105));
#926=CARTESIAN_POINT('',(0.0869,0.0120851094999517,0.0118983850456105));
#927=CARTESIAN_POINT('',(0.0969,0.0120851094999517,0.0118983850456105));
#928=CARTESIAN_POINT('',(0.0969,0.0120851094999516,-1.47999906664611E-18));
#929=CARTESIAN_POINT('',(0.0969,0.0120851094999517,0.00923487991764989));
#930=CARTESIAN_POINT('',(0.0969,0.0120851094999516,0.00923487991764991));
#931=CARTESIAN_POINT('',(0.0935672894327399,0.0120851094999516,0.00952254078422677));
#932=CARTESIAN_POINT('',(0.0902338951024637,0.0120851094999516,0.00980184308433536));
#933=CARTESIAN_POINT('',(0.0869,0.0120851094999516,0.0100747071638641));
#934=CARTESIAN_POINT('',(0.0869,0.0120851094999517,0.0100747071638641));
#935=CARTESIAN_POINT('',(0.0869,0.0120851094999516,-1.47999906664611E-18));
#936=CARTESIAN_POINT('',(0.0869,0.0120851094999516,-0.0100747071638641));
#937=CARTESIAN_POINT('',(0.0869,0.0120851094999516,-0.0100747071638643));
#938=CARTESIAN_POINT('',(0.0902339050590721,0.0120851094999516,-0.00980184226943265));
#939=CARTESIAN_POINT('',(0.0935673441196327,0.0120851094999516,-0.0095225360639612));
#940=CARTESIAN_POINT('',(0.0969,0.0120851094999516,-0.00923487991764992));
#941=CARTESIAN_POINT('',(0.0969,0.0120851094999516,-0.0092348799176499));
#942=CARTESIAN_POINT('',(0.0969,0.0120851094999516,-1.47999906664611E-18));
#943=CARTESIAN_POINT('',(0.0059,-1.49975978266186E-34,-1.22464679914735E-18));
#944=CARTESIAN_POINT('',(0.0059,-1.49975978266186E-34,-1.22464679914735E-18));
#945=CARTESIAN_POINT('',(0.0059,-2.4492935982947E-18,-0.02));
#946=CARTESIAN_POINT('',(0.000900000000000012,-1.49975978266186E-34,-1.22464679914735E-18));
#947=CARTESIAN_POINT('',(0.000900000000000012,-2.12979637086267E-18,-0.0173911071530626));
#948=CARTESIAN_POINT('',(0.1009,-1.12481983699639E-34,-9.18485099360515E-19));
#949=CARTESIAN_POINT('',(0.0059,-1.12481983699639E-34,-9.18485099360515E-19));
#950=CARTESIAN_POINT('',(0.0059,-2.4466898806403E-18,-0.0199787390318889));
#951=CARTESIAN_POINT('',(0.0969,-0.00947424466781529,0.0118983850456105));
#952=CARTESIAN_POINT('',(0.0935672090154104,-0.0097546446103841,0.0118983850456105));
#953=CARTESIAN_POINT('',(0.0902338319510786,-0.0100275315005912,0.0118983850456105));
#954=CARTESIAN_POINT('',(0.0869,-0.0102945630975689,0.0118983850456105));
#955=CARTESIAN_POINT('',(0.0969,-0.00947424466781529,0.0118983850456105));
#956=CARTESIAN_POINT('',(0.0869,-0.0102945630975689,0.0118983850456105));
#957=CARTESIAN_POINT('',(0.0969,-1.12481983699639E-34,-9.18485099360515E-19));
#958=CARTESIAN_POINT('',(0.0969,0.0094742446678153,0.0118983850456105));
#959=CARTESIAN_POINT('',(0.0869,0.010294563097569,0.0118983850456105));
#960=CARTESIAN_POINT('',(0.0902338415480893,0.0100275307318948,0.0118983850456105));
#961=CARTESIAN_POINT('',(0.0935672641101935,0.00975463997505771,0.0118983850456105));
#962=CARTESIAN_POINT('',(0.0969,0.00947424466781529,0.0118983850456105));
#963=CARTESIAN_POINT('',(0.0869,0.0102945630975689,0.0118983850456105));
#964=CARTESIAN_POINT('',(0.0869,-1.12481983699639E-34,-9.18485099360515E-19));
#965=CARTESIAN_POINT('',(0.0969,-1.12481983699639E-34,-9.18485099360515E-19));
#966=CARTESIAN_POINT('',(0.0869,-1.12481983699639E-34,-9.18485099360515E-19));
#967=CARTESIAN_POINT('',(0.0969,-1.12481983699639E-34,-9.18485099360515E-19));
#968=CARTESIAN_POINT('',(0.0869,-1.12481983699639E-34,-9.18485099360515E-19));
#969=CARTESIAN_POINT('',(0.0969,-1.12481983699639E-34,-9.18485099360515E-19));
#970=CARTESIAN_POINT('',(0.0869,-1.12481983699639E-34,-9.18485099360515E-19));
#971=CARTESIAN_POINT('',(0.0969,0.,0.));
#972=CARTESIAN_POINT('',(0.0969,-2.4962548069943E-34,-2.03834673697942E-18));
#973=CARTESIAN_POINT('',(0.0969,2.34196999798203E-18,0.0191236362975235));
#974=CARTESIAN_POINT('',(0.0969,1.45713191611297E-18,0.0118983850456105));
#975=CARTESIAN_POINT('',(0.0969,1.45713191611297E-18,0.0118983850456105));
#976=CARTESIAN_POINT('',(0.0059,0.,0.));
#977=CARTESIAN_POINT('',(0.0969,-2.4962548069943E-34,-2.03834673697942E-18));
#978=CARTESIAN_POINT('',(0.1069,-2.4962548069943E-34,-2.03834673697942E-18));
#979=CARTESIAN_POINT('',(0.1069,3.1994769183894E-18,0.0261257116796206));
#980=CARTESIAN_POINT('',(0.1169,-4.0802447757529E-34,-3.33177270262228E-18));
#981=CARTESIAN_POINT('',(0.1169,-4.0802447757529E-34,-3.33177270262228E-18));
#982=CARTESIAN_POINT('',(0.1169,2.58685193128572E-18,0.0211232490305514));
#983=CARTESIAN_POINT('',(0.1169,-2.4962548069943E-34,-2.03834673697942E-18));
#984=CARTESIAN_POINT('',(0.1169,-2.4962548069943E-34,-2.03834673697942E-18));
#985=CARTESIAN_POINT('',(0.1169,3.1994769183894E-18,0.0261257116796206));
#986=CARTESIAN_POINT('',(0.1169,-4.24884710452154E-34,-3.46944695195361E-18));
#987=CARTESIAN_POINT('',(0.0869,-4.24884710452154E-34,-3.46944695195361E-18));
#988=CARTESIAN_POINT('',(0.0869,1.45713191611297E-18,0.0118983850456105));
#989=CARTESIAN_POINT('',(0.0869,1.45713191611297E-18,0.0118983850456105));
#990=CARTESIAN_POINT('',(0.098,0.001,0.0118983850456105));
#991=CARTESIAN_POINT('',(0.098,0.0140851094999517,0.0118983850456105));
#992=CARTESIAN_POINT('',(0.098,0.0140851094999517,0.0118983850456105));
#993=CARTESIAN_POINT('',(0.098,-0.0140851094999516,0.0118983850456105));
#994=CARTESIAN_POINT('',(0.098,-0.0140851094999516,0.0118983850456105));
#995=CARTESIAN_POINT('',(0.098,0.001,0.0118983850456105));
#996=CARTESIAN_POINT('',(0.000900000000000012,0.,0.));
#997=CARTESIAN_POINT('',(-0.0191,0.,0.));
#998=CARTESIAN_POINT('',(-0.0191,1.23797560682039E-18,0.0125));
#999=CARTESIAN_POINT('',(-0.0191,1.02978565096534E-18,0.0108));
#1000=CARTESIAN_POINT('',(-0.0191,-1.63490347686171E-18,-0.0125));
#1001=CARTESIAN_POINT('',(-0.0191,-1.84309343271676E-18,-0.0142));
#1002=CARTESIAN_POINT('',(0.098,-4.24884710452154E-34,-3.46944695195361E-18));
#1003=CARTESIAN_POINT('',(0.098,-0.0140851094999516,-0.00025));
#1004=CARTESIAN_POINT('',(0.098,-0.0140851094999517,-0.0123983850456105));
#1005=CARTESIAN_POINT('',(0.098,0.0130851094999516,-0.0123983850456105));
#1006=CARTESIAN_POINT('',(0.098,0.0140851094999516,-0.0123983850456105));
#1007=CARTESIAN_POINT('',(0.098,0.0140851094999516,-0.00025));
#1008=CARTESIAN_POINT('',(0.098,-0.0140851094999516,-0.00025));
#1009=CARTESIAN_POINT('',(0.098,-0.0140851094999517,-0.0123983850456105));
#1010=CARTESIAN_POINT('',(0.098,0.0130851094999516,-0.0123983850456105));
#1011=CARTESIAN_POINT('',(0.098,0.0140851094999516,-0.0123983850456105));
#1012=CARTESIAN_POINT('',(0.098,0.0140851094999516,-0.00025));
#1013=CARTESIAN_POINT('',(-0.00939452279647727,0.0075,0.0136));
#1014=CARTESIAN_POINT('',(-0.00939452279647727,0.0075,0.018));
#1015=CARTESIAN_POINT('',(-0.00339452279647727,0.0075,0.018));
#1016=CARTESIAN_POINT('',(-0.0153945227964773,0.0075,0.018));
#1017=CARTESIAN_POINT('',(-0.00339452279647727,0.0075,0.0136));
#1018=CARTESIAN_POINT('',(-0.0153945227964773,0.0075,0.0136));
#1019=CARTESIAN_POINT('',(-0.00939452279647727,-0.0075,0.0136));
#1020=CARTESIAN_POINT('',(-0.00339452279647727,-0.0075,0.0136));
#1021=CARTESIAN_POINT('',(-0.00339452279647727,-0.0075,0.018));
#1022=CARTESIAN_POINT('',(-0.00939452279647727,-0.0075,0.018));
#1023=CARTESIAN_POINT('',(-0.0153945227964773,-0.0075,0.018));
#1024=CARTESIAN_POINT('',(-0.0153945227964773,-0.0075,0.0136));
#1025=CARTESIAN_POINT('',(-0.0153945227964773,-0.00375,0.0136));
#1026=CARTESIAN_POINT('',(-0.0153945227964773,-0.00375,0.018));
#1027=CARTESIAN_POINT('',(-0.00339452279647727,-0.00375,0.0136));
#1028=CARTESIAN_POINT('',(-0.00339452279647727,-0.00375,0.018));
#1029=CARTESIAN_POINT('',(-0.00939452279647727,2.20436423846524E-18,0.018));
#1030=CARTESIAN_POINT('',(-0.00939452279647727,2.20436423846524E-18,0.018));
#1031=CARTESIAN_POINT('',(-0.0133945227964773,2.20436423846524E-18,0.018));
#1032=CARTESIAN_POINT('',(-0.00939452279647727,8.69499227394621E-19,0.0071));
#1033=CARTESIAN_POINT('',(-0.024,-1.63490347686171E-18,-0.0125));
#1034=CARTESIAN_POINT('',(-0.024,-1.63490347686171E-18,-0.0125));
#1035=CARTESIAN_POINT('',(-0.024,-1.84309343271676E-18,-0.0142));
#1036=CARTESIAN_POINT('',(-0.024,0.,0.));
#1037=CARTESIAN_POINT('',(-0.024,1.23797560682039E-18,0.0125));
#1038=CARTESIAN_POINT('',(-0.024,1.23797560682039E-18,0.0125));
#1039=CARTESIAN_POINT('',(-0.024,1.02978565096534E-18,0.0108));
#1040=CARTESIAN_POINT('',(-0.024,0.,0.));
#1041=MECHANICAL_DESIGN_GEOMETRIC_PRESENTATION_REPRESENTATION('',(#597),
#1042);
#1042=(
GEOMETRIC_REPRESENTATION_CONTEXT(3)
GLOBAL_UNCERTAINTY_ASSIGNED_CONTEXT((#1043))
GLOBAL_UNIT_ASSIGNED_CONTEXT((#1046,#1045,#1044))
REPRESENTATION_CONTEXT('Part 1','TOP_LEVEL_ASSEMBLY_PART')
);
#1043=UNCERTAINTY_MEASURE_WITH_UNIT(LENGTH_MEASURE(2.E-5),#1046,
'DISTANCE_ACCURACY_VALUE','Maximum Tolerance applied to model');
#1044=(
NAMED_UNIT(*)
SI_UNIT($,.STERADIAN.)
SOLID_ANGLE_UNIT()
);
#1045=(
NAMED_UNIT(*)
PLANE_ANGLE_UNIT()
SI_UNIT($,.RADIAN.)
);
#1046=(
LENGTH_UNIT()
NAMED_UNIT(*)
SI_UNIT($,.METRE.)
);
#1047=PRODUCT_DEFINITION_SHAPE('','',#1048);
#1048=PRODUCT_DEFINITION('','',#1050,#1049);
#1049=PRODUCT_DEFINITION_CONTEXT('',#1056,'design');
#1050=PRODUCT_DEFINITION_FORMATION_WITH_SPECIFIED_SOURCE('','',#1052,
 .NOT_KNOWN.);
#1051=PRODUCT_RELATED_PRODUCT_CATEGORY('','',(#1052));
#1052=PRODUCT('Part 1','Part 1','Part 1',(#1054));
#1053=PRODUCT_CATEGORY('','');
#1054=PRODUCT_CONTEXT('',#1056,'mechanical');
#1055=APPLICATION_PROTOCOL_DEFINITION('international standard',
'ap242_managed_model_based_3d_engineering',2020,#1056);
#1056=APPLICATION_CONTEXT('managed model based 3d engineering');
ENDSEC;
END-ISO-10303-21;
